<svg width="91" height="89" viewBox="0 0 91 89" fill="none" xmlns="http://www.w3.org/2000/svg">
<path d="M52.8427 66.8454L52.8433 66.8448C55.9676 63.7184 61.0324 63.7184 64.1567 66.8448L64.1573 66.8454C67.2806 69.9601 67.2814 75.0284 64.1567 78.1552C61.0324 81.2816 55.9676 81.2816 52.8433 78.1552C49.7186 75.0284 49.7194 69.9601 52.8427 66.8454Z" fill="#C51A59"/>
<path d="M52.8427 66.8454L52.8433 66.8448C55.9676 63.7184 61.0324 63.7184 64.1567 66.8448L64.1573 66.8454C67.2806 69.9601 67.2814 75.0284 64.1567 78.1552C61.0324 81.2816 55.9676 81.2816 52.8433 78.1552C49.7186 75.0284 49.7194 69.9601 52.8427 66.8454Z" fill="#E59F3B" fill-opacity="0.32"/>
<path d="M52.8427 66.8454L52.8433 66.8448C55.9676 63.7184 61.0324 63.7184 64.1567 66.8448L64.1573 66.8454C67.2806 69.9601 67.2814 75.0284 64.1567 78.1552C61.0324 81.2816 55.9676 81.2816 52.8433 78.1552C49.7186 75.0284 49.7194 69.9601 52.8427 66.8454Z" fill="#FAAC82"/>
<path d="M52.8427 66.8454L52.8433 66.8448C55.9676 63.7184 61.0324 63.7184 64.1567 66.8448L64.1573 66.8454C67.2806 69.9601 67.2814 75.0284 64.1567 78.1552C61.0324 81.2816 55.9676 81.2816 52.8433 78.1552C49.7186 75.0284 49.7194 69.9601 52.8427 66.8454Z" stroke="black"/>
<path d="M78.5 52.5C78.5 58.5751 73.5751 63.5 67.5 63.5C61.4249 63.5 56.5 58.5751 56.5 52.5C56.5 46.4249 61.4249 41.5 67.5 41.5C73.5751 41.5 78.5 46.4249 78.5 52.5Z" fill="#C51A59"/>
<path d="M78.5 52.5C78.5 58.5751 73.5751 63.5 67.5 63.5C61.4249 63.5 56.5 58.5751 56.5 52.5C56.5 46.4249 61.4249 41.5 67.5 41.5C73.5751 41.5 78.5 46.4249 78.5 52.5Z" fill="#D08344"/>
<path d="M78.5 52.5C78.5 58.5751 73.5751 63.5 67.5 63.5C61.4249 63.5 56.5 58.5751 56.5 52.5C56.5 46.4249 61.4249 41.5 67.5 41.5C73.5751 41.5 78.5 46.4249 78.5 52.5Z" stroke="black"/>
<path d="M70.5 30.5C70.5 35.4706 66.4706 39.5 61.5 39.5C56.5294 39.5 52.5 35.4706 52.5 30.5C52.5 25.5294 56.5294 21.5 61.5 21.5C66.4706 21.5 70.5 25.5294 70.5 30.5Z" fill="#F6B867" stroke="black"/>
<path d="M48.5 23.5C48.5 29.0228 44.0228 33.5 38.5 33.5C32.9772 33.5 28.5 29.0228 28.5 23.5C28.5 17.9772 32.9772 13.5 38.5 13.5C44.0228 13.5 48.5 17.9772 48.5 23.5Z" fill="#E85C1F" stroke="black"/>
<path d="M20.5 53.5C14.4283 53.5 9.50033 48.5722 9.5 42.5006C9.51501 36.427 14.4294 31.5 20.5 31.5C26.5868 31.5 31.5 36.4277 31.5 42.5C31.5 48.5723 26.5868 53.5 20.5 53.5Z" fill="#C51A59"/>
<path d="M20.5 53.5C14.4283 53.5 9.50033 48.5722 9.5 42.5006C9.51501 36.427 14.4294 31.5 20.5 31.5C26.5868 31.5 31.5 36.4277 31.5 42.5C31.5 48.5723 26.5868 53.5 20.5 53.5Z" fill="#F7E958" fill-opacity="0.11"/>
<path d="M20.5 53.5C14.4283 53.5 9.50033 48.5722 9.5 42.5006C9.51501 36.427 14.4294 31.5 20.5 31.5C26.5868 31.5 31.5 36.4277 31.5 42.5C31.5 48.5723 26.5868 53.5 20.5 53.5Z" stroke="black"/>
<path d="M16.3962 64.3489L16.3966 64.3488L26.3861 62.4489L16.3962 64.3489ZM16.3962 64.3489C9.59274 65.648 2.97142 61.269 1.50874 54.4945L1.5085 54.4934M16.3962 64.3489L1.5085 54.4934M1.5085 54.4934C0.846202 51.4587 0.5 48.2944 0.5 45.05C0.5 20.4461 20.4461 0.5 45.05 0.5C69.6539 0.5 89.6 20.4461 89.6 45.05C89.6 64.3723 77.2988 80.8184 60.1011 86.9894C56.4397 88.2997 52.7825 87.9737 49.3993 86.0366C46.0264 84.0897 43.9056 81.0853 43.212 77.2608L43.2117 77.2595M1.5085 54.4934L43.2117 77.2595M43.2117 77.2595L42.5219 73.5103L43.2117 77.2595ZM36.7623 64.6173L36.763 64.6178C39.9026 66.773 41.8377 69.7588 42.5217 73.5095L36.7623 64.6173ZM36.7623 64.6173C33.6128 62.4624 30.1276 61.7339 26.3866 62.4488L36.7623 64.6173ZM30.39 42.56C30.39 36.9339 25.8261 32.37 20.2 32.37C14.5732 32.37 10.02 36.9345 10.02 42.56C10.02 48.1861 14.5739 52.74 20.2 52.74C25.8255 52.74 30.39 48.1868 30.39 42.56ZM65.97 72.08C65.97 67.8139 62.5161 64.36 58.25 64.36C53.9839 64.36 50.53 67.8139 50.53 72.08C50.53 76.3452 53.983 79.81 58.25 79.81C62.517 79.81 65.97 76.3452 65.97 72.08ZM75.71 51.14C75.71 46.8748 72.257 43.41 67.99 43.41C63.7239 43.41 60.26 46.8739 60.26 51.14C60.26 55.407 63.7248 58.86 67.99 58.86C72.2561 58.86 75.71 55.4061 75.71 51.14ZM68.72 29.83C68.72 25.5634 65.2557 22.11 61 22.11C56.7348 22.11 53.27 25.563 53.27 29.83C53.27 34.097 56.7348 37.55 61 37.55C65.2557 37.55 68.72 34.0966 68.72 29.83ZM48.34 24.1C48.34 18.9939 44.2061 14.86 39.1 14.86C33.9939 14.86 29.86 18.9939 29.86 24.1C29.86 29.2054 33.9931 33.35 39.1 33.35C44.2069 33.35 48.34 29.2054 48.34 24.1Z" fill="#ECF0F1" stroke="black"/>
</svg>
