<svg width="91" height="89" viewBox="0 0 91 89" fill="none" xmlns="http://www.w3.org/2000/svg">
<path d="M52.4897 66.4913C49.1701 69.8018 49.1701 75.1869 52.4897 78.5087C55.8092 81.8304 61.1908 81.8304 64.5103 78.5087C67.8299 75.1869 67.8299 69.8018 64.5103 66.4913C61.1908 63.1696 55.8092 63.1696 52.4897 66.4913Z" fill="#C51A59"/>
<path d="M52.4897 66.4913C49.1701 69.8018 49.1701 75.1869 52.4897 78.5087C55.8092 81.8304 61.1908 81.8304 64.5103 78.5087C67.8299 75.1869 67.8299 69.8018 64.5103 66.4913C61.1908 63.1696 55.8092 63.1696 52.4897 66.4913Z" fill="#E59F3B" fill-opacity="0.32"/>
<path d="M52.4897 66.4913C49.1701 69.8018 49.1701 75.1869 52.4897 78.5087C55.8092 81.8304 61.1908 81.8304 64.5103 78.5087C67.8299 75.1869 67.8299 69.8018 64.5103 66.4913C61.1908 63.1696 55.8092 63.1696 52.4897 66.4913Z" fill="#FAAC82"/>
<path d="M67.5 64C73.8513 64 79 58.8513 79 52.5C79 46.1487 73.8513 41 67.5 41C61.1487 41 56 46.1487 56 52.5C56 58.8513 61.1487 64 67.5 64Z" fill="#C51A59"/>
<path d="M67.5 64C73.8513 64 79 58.8513 79 52.5C79 46.1487 73.8513 41 67.5 41C61.1487 41 56 46.1487 56 52.5C56 58.8513 61.1487 64 67.5 64Z" fill="#D08344"/>
<path d="M61.5 40C66.7467 40 71 35.7467 71 30.5C71 25.2533 66.7467 21 61.5 21C56.2533 21 52 25.2533 52 30.5C52 35.7467 56.2533 40 61.5 40Z" fill="#F6B867"/>
<path d="M38.5 34C44.299 34 49 29.299 49 23.5C49 17.701 44.299 13 38.5 13C32.701 13 28 17.701 28 23.5C28 29.299 32.701 34 38.5 34Z" fill="#E85C1F"/>
<path d="M9 42.5C9 48.848 14.152 54 20.5 54C26.8634 54 32 48.848 32 42.5C32 36.152 26.8634 31 20.5 31C14.152 31 9.01535 36.152 9 42.5Z" fill="#C51A59"/>
<path d="M9 42.5C9 48.848 14.152 54 20.5 54C26.8634 54 32 48.848 32 42.5C32 36.152 26.8634 31 20.5 31C14.152 31 9.01535 36.152 9 42.5Z" fill="#F7E958" fill-opacity="0.11"/>
<path fill-rule="evenodd" clip-rule="evenodd" d="M26.48 62.94L16.49 64.84C9.42 66.19 2.54 61.64 1.02 54.6C0.35 51.53 0 48.33 0 45.05C0 20.17 20.17 0 45.05 0C69.93 0 90.1 20.17 90.1 45.05C90.1 64.59 77.66 81.22 60.27 87.46C56.47 88.82 52.66 88.48 49.15 86.47C45.65 84.45 43.44 81.32 42.72 77.35L42.03 73.6C41.37 69.98 39.51 67.11 36.48 65.03C33.44 62.95 30.09 62.25 26.48 62.94ZM20.2 32.87C25.55 32.87 29.89 37.21 29.89 42.56C29.89 47.91 25.55 52.24 20.2 52.24C14.85 52.24 10.52 47.91 10.52 42.56C10.52 37.21 14.85 32.87 20.2 32.87ZM58.25 64.86C62.24 64.86 65.47 68.09 65.47 72.08C65.47 76.07 62.24 79.31 58.25 79.31C54.26 79.31 51.03 76.07 51.03 72.08C51.03 68.09 54.26 64.86 58.25 64.86ZM67.99 43.91C71.98 43.91 75.21 47.15 75.21 51.14C75.21 55.13 71.98 58.36 67.99 58.36C64 58.36 60.76 55.13 60.76 51.14C60.76 47.15 64 43.91 67.99 43.91ZM61 22.61C64.98 22.61 68.22 25.84 68.22 29.83C68.22 33.82 64.98 37.05 61 37.05C57.01 37.05 53.77 33.82 53.77 29.83C53.77 25.84 57.01 22.61 61 22.61ZM39.1 15.36C43.93 15.36 47.84 19.27 47.84 24.1C47.84 28.93 43.93 32.85 39.1 32.85C34.27 32.85 30.36 28.93 30.36 24.1C30.36 19.27 34.27 15.36 39.1 15.36Z" fill="#343434"/>
</svg>
