<svg width="91" height="89" viewBox="0 0 91 89" fill="none" xmlns="http://www.w3.org/2000/svg">
<path d="M52.8427 66.8454L52.8433 66.8448C55.9676 63.7184 61.0324 63.7184 64.1567 66.8448L64.1573 66.8454C67.2806 69.9601 67.2814 75.0284 64.1567 78.1552C61.0324 81.2816 55.9676 81.2816 52.8433 78.1552C49.7186 75.0284 49.7194 69.9601 52.8427 66.8454Z" fill="#04A0B0" stroke="black"/>
<path d="M78.5 52.5C78.5 58.5751 73.5751 63.5 67.5 63.5C61.4249 63.5 56.5 58.5751 56.5 52.5C56.5 46.4249 61.4249 41.5 67.5 41.5C73.5751 41.5 78.5 46.4249 78.5 52.5Z" fill="#E59F3B" fill-opacity="0.11"/>
<path d="M78.5 52.5C78.5 58.5751 73.5751 63.5 67.5 63.5C61.4249 63.5 56.5 58.5751 56.5 52.5C56.5 46.4249 61.4249 41.5 67.5 41.5C73.5751 41.5 78.5 46.4249 78.5 52.5Z" fill="#5E81BB"/>
<path d="M78.5 52.5C78.5 58.5751 73.5751 63.5 67.5 63.5C61.4249 63.5 56.5 58.5751 56.5 52.5C56.5 46.4249 61.4249 41.5 67.5 41.5C73.5751 41.5 78.5 46.4249 78.5 52.5Z" stroke="black"/>
<path d="M70.5 30.5C70.5 35.4706 66.4706 39.5 61.5 39.5C56.5294 39.5 52.5 35.4706 52.5 30.5C52.5 25.5294 56.5294 21.5 61.5 21.5C66.4706 21.5 70.5 25.5294 70.5 30.5Z" fill="#B9EAB3" stroke="black"/>
<path d="M48.5 23.5C48.5 29.0228 44.0228 33.5 38.5 33.5C32.9772 33.5 28.5 29.0228 28.5 23.5C28.5 17.9772 32.9772 13.5 38.5 13.5C44.0228 13.5 48.5 17.9772 48.5 23.5Z" fill="#339C5E" stroke="black"/>
<path d="M20.5 53.5C14.4283 53.5 9.50033 48.5722 9.5 42.5006C9.51501 36.427 14.4294 31.5 20.5 31.5C26.5868 31.5 31.5 36.4277 31.5 42.5C31.5 48.5723 26.5868 53.5 20.5 53.5Z" fill="#4ABBD5" stroke="black"/>
<path fill-rule="evenodd" clip-rule="evenodd" d="M26.48 62.94L16.49 64.84C9.42 66.19 2.54 61.64 1.02 54.6C0.35 51.53 0 48.33 0 45.05C0 20.17 20.17 0 45.05 0C69.93 0 90.1 20.17 90.1 45.05C90.1 64.59 77.66 81.22 60.27 87.46C56.47 88.82 52.66 88.48 49.15 86.47C45.65 84.45 43.44 81.32 42.72 77.35L42.03 73.6C41.37 69.98 39.51 67.11 36.48 65.03C33.44 62.95 30.09 62.25 26.48 62.94ZM20.2 32.87C25.55 32.87 29.89 37.21 29.89 42.56C29.89 47.91 25.55 52.24 20.2 52.24C14.85 52.24 10.52 47.91 10.52 42.56C10.52 37.21 14.85 32.87 20.2 32.87ZM58.25 64.86C62.24 64.86 65.47 68.09 65.47 72.08C65.47 76.07 62.24 79.31 58.25 79.31C54.26 79.31 51.03 76.07 51.03 72.08C51.03 68.09 54.26 64.86 58.25 64.86ZM67.99 43.91C71.98 43.91 75.21 47.15 75.21 51.14C75.21 55.13 71.98 58.36 67.99 58.36C64 58.36 60.76 55.13 60.76 51.14C60.76 47.15 64 43.91 67.99 43.91ZM61 22.61C64.98 22.61 68.22 25.84 68.22 29.83C68.22 33.82 64.98 37.05 61 37.05C57.01 37.05 53.77 33.82 53.77 29.83C53.77 25.84 57.01 22.61 61 22.61ZM39.1 15.36C43.93 15.36 47.84 19.27 47.84 24.1C47.84 28.93 43.93 32.85 39.1 32.85C34.27 32.85 30.36 28.93 30.36 24.1C30.36 19.27 34.27 15.36 39.1 15.36Z" fill="#ECF0F1"/>
</svg>
