<svg width="75" height="80" viewBox="0 0 75 80" fill="none" xmlns="http://www.w3.org/2000/svg">
<path d="M1.10421 47.0036L1.1049 47.0075C4.24454 65.7665 20.4859 79.5099 39.5015 79.5H39.5018C40.34 79.5 41.1801 79.4704 42.0327 79.4208L42.0368 79.4206L42.2273 79.4112C42.229 79.411 42.2306 79.4109 42.2322 79.4108C49.241 78.9262 53.827 76.5199 56.0521 72.4119L56.0521 72.4118C57.3558 70.0059 57.8571 66.9084 57.5924 63.8861C57.328 60.8671 56.3048 57.9826 54.6268 55.9811C53.1111 54.3497 51.3702 52.9418 49.4719 51.7872L49.4623 51.7813L49.453 51.7751L49.4266 51.7574C47.7021 50.5995 46.0181 49.4689 44.8577 48.13C43.665 46.7539 43.0044 45.1352 43.3587 43.0368C43.3587 43.0368 43.3587 43.0368 43.3587 43.0368L43.8517 43.12C44.2618 40.69 47.7317 40.2 53.3418 39.61L1.10421 47.0036ZM1.10421 47.0036C-0.940296 35.3588 2.25978 23.398 9.85491 14.3312C17.21 5.57441 28.0599 0.509943 39.492 0.5C52.809 0.50006 64.5018 5.87452 71.604 15.193C73.9803 18.3331 74.9553 22.3128 74.2889 26.1852L74.2882 26.1897C73.7011 29.7993 71.6228 33.0046 68.5638 35.0078L68.4397 35.0842L68.4396 35.0841L68.4324 35.0887C63.9238 37.9711 58.3551 38.5689 53.3061 39.1109L53.2895 39.1127C53.2894 39.1127 53.2894 39.1127 53.2893 39.1127L1.10421 47.0036Z" fill="#C6C5C6"/>
<path d="M1.10421 47.0036L1.1049 47.0075C4.24454 65.7665 20.4859 79.5099 39.5015 79.5H39.5018C40.34 79.5 41.1801 79.4704 42.0327 79.4208L42.0368 79.4206L42.2273 79.4112C42.229 79.411 42.2306 79.4109 42.2322 79.4108C49.241 78.9262 53.827 76.5199 56.0521 72.4119L56.0521 72.4118C57.3558 70.0059 57.8571 66.9084 57.5924 63.8861C57.328 60.8671 56.3048 57.9826 54.6268 55.9811C53.1111 54.3497 51.3702 52.9418 49.4719 51.7872L49.4623 51.7813L49.453 51.7751L49.4266 51.7574C47.7021 50.5995 46.0181 49.4689 44.8577 48.13C43.665 46.7539 43.0044 45.1352 43.3587 43.0368C43.3587 43.0368 43.3587 43.0368 43.3587 43.0368L43.8517 43.12C44.2618 40.69 47.7317 40.2 53.3418 39.61L1.10421 47.0036ZM1.10421 47.0036C-0.940296 35.3588 2.25978 23.398 9.85491 14.3312C17.21 5.57441 28.0599 0.509943 39.492 0.5C52.809 0.50006 64.5018 5.87452 71.604 15.193C73.9803 18.3331 74.9553 22.3128 74.2889 26.1852L74.2882 26.1897C73.7011 29.7993 71.6228 33.0046 68.5638 35.0078L68.4397 35.0842L68.4396 35.0841L68.4324 35.0887C63.9238 37.9711 58.3551 38.5689 53.3061 39.1109L53.2895 39.1127C53.2894 39.1127 53.2894 39.1127 53.2893 39.1127L1.10421 47.0036Z" fill="white" fill-opacity="0.79"/>
<path d="M1.10421 47.0036L1.1049 47.0075C4.24454 65.7665 20.4859 79.5099 39.5015 79.5H39.5018C40.34 79.5 41.1801 79.4704 42.0327 79.4208L42.0368 79.4206L42.2273 79.4112C42.229 79.411 42.2306 79.4109 42.2322 79.4108C49.241 78.9262 53.827 76.5199 56.0521 72.4119L56.0521 72.4118C57.3558 70.0059 57.8571 66.9084 57.5924 63.8861C57.328 60.8671 56.3048 57.9826 54.6268 55.9811C53.1111 54.3497 51.3702 52.9418 49.4719 51.7872L49.4623 51.7813L49.453 51.7751L49.4266 51.7574C47.7021 50.5995 46.0181 49.4689 44.8577 48.13C43.665 46.7539 43.0044 45.1352 43.3587 43.0368C43.3587 43.0368 43.3587 43.0368 43.3587 43.0368L43.8517 43.12C44.2618 40.69 47.7317 40.2 53.3418 39.61L1.10421 47.0036ZM1.10421 47.0036C-0.940296 35.3588 2.25978 23.398 9.85491 14.3312C17.21 5.57441 28.0599 0.509943 39.492 0.5C52.809 0.50006 64.5018 5.87452 71.604 15.193C73.9803 18.3331 74.9553 22.3128 74.2889 26.1852L74.2882 26.1897C73.7011 29.7993 71.6228 33.0046 68.5638 35.0078L68.4397 35.0842L68.4396 35.0841L68.4324 35.0887C63.9238 37.9711 58.3551 38.5689 53.3061 39.1109L53.2895 39.1127C53.2894 39.1127 53.2894 39.1127 53.2893 39.1127L1.10421 47.0036Z" stroke="#6C756C"/>
<path d="M40.002 21.75C44.4202 21.75 48.002 18.1683 48.002 13.75C48.002 9.33172 44.4202 5.75 40.002 5.75C35.5837 5.75 32.002 9.33172 32.002 13.75C32.002 18.1683 35.5837 21.75 40.002 21.75Z" fill="#CE361D"/>
<path d="M40.002 21.75C44.4202 21.75 48.002 18.1683 48.002 13.75C48.002 9.33172 44.4202 5.75 40.002 5.75C35.5837 5.75 32.002 9.33172 32.002 13.75C32.002 18.1683 35.5837 21.75 40.002 21.75Z" fill="#F7E958" fill-opacity="0.9"/>
<path d="M40.002 21.75C44.4202 21.75 48.002 18.1683 48.002 13.75C48.002 9.33172 44.4202 5.75 40.002 5.75C35.5837 5.75 32.002 9.33172 32.002 13.75C32.002 18.1683 35.5837 21.75 40.002 21.75Z" stroke="#6C756C"/>
<path d="M27.1054 27.0933L27.106 27.0927C30.2197 23.9683 30.2209 18.903 27.1065 15.7873C24.0319 12.6715 19.0149 12.6193 15.8956 15.6792C15.8468 15.7177 15.8014 15.7629 15.7624 15.8121C12.6625 18.9299 12.6722 23.9772 15.7883 27.0933C18.9135 30.2185 23.9801 30.2185 27.1054 27.0933Z" fill="#CE361D"/>
<path d="M27.1054 27.0933L27.106 27.0927C30.2197 23.9683 30.2209 18.903 27.1065 15.7873C24.0319 12.6715 19.0149 12.6193 15.8956 15.6792C15.8468 15.7177 15.8014 15.7629 15.7624 15.8121C12.6625 18.9299 12.6722 23.9772 15.7883 27.0933C18.9135 30.2185 23.9801 30.2185 27.1054 27.0933Z" fill="#F7E958" fill-opacity="0.79"/>
<path d="M27.1054 27.0933L27.106 27.0927C30.2197 23.9683 30.2209 18.903 27.1065 15.7873C24.0319 12.6715 19.0149 12.6193 15.8956 15.6792C15.8468 15.7177 15.8014 15.7629 15.7624 15.8121C12.6625 18.9299 12.6722 23.9772 15.7883 27.0933C18.9135 30.2185 23.9801 30.2185 27.1054 27.0933Z" stroke="#6C756C"/>
<path d="M52.9087 15.786C49.7826 18.9018 49.7836 23.9686 52.9084 27.0934C56.0336 30.2187 61.1002 30.2187 64.2255 27.0934C67.3502 23.9687 67.3513 18.9021 64.2255 15.7863C61.1003 12.6612 56.034 12.6611 52.9087 15.786Z" fill="#CE361D"/>
<path d="M52.9087 15.786C49.7826 18.9018 49.7836 23.9686 52.9084 27.0934C56.0336 30.2187 61.1002 30.2187 64.2255 27.0934C67.3502 23.9687 67.3513 18.9021 64.2255 15.7863C61.1003 12.6612 56.034 12.6611 52.9087 15.786Z" fill="#F7E958"/>
<path d="M52.9087 15.786C49.7826 18.9018 49.7836 23.9686 52.9084 27.0934C56.0336 30.2187 61.1002 30.2187 64.2255 27.0934C67.3502 23.9687 67.3513 18.9021 64.2255 15.7863C61.1003 12.6612 56.034 12.6611 52.9087 15.786Z" stroke="#6C756C"/>
<path d="M13.752 48C18.1702 48 21.752 44.4183 21.752 40C21.752 35.5817 18.1702 32 13.752 32C9.33368 32 5.75195 35.5817 5.75195 40C5.75195 44.4183 9.33368 48 13.752 48Z" fill="#CE361D"/>
<path d="M13.752 48C18.1702 48 21.752 44.4183 21.752 40C21.752 35.5817 18.1702 32 13.752 32C9.33368 32 5.75195 35.5817 5.75195 40C5.75195 44.4183 9.33368 48 13.752 48Z" fill="#F7E958" fill-opacity="0.58"/>
<path d="M13.752 48C18.1702 48 21.752 44.4183 21.752 40C21.752 35.5817 18.1702 32 13.752 32C9.33368 32 5.75195 35.5817 5.75195 40C5.75195 44.4183 9.33368 48 13.752 48Z" stroke="#6C756C"/>
<path d="M27.1054 64.2132L27.106 64.2126C30.2202 61.0877 30.2204 56.0325 27.1066 52.9073C24.0216 49.7911 19.0156 49.75 15.8873 52.8076C15.8399 52.8445 15.7983 52.8858 15.761 52.9335C12.6636 56.0604 12.6716 61.1065 15.7883 64.2132C18.9135 67.3384 23.9801 67.3384 27.1054 64.2132Z" fill="#CE361D"/>
<path d="M27.1054 64.2132L27.106 64.2126C30.2202 61.0877 30.2204 56.0325 27.1066 52.9073C24.0216 49.7911 19.0156 49.75 15.8873 52.8076C15.8399 52.8445 15.7983 52.8858 15.761 52.9335C12.6636 56.0604 12.6716 61.1065 15.7883 64.2132C18.9135 67.3384 23.9801 67.3384 27.1054 64.2132Z" fill="#F7E958" fill-opacity="0.32"/>
<path d="M27.1054 64.2132L27.106 64.2126C30.2202 61.0877 30.2204 56.0325 27.1066 52.9073C24.0216 49.7911 19.0156 49.75 15.8873 52.8076C15.8399 52.8445 15.7983 52.8858 15.761 52.9335C12.6636 56.0604 12.6716 61.1065 15.7883 64.2132C18.9135 67.3384 23.9801 67.3384 27.1054 64.2132Z" stroke="#6C756C"/>
<path d="M32.002 66.2488V66.25C32.002 70.6662 35.5858 74.25 40.002 74.25C44.4286 74.25 48.002 70.6657 48.002 66.25C48.002 61.8343 44.4286 58.25 40.002 58.25C35.5847 58.25 32.0126 61.8347 32.002 66.2488Z" fill="#CE361D"/>
<path d="M32.002 66.2488V66.25C32.002 70.6662 35.5858 74.25 40.002 74.25C44.4286 74.25 48.002 70.6657 48.002 66.25C48.002 61.8343 44.4286 58.25 40.002 58.25C35.5847 58.25 32.0126 61.8347 32.002 66.2488Z" fill="#F7E958" fill-opacity="0.11"/>
<path d="M32.002 66.2488V66.25C32.002 70.6662 35.5858 74.25 40.002 74.25C44.4286 74.25 48.002 70.6657 48.002 66.25C48.002 61.8343 44.4286 58.25 40.002 58.25C35.5847 58.25 32.0126 61.8347 32.002 66.2488Z" stroke="#6C756C"/>
</svg>
