<svg width="91" height="89" viewBox="0 0 91 89" fill="none" xmlns="http://www.w3.org/2000/svg">
<path d="M52.4897 66.4913C49.1701 69.8018 49.1701 75.1869 52.4897 78.5087C55.8092 81.8304 61.1908 81.8304 64.5103 78.5087C67.8299 75.1869 67.8299 69.8018 64.5103 66.4913C61.1908 63.1696 55.8092 63.1696 52.4897 66.4913Z" fill="#C51A59"/>
<path d="M52.4897 66.4913C49.1701 69.8018 49.1701 75.1869 52.4897 78.5087C55.8092 81.8304 61.1908 81.8304 64.5103 78.5087C67.8299 75.1869 67.8299 69.8018 64.5103 66.4913C61.1908 63.1696 55.8092 63.1696 52.4897 66.4913Z" fill="#E59F3B" fill-opacity="0.32"/>
<path d="M52.4897 66.4913C49.1701 69.8018 49.1701 75.1869 52.4897 78.5087C55.8092 81.8304 61.1908 81.8304 64.5103 78.5087C67.8299 75.1869 67.8299 69.8018 64.5103 66.4913C61.1908 63.1696 55.8092 63.1696 52.4897 66.4913Z" fill="#FAAC82"/>
<path d="M67.5 64C73.8513 64 79 58.8513 79 52.5C79 46.1487 73.8513 41 67.5 41C61.1487 41 56 46.1487 56 52.5C56 58.8513 61.1487 64 67.5 64Z" fill="#C51A59"/>
<path d="M67.5 64C73.8513 64 79 58.8513 79 52.5C79 46.1487 73.8513 41 67.5 41C61.1487 41 56 46.1487 56 52.5C56 58.8513 61.1487 64 67.5 64Z" fill="#D08344"/>
<path d="M61.5 40C66.7467 40 71 35.7467 71 30.5C71 25.2533 66.7467 21 61.5 21C56.2533 21 52 25.2533 52 30.5C52 35.7467 56.2533 40 61.5 40Z" fill="#F6B867"/>
<path d="M38.5 34C44.299 34 49 29.299 49 23.5C49 17.701 44.299 13 38.5 13C32.701 13 28 17.701 28 23.5C28 29.299 32.701 34 38.5 34Z" fill="#E85C1F"/>
<path d="M9 42.5C9 48.848 14.152 54 20.5 54C26.8634 54 32 48.848 32 42.5C32 36.152 26.8634 31 20.5 31C14.152 31 9.01535 36.152 9 42.5Z" fill="#C51A59"/>
<path d="M9 42.5C9 48.848 14.152 54 20.5 54C26.8634 54 32 48.848 32 42.5C32 36.152 26.8634 31 20.5 31C14.152 31 9.01535 36.152 9 42.5Z" fill="#F7E958" fill-opacity="0.11"/>
<path d="M16.3962 64.3489L16.3966 64.3488L26.3861 62.4489L16.3962 64.3489ZM16.3962 64.3489C9.59274 65.648 2.97142 61.269 1.50874 54.4945L1.5085 54.4934M16.3962 64.3489L1.5085 54.4934M1.5085 54.4934C0.846202 51.4587 0.5 48.2944 0.5 45.05C0.5 20.4461 20.4461 0.5 45.05 0.5C69.6539 0.5 89.6 20.4461 89.6 45.05C89.6 64.3723 77.2988 80.8184 60.1011 86.9894C56.4397 88.2997 52.7825 87.9737 49.3993 86.0366C46.0264 84.0897 43.9056 81.0853 43.212 77.2608L43.2117 77.2595M1.5085 54.4934L43.2117 77.2595M43.2117 77.2595L42.5219 73.5103L43.2117 77.2595ZM36.7623 64.6173L36.763 64.6178C39.9026 66.773 41.8377 69.7588 42.5217 73.5095L36.7623 64.6173ZM36.7623 64.6173C33.6128 62.4624 30.1276 61.7339 26.3866 62.4488L36.7623 64.6173ZM30.39 42.56C30.39 36.9339 25.8261 32.37 20.2 32.37C14.5732 32.37 10.02 36.9345 10.02 42.56C10.02 48.1861 14.5739 52.74 20.2 52.74C25.8255 52.74 30.39 48.1868 30.39 42.56ZM65.97 72.08C65.97 67.8139 62.5161 64.36 58.25 64.36C53.9839 64.36 50.53 67.8139 50.53 72.08C50.53 76.3452 53.983 79.81 58.25 79.81C62.517 79.81 65.97 76.3452 65.97 72.08ZM75.71 51.14C75.71 46.8748 72.257 43.41 67.99 43.41C63.7239 43.41 60.26 46.8739 60.26 51.14C60.26 55.407 63.7248 58.86 67.99 58.86C72.2561 58.86 75.71 55.4061 75.71 51.14ZM68.72 29.83C68.72 25.5634 65.2557 22.11 61 22.11C56.7348 22.11 53.27 25.563 53.27 29.83C53.27 34.097 56.7348 37.55 61 37.55C65.2557 37.55 68.72 34.0966 68.72 29.83ZM48.34 24.1C48.34 18.9939 44.2061 14.86 39.1 14.86C33.9939 14.86 29.86 18.9939 29.86 24.1C29.86 29.2054 33.9931 33.35 39.1 33.35C44.2069 33.35 48.34 29.2054 48.34 24.1Z" fill="#343434" stroke="white"/>
</svg>
