<svg width="32" height="30" viewBox="0 0 32 30" fill="none" xmlns="http://www.w3.org/2000/svg">
<path d="M1.28 16.64H0V17.92H1.28V16.64Z" fill="#0075AF"/>
<path d="M2.56 16.64H1.28V17.92H2.56V16.64Z" fill="#0075AF"/>
<path d="M3.84 16.64H2.56V17.92H3.84V16.64Z" fill="#0075AF"/>
<path d="M5.12 16.64H3.84V17.92H5.12V16.64Z" fill="#0075AF"/>
<path d="M6.4 16.64H5.12V17.92H6.4V16.64Z" fill="#0075AF"/>
<path d="M7.67999 16.64H6.39999V17.92H7.67999V16.64Z" fill="#0075AF"/>
<path d="M8.95999 16.64H7.67999V17.92H8.95999V16.64Z" fill="#0075AF"/>
<path d="M1.28 17.92H0V19.2H1.28V17.92Z" fill="#0075AF"/>
<path d="M2.56 17.92H1.28V19.2H2.56V17.92Z" fill="#0075AF"/>
<path d="M3.84 17.92H2.56V19.2H3.84V17.92Z" fill="#0075AF"/>
<path d="M5.12 17.92H3.84V19.2H5.12V17.92Z" fill="#0075AF"/>
<path d="M6.4 17.92H5.12V19.2H6.4V17.92Z" fill="#0075AF"/>
<path d="M7.67999 17.92H6.39999V19.2H7.67999V17.92Z" fill="#0075AF"/>
<path d="M8.95999 17.92H7.67999V19.2H8.95999V17.92Z" fill="#0075AF"/>
<path d="M1.28 19.2H0V20.48H1.28V19.2Z" fill="#0075AF"/>
<path d="M2.56 19.2H1.28V20.48H2.56V19.2Z" fill="#0075AF"/>
<path d="M3.84 19.2H2.56V20.48H3.84V19.2Z" fill="#0075AF"/>
<path d="M5.12 19.2H3.84V20.48H5.12V19.2Z" fill="#0075AF"/>
<path d="M6.4 19.2H5.12V20.48H6.4V19.2Z" fill="#0075AF"/>
<path d="M7.67999 19.2H6.39999V20.48H7.67999V19.2Z" fill="#0075AF"/>
<path d="M8.95999 19.2H7.67999V20.48H8.95999V19.2Z" fill="#0075AF"/>
<path d="M1.28 20.48H0V21.76H1.28V20.48Z" fill="#0075AF"/>
<path d="M2.56 20.48H1.28V21.76H2.56V20.48Z" fill="#0075AF"/>
<path d="M3.84 20.48H2.56V21.76H3.84V20.48Z" fill="#0075AF"/>
<path d="M5.12 20.48H3.84V21.76H5.12V20.48Z" fill="#0075AF"/>
<path d="M6.4 20.48H5.12V21.76H6.4V20.48Z" fill="#0075AF"/>
<path d="M7.67999 20.48H6.39999V21.76H7.67999V20.48Z" fill="#0075AF"/>
<path d="M8.95999 20.48H7.67999V21.76H8.95999V20.48Z" fill="#0075AF"/>
<path d="M1.28 21.76H0V23.04H1.28V21.76Z" fill="#0075AF"/>
<path d="M2.56 21.76H1.28V23.04H2.56V21.76Z" fill="#0075AF"/>
<path d="M3.84 21.76H2.56V23.04H3.84V21.76Z" fill="#0075AF"/>
<path d="M5.12 21.76H3.84V23.04H5.12V21.76Z" fill="#0075AF"/>
<path d="M6.4 21.76H5.12V23.04H6.4V21.76Z" fill="#0075AF"/>
<path d="M7.67999 21.76H6.39999V23.04H7.67999V21.76Z" fill="#0075AF"/>
<path d="M8.95999 21.76H7.67999V23.04H8.95999V21.76Z" fill="#0075AF"/>
<path d="M1.28 23.04H0V24.32H1.28V23.04Z" fill="#0075AF"/>
<path d="M2.56 23.04H1.28V24.32H2.56V23.04Z" fill="#0075AF"/>
<path d="M3.84 23.04H2.56V24.32H3.84V23.04Z" fill="#0075AF"/>
<path d="M5.12 23.04H3.84V24.32H5.12V23.04Z" fill="#0075AF"/>
<path d="M6.4 23.04H5.12V24.32H6.4V23.04Z" fill="#0075AF"/>
<path d="M7.67999 23.04H6.39999V24.32H7.67999V23.04Z" fill="#0075AF"/>
<path d="M8.95999 23.04H7.67999V24.32H8.95999V23.04Z" fill="#0075AF"/>
<path d="M1.28 24.32H0V25.6H1.28V24.32Z" fill="#0075AF"/>
<path d="M2.56 24.32H1.28V25.6H2.56V24.32Z" fill="#0075AF"/>
<path d="M3.84 24.32H2.56V25.6H3.84V24.32Z" fill="#0075AF"/>
<path d="M5.12 24.32H3.84V25.6H5.12V24.32Z" fill="#0075AF"/>
<path d="M6.4 24.32H5.12V25.6H6.4V24.32Z" fill="#0075AF"/>
<path d="M7.67999 24.32H6.39999V25.6H7.67999V24.32Z" fill="#0075AF"/>
<path d="M8.95999 24.32H7.67999V25.6H8.95999V24.32Z" fill="#0075AF"/>
<path d="M1.28 25.6H0V26.88H1.28V25.6Z" fill="white"/>
<path d="M2.56 25.6H1.28V26.88H2.56V25.6Z" fill="white"/>
<path d="M3.84 25.6H2.56V26.88H3.84V25.6Z" fill="white"/>
<path d="M5.12 25.6H3.84V26.88H5.12V25.6Z" fill="white"/>
<path d="M6.4 25.6H5.12V26.88H6.4V25.6Z" fill="white"/>
<path d="M7.67999 25.6H6.39999V26.88H7.67999V25.6Z" fill="white"/>
<path d="M8.95999 25.6H7.67999V26.88H8.95999V25.6Z" fill="white"/>
<path d="M1.28 26.88H0V28.16H1.28V26.88Z" fill="white"/>
<path d="M2.56 26.88H1.28V28.16H2.56V26.88Z" fill="white"/>
<path d="M3.84 26.88H2.56V28.16H3.84V26.88Z" fill="white"/>
<path d="M5.12 26.88H3.84V28.16H5.12V26.88Z" fill="white"/>
<path d="M6.4 26.88H5.12V28.16H6.4V26.88Z" fill="white"/>
<path d="M7.67999 26.88H6.39999V28.16H7.67999V26.88Z" fill="white"/>
<path d="M8.95999 26.88H7.67999V28.16H8.95999V26.88Z" fill="white"/>
<path d="M1.28 28.16H0V29.44H1.28V28.16Z" fill="#D9D9D9"/>
<path d="M2.56 28.16H1.28V29.44H2.56V28.16Z" fill="#FEFEFE"/>
<path d="M3.84 28.16H2.56V29.44H3.84V28.16Z" fill="white"/>
<path d="M5.12 28.16H3.84V29.44H5.12V28.16Z" fill="white"/>
<path d="M6.4 28.16H5.12V29.44H6.4V28.16Z" fill="white"/>
<path d="M7.67999 28.16H6.39999V29.44H7.67999V28.16Z" fill="white"/>
<path d="M8.95999 28.16H7.67999V29.44H8.95999V28.16Z" fill="white"/>
<path d="M24.0941 16.64H22.8141V17.92H24.0941V16.64Z" fill="#009B8C"/>
<path d="M25.3741 16.64H24.0941V17.92H25.3741V16.64Z" fill="#009B8C"/>
<path d="M26.6541 16.64H25.3741V17.92H26.6541V16.64Z" fill="#009B8C"/>
<path d="M27.9341 16.64H26.6541V17.92H27.9341V16.64Z" fill="#009B8C"/>
<path d="M29.2141 16.64H27.9341V17.92H29.2141V16.64Z" fill="#009B8C"/>
<path d="M30.4941 16.64H29.2141V17.92H30.4941V16.64Z" fill="#009B8C"/>
<path d="M31.7741 16.64H30.4941V17.92H31.7741V16.64Z" fill="#009B8C"/>
<path d="M24.0941 17.92H22.8141V19.2H24.0941V17.92Z" fill="#009B8C"/>
<path d="M25.3741 17.92H24.0941V19.2H25.3741V17.92Z" fill="#009B8C"/>
<path d="M26.6541 17.92H25.3741V19.2H26.6541V17.92Z" fill="#009B8C"/>
<path d="M27.9341 17.92H26.6541V19.2H27.9341V17.92Z" fill="#009B8C"/>
<path d="M29.2141 17.92H27.9341V19.2H29.2141V17.92Z" fill="#009B8C"/>
<path d="M30.4941 17.92H29.2141V19.2H30.4941V17.92Z" fill="#009B8C"/>
<path d="M31.7741 17.92H30.4941V19.2H31.7741V17.92Z" fill="#009B8C"/>
<path d="M24.0941 19.2H22.8141V20.48H24.0941V19.2Z" fill="#009B8C"/>
<path d="M25.3741 19.2H24.0941V20.48H25.3741V19.2Z" fill="#009B8C"/>
<path d="M26.6541 19.2H25.3741V20.48H26.6541V19.2Z" fill="#009B8C"/>
<path d="M27.9341 19.2H26.6541V20.48H27.9341V19.2Z" fill="#009B8C"/>
<path d="M29.2141 19.2H27.9341V20.48H29.2141V19.2Z" fill="#009B8C"/>
<path d="M30.4941 19.2H29.2141V20.48H30.4941V19.2Z" fill="#009B8C"/>
<path d="M31.7741 19.2H30.4941V20.48H31.7741V19.2Z" fill="#009B8C"/>
<path d="M24.0941 20.48H22.8141V21.76H24.0941V20.48Z" fill="#009B8C"/>
<path d="M25.3741 20.48H24.0941V21.76H25.3741V20.48Z" fill="#009B8C"/>
<path d="M26.6541 20.48H25.3741V21.76H26.6541V20.48Z" fill="#009B8C"/>
<path d="M27.9341 20.48H26.6541V21.76H27.9341V20.48Z" fill="#009B8C"/>
<path d="M29.2141 20.48H27.9341V21.76H29.2141V20.48Z" fill="#009B8C"/>
<path d="M30.4941 20.48H29.2141V21.76H30.4941V20.48Z" fill="#009B8C"/>
<path d="M31.7741 20.48H30.4941V21.76H31.7741V20.48Z" fill="#009B8C"/>
<path d="M24.0941 21.76H22.8141V23.04H24.0941V21.76Z" fill="#009B8C"/>
<path d="M25.3741 21.76H24.0941V23.04H25.3741V21.76Z" fill="#009B8C"/>
<path d="M26.6541 21.76H25.3741V23.04H26.6541V21.76Z" fill="#009B8C"/>
<path d="M27.9341 21.76H26.6541V23.04H27.9341V21.76Z" fill="#009B8C"/>
<path d="M29.2141 21.76H27.9341V23.04H29.2141V21.76Z" fill="#009B8C"/>
<path d="M30.4941 21.76H29.2141V23.04H30.4941V21.76Z" fill="#009B8C"/>
<path d="M31.7741 21.76H30.4941V23.04H31.7741V21.76Z" fill="#009B8C"/>
<path d="M24.0941 23.04H22.8141V24.32H24.0941V23.04Z" fill="#009B8C"/>
<path d="M25.3741 23.04H24.0941V24.32H25.3741V23.04Z" fill="#009B8C"/>
<path d="M26.6541 23.04H25.3741V24.32H26.6541V23.04Z" fill="#009B8C"/>
<path d="M27.9341 23.04H26.6541V24.32H27.9341V23.04Z" fill="#009B8C"/>
<path d="M29.2141 23.04H27.9341V24.32H29.2141V23.04Z" fill="#009B8C"/>
<path d="M30.4941 23.04H29.2141V24.32H30.4941V23.04Z" fill="#009B8C"/>
<path d="M31.7741 23.04H30.4941V24.32H31.7741V23.04Z" fill="#009B8C"/>
<path d="M24.0941 24.32H22.8141V25.6H24.0941V24.32Z" fill="#009B8C"/>
<path d="M25.3741 24.32H24.0941V25.6H25.3741V24.32Z" fill="#009B8C"/>
<path d="M26.6541 24.32H25.3741V25.6H26.6541V24.32Z" fill="#009B8C"/>
<path d="M27.9341 24.32H26.6541V25.6H27.9341V24.32Z" fill="#009B8C"/>
<path d="M29.2141 24.32H27.9341V25.6H29.2141V24.32Z" fill="#009B8C"/>
<path d="M30.4941 24.32H29.2141V25.6H30.4941V24.32Z" fill="#009B8C"/>
<path d="M31.7741 24.32H30.4941V25.6H31.7741V24.32Z" fill="#009B8C"/>
<path d="M24.0941 25.6H22.8141V26.88H24.0941V25.6Z" fill="white"/>
<path d="M25.3741 25.6H24.0941V26.88H25.3741V25.6Z" fill="white"/>
<path d="M26.6541 25.6H25.3741V26.88H26.6541V25.6Z" fill="white"/>
<path d="M27.9341 25.6H26.6541V26.88H27.9341V25.6Z" fill="white"/>
<path d="M29.2141 25.6H27.9341V26.88H29.2141V25.6Z" fill="white"/>
<path d="M30.4941 25.6H29.2141V26.88H30.4941V25.6Z" fill="white"/>
<path d="M31.7741 25.6H30.4941V26.88H31.7741V25.6Z" fill="white"/>
<path d="M24.0941 26.88H22.8141V28.16H24.0941V26.88Z" fill="white"/>
<path d="M25.3741 26.88H24.0941V28.16H25.3741V26.88Z" fill="white"/>
<path d="M26.6541 26.88H25.3741V28.16H26.6541V26.88Z" fill="white"/>
<path d="M27.9341 26.88H26.6541V28.16H27.9341V26.88Z" fill="white"/>
<path d="M29.2141 26.88H27.9341V28.16H29.2141V26.88Z" fill="white"/>
<path d="M30.4941 26.88H29.2141V28.16H30.4941V26.88Z" fill="white"/>
<path d="M31.7741 26.88H30.4941V28.16H31.7741V26.88Z" fill="white"/>
<path d="M24.0941 28.16H22.8141V29.44H24.0941V28.16Z" fill="black"/>
<path d="M25.3741 28.16H24.0941V29.44H25.3741V28.16Z" fill="white"/>
<path d="M26.6541 28.16H25.3741V29.44H26.6541V28.16Z" fill="#FCFCFC"/>
<path d="M27.9341 28.16H26.6541V29.44H27.9341V28.16Z" fill="#8E8E8E"/>
<path d="M29.2141 28.16H27.9341V29.44H29.2141V28.16Z" fill="white"/>
<path d="M30.4941 28.16H29.2141V29.44H30.4941V28.16Z" fill="white"/>
<path d="M31.7741 28.16H30.4941V29.44H31.7741V28.16Z" fill="white"/>
<path d="M12.8 0H11.52V1.28H12.8V0Z" fill="#B9EAB3"/>
<path d="M14.08 0H12.8V1.28H14.08V0Z" fill="#B9EAB3"/>
<path d="M15.36 0H14.08V1.28H15.36V0Z" fill="#B9EAB3"/>
<path d="M16.64 0H15.36V1.28H16.64V0Z" fill="#B9EAB3"/>
<path d="M17.92 0H16.64V1.28H17.92V0Z" fill="#B9EAB3"/>
<path d="M19.2 0H17.92V1.28H19.2V0Z" fill="#B9EAB3"/>
<path d="M20.48 0H19.2V1.28H20.48V0Z" fill="#B9EAB3"/>
<path d="M24.32 0H23.04V1.28H24.32V0Z" fill="#4ABBD5"/>
<path d="M25.6 0H24.32V1.28H25.6V0Z" fill="#4ABBD5"/>
<path d="M26.88 0H25.6V1.28H26.88V0Z" fill="#4ABBD5"/>
<path d="M28.16 0H26.88V1.28H28.16V0Z" fill="#4ABBD5"/>
<path d="M29.44 0H28.16V1.28H29.44V0Z" fill="#4ABBD5"/>
<path d="M30.72 0H29.44V1.28H30.72V0Z" fill="#4ABBD5"/>
<path d="M32 0H30.72V1.28H32V0Z" fill="#4ABBD5"/>
<path d="M12.8 1.28H11.52V2.56H12.8V1.28Z" fill="#B9EAB3"/>
<path d="M14.08 1.28H12.8V2.56H14.08V1.28Z" fill="#B9EAB3"/>
<path d="M15.36 1.28H14.08V2.56H15.36V1.28Z" fill="#B9EAB3"/>
<path d="M16.64 1.28H15.36V2.56H16.64V1.28Z" fill="#B9EAB3"/>
<path d="M17.92 1.28H16.64V2.56H17.92V1.28Z" fill="#B9EAB3"/>
<path d="M19.2 1.28H17.92V2.56H19.2V1.28Z" fill="#B9EAB3"/>
<path d="M20.48 1.28H19.2V2.56H20.48V1.28Z" fill="#B9EAB3"/>
<path d="M24.32 1.28H23.04V2.56H24.32V1.28Z" fill="#4ABBD5"/>
<path d="M25.6 1.28H24.32V2.56H25.6V1.28Z" fill="#4ABBD5"/>
<path d="M26.88 1.28H25.6V2.56H26.88V1.28Z" fill="#4ABBD5"/>
<path d="M28.16 1.28H26.88V2.56H28.16V1.28Z" fill="#4ABBD5"/>
<path d="M29.44 1.28H28.16V2.56H29.44V1.28Z" fill="#4ABBD5"/>
<path d="M30.72 1.28H29.44V2.56H30.72V1.28Z" fill="#4ABBD5"/>
<path d="M32 1.28H30.72V2.56H32V1.28Z" fill="#4ABBD5"/>
<path d="M12.8 2.56H11.52V3.84H12.8V2.56Z" fill="#B9EAB3"/>
<path d="M14.08 2.56H12.8V3.84H14.08V2.56Z" fill="#B9EAB3"/>
<path d="M15.36 2.56H14.08V3.84H15.36V2.56Z" fill="#B9EAB3"/>
<path d="M16.64 2.56H15.36V3.84H16.64V2.56Z" fill="#B9EAB3"/>
<path d="M17.92 2.56H16.64V3.84H17.92V2.56Z" fill="#B9EAB3"/>
<path d="M19.2 2.56H17.92V3.84H19.2V2.56Z" fill="#B9EAB3"/>
<path d="M20.48 2.56H19.2V3.84H20.48V2.56Z" fill="#B9EAB3"/>
<path d="M24.32 2.56H23.04V3.84H24.32V2.56Z" fill="#4ABBD5"/>
<path d="M25.6 2.56H24.32V3.84H25.6V2.56Z" fill="#4ABBD5"/>
<path d="M26.88 2.56H25.6V3.84H26.88V2.56Z" fill="#4ABBD5"/>
<path d="M28.16 2.56H26.88V3.84H28.16V2.56Z" fill="#4ABBD5"/>
<path d="M29.44 2.56H28.16V3.84H29.44V2.56Z" fill="#4ABBD5"/>
<path d="M30.72 2.56H29.44V3.84H30.72V2.56Z" fill="#4ABBD5"/>
<path d="M32 2.56H30.72V3.84H32V2.56Z" fill="#4ABBD5"/>
<path d="M12.8 3.84H11.52V5.12H12.8V3.84Z" fill="#B9EAB3"/>
<path d="M14.08 3.84H12.8V5.12H14.08V3.84Z" fill="#B9EAB3"/>
<path d="M15.36 3.84H14.08V5.12H15.36V3.84Z" fill="#B9EAB3"/>
<path d="M16.64 3.84H15.36V5.12H16.64V3.84Z" fill="#B9EAB3"/>
<path d="M17.92 3.84H16.64V5.12H17.92V3.84Z" fill="#B9EAB3"/>
<path d="M19.2 3.84H17.92V5.12H19.2V3.84Z" fill="#B9EAB3"/>
<path d="M20.48 3.84H19.2V5.12H20.48V3.84Z" fill="#B9EAB3"/>
<path d="M24.32 3.84H23.04V5.12H24.32V3.84Z" fill="#4ABBD5"/>
<path d="M25.6 3.84H24.32V5.12H25.6V3.84Z" fill="#4ABBD5"/>
<path d="M26.88 3.84H25.6V5.12H26.88V3.84Z" fill="#4ABBD5"/>
<path d="M28.16 3.84H26.88V5.12H28.16V3.84Z" fill="#4ABBD5"/>
<path d="M29.44 3.84H28.16V5.12H29.44V3.84Z" fill="#4ABBD5"/>
<path d="M30.72 3.84H29.44V5.12H30.72V3.84Z" fill="#4ABBD5"/>
<path d="M32 3.84H30.72V5.12H32V3.84Z" fill="#4ABBD5"/>
<path d="M12.8 5.12H11.52V6.4H12.8V5.12Z" fill="#B9EAB3"/>
<path d="M14.08 5.12H12.8V6.4H14.08V5.12Z" fill="#B9EAB3"/>
<path d="M15.36 5.12H14.08V6.4H15.36V5.12Z" fill="#B9EAB3"/>
<path d="M16.64 5.12H15.36V6.4H16.64V5.12Z" fill="#B9EAB3"/>
<path d="M17.92 5.12H16.64V6.4H17.92V5.12Z" fill="#B9EAB3"/>
<path d="M19.2 5.12H17.92V6.4H19.2V5.12Z" fill="#B9EAB3"/>
<path d="M20.48 5.12H19.2V6.4H20.48V5.12Z" fill="#B9EAB3"/>
<path d="M24.32 5.12H23.04V6.4H24.32V5.12Z" fill="#4ABBD5"/>
<path d="M25.6 5.12H24.32V6.4H25.6V5.12Z" fill="#4ABBD5"/>
<path d="M26.88 5.12H25.6V6.4H26.88V5.12Z" fill="#4ABBD5"/>
<path d="M28.16 5.12H26.88V6.4H28.16V5.12Z" fill="#4ABBD5"/>
<path d="M29.44 5.12H28.16V6.4H29.44V5.12Z" fill="#4ABBD5"/>
<path d="M30.72 5.12H29.44V6.4H30.72V5.12Z" fill="#4ABBD5"/>
<path d="M32 5.12H30.72V6.4H32V5.12Z" fill="#4ABBD5"/>
<path d="M12.8 6.4H11.52V7.68H12.8V6.4Z" fill="#B9EAB3"/>
<path d="M14.08 6.4H12.8V7.68H14.08V6.4Z" fill="#B9EAB3"/>
<path d="M15.36 6.4H14.08V7.68H15.36V6.4Z" fill="#B9EAB3"/>
<path d="M16.64 6.4H15.36V7.68H16.64V6.4Z" fill="#B9EAB3"/>
<path d="M17.92 6.4H16.64V7.68H17.92V6.4Z" fill="#B9EAB3"/>
<path d="M19.2 6.4H17.92V7.68H19.2V6.4Z" fill="#B9EAB3"/>
<path d="M20.48 6.4H19.2V7.68H20.48V6.4Z" fill="#B9EAB3"/>
<path d="M24.32 6.4H23.04V7.68H24.32V6.4Z" fill="#4ABBD5"/>
<path d="M25.6 6.4H24.32V7.68H25.6V6.4Z" fill="#4ABBD5"/>
<path d="M26.88 6.4H25.6V7.68H26.88V6.4Z" fill="#4ABBD5"/>
<path d="M28.16 6.4H26.88V7.68H28.16V6.4Z" fill="#4ABBD5"/>
<path d="M29.44 6.4H28.16V7.68H29.44V6.4Z" fill="#4ABBD5"/>
<path d="M30.72 6.4H29.44V7.68H30.72V6.4Z" fill="#4ABBD5"/>
<path d="M32 6.4H30.72V7.68H32V6.4Z" fill="#4ABBD5"/>
<path d="M12.8 7.68H11.52V8.96H12.8V7.68Z" fill="#B9EAB3"/>
<path d="M14.08 7.68H12.8V8.96H14.08V7.68Z" fill="#B9EAB3"/>
<path d="M15.36 7.68H14.08V8.96H15.36V7.68Z" fill="#B9EAB3"/>
<path d="M16.64 7.68H15.36V8.96H16.64V7.68Z" fill="#B9EAB3"/>
<path d="M17.92 7.68H16.64V8.96H17.92V7.68Z" fill="#B9EAB3"/>
<path d="M19.2 7.68H17.92V8.96H19.2V7.68Z" fill="#B9EAB3"/>
<path d="M20.48 7.68H19.2V8.96H20.48V7.68Z" fill="#B9EAB3"/>
<path d="M24.32 7.68H23.04V8.96H24.32V7.68Z" fill="#4ABBD5"/>
<path d="M25.6 7.68H24.32V8.96H25.6V7.68Z" fill="#4ABBD5"/>
<path d="M26.88 7.68H25.6V8.96H26.88V7.68Z" fill="#4ABBD5"/>
<path d="M28.16 7.68H26.88V8.96H28.16V7.68Z" fill="#4ABBD5"/>
<path d="M29.44 7.68H28.16V8.96H29.44V7.68Z" fill="#4ABBD5"/>
<path d="M30.72 7.68H29.44V8.96H30.72V7.68Z" fill="#4ABBD5"/>
<path d="M32 7.68H30.72V8.96H32V7.68Z" fill="#4ABBD5"/>
<path d="M12.8 8.96H11.52V10.24H12.8V8.96Z" fill="white"/>
<path d="M14.08 8.96H12.8V10.24H14.08V8.96Z" fill="white"/>
<path d="M15.36 8.96H14.08V10.24H15.36V8.96Z" fill="white"/>
<path d="M16.64 8.96H15.36V10.24H16.64V8.96Z" fill="white"/>
<path d="M17.92 8.96H16.64V10.24H17.92V8.96Z" fill="white"/>
<path d="M19.2 8.96H17.92V10.24H19.2V8.96Z" fill="white"/>
<path d="M20.48 8.96H19.2V10.24H20.48V8.96Z" fill="white"/>
<path d="M24.32 8.96H23.04V10.24H24.32V8.96Z" fill="white"/>
<path d="M25.6 8.96H24.32V10.24H25.6V8.96Z" fill="white"/>
<path d="M26.88 8.96H25.6V10.24H26.88V8.96Z" fill="white"/>
<path d="M28.16 8.96H26.88V10.24H28.16V8.96Z" fill="white"/>
<path d="M29.44 8.96H28.16V10.24H29.44V8.96Z" fill="white"/>
<path d="M30.72 8.96H29.44V10.24H30.72V8.96Z" fill="white"/>
<path d="M32 8.96H30.72V10.24H32V8.96Z" fill="white"/>
<path d="M12.8 10.24H11.52V11.52H12.8V10.24Z" fill="white"/>
<path d="M14.08 10.24H12.8V11.52H14.08V10.24Z" fill="white"/>
<path d="M15.36 10.24H14.08V11.52H15.36V10.24Z" fill="white"/>
<path d="M16.64 10.24H15.36V11.52H16.64V10.24Z" fill="white"/>
<path d="M17.92 10.24H16.64V11.52H17.92V10.24Z" fill="white"/>
<path d="M19.2 10.24H17.92V11.52H19.2V10.24Z" fill="white"/>
<path d="M20.48 10.24H19.2V11.52H20.48V10.24Z" fill="white"/>
<path d="M24.32 10.24H23.04V11.52H24.32V10.24Z" fill="white"/>
<path d="M25.6 10.24H24.32V11.52H25.6V10.24Z" fill="white"/>
<path d="M26.88 10.24H25.6V11.52H26.88V10.24Z" fill="white"/>
<path d="M28.16 10.24H26.88V11.52H28.16V10.24Z" fill="white"/>
<path d="M29.44 10.24H28.16V11.52H29.44V10.24Z" fill="white"/>
<path d="M30.72 10.24H29.44V11.52H30.72V10.24Z" fill="white"/>
<path d="M32 10.24H30.72V11.52H32V10.24Z" fill="white"/>
<path d="M1.28 0H0V1.28H1.28V0Z" fill="#79B5DB"/>
<path d="M2.56 0H1.28V1.28H2.56V0Z" fill="#79B5DB"/>
<path d="M3.84 0H2.56V1.28H3.84V0Z" fill="#79B5DB"/>
<path d="M5.12 0H3.84V1.28H5.12V0Z" fill="#79B5DB"/>
<path d="M6.4 0H5.12V1.28H6.4V0Z" fill="#79B5DB"/>
<path d="M7.67999 0H6.39999V1.28H7.67999V0Z" fill="#79B5DB"/>
<path d="M8.95999 0H7.67999V1.28H8.95999V0Z" fill="#79B5DB"/>
<path d="M1.28 1.28H0V2.56H1.28V1.28Z" fill="#79B5DB"/>
<path d="M2.56 1.28H1.28V2.56H2.56V1.28Z" fill="#79B5DB"/>
<path d="M3.84 1.28H2.56V2.56H3.84V1.28Z" fill="#79B5DB"/>
<path d="M5.12 1.28H3.84V2.56H5.12V1.28Z" fill="#79B5DB"/>
<path d="M6.4 1.28H5.12V2.56H6.4V1.28Z" fill="#79B5DB"/>
<path d="M7.67999 1.28H6.39999V2.56H7.67999V1.28Z" fill="#79B5DB"/>
<path d="M8.95999 1.28H7.67999V2.56H8.95999V1.28Z" fill="#79B5DB"/>
<path d="M1.28 2.56H0V3.84H1.28V2.56Z" fill="#79B5DB"/>
<path d="M2.56 2.56H1.28V3.84H2.56V2.56Z" fill="#79B5DB"/>
<path d="M3.84 2.56H2.56V3.84H3.84V2.56Z" fill="#79B5DB"/>
<path d="M5.12 2.56H3.84V3.84H5.12V2.56Z" fill="#79B5DB"/>
<path d="M6.4 2.56H5.12V3.84H6.4V2.56Z" fill="#79B5DB"/>
<path d="M7.67999 2.56H6.39999V3.84H7.67999V2.56Z" fill="#79B5DB"/>
<path d="M8.95999 2.56H7.67999V3.84H8.95999V2.56Z" fill="#79B5DB"/>
<path d="M1.28 3.84H0V5.12H1.28V3.84Z" fill="#79B5DB"/>
<path d="M2.56 3.84H1.28V5.12H2.56V3.84Z" fill="#79B5DB"/>
<path d="M3.84 3.84H2.56V5.12H3.84V3.84Z" fill="#79B5DB"/>
<path d="M5.12 3.84H3.84V5.12H5.12V3.84Z" fill="#79B5DB"/>
<path d="M6.4 3.84H5.12V5.12H6.4V3.84Z" fill="#79B5DB"/>
<path d="M7.67999 3.84H6.39999V5.12H7.67999V3.84Z" fill="#79B5DB"/>
<path d="M8.95999 3.84H7.67999V5.12H8.95999V3.84Z" fill="#79B5DB"/>
<path d="M1.28 5.12H0V6.4H1.28V5.12Z" fill="#79B5DB"/>
<path d="M2.56 5.12H1.28V6.4H2.56V5.12Z" fill="#79B5DB"/>
<path d="M3.84 5.12H2.56V6.4H3.84V5.12Z" fill="#79B5DB"/>
<path d="M5.12 5.12H3.84V6.4H5.12V5.12Z" fill="#79B5DB"/>
<path d="M6.4 5.12H5.12V6.4H6.4V5.12Z" fill="#79B5DB"/>
<path d="M7.67999 5.12H6.39999V6.4H7.67999V5.12Z" fill="#79B5DB"/>
<path d="M8.95999 5.12H7.67999V6.4H8.95999V5.12Z" fill="#79B5DB"/>
<path d="M1.28 6.4H0V7.68H1.28V6.4Z" fill="#79B5DB"/>
<path d="M2.56 6.4H1.28V7.68H2.56V6.4Z" fill="#79B5DB"/>
<path d="M3.84 6.4H2.56V7.68H3.84V6.4Z" fill="#79B5DB"/>
<path d="M5.12 6.4H3.84V7.68H5.12V6.4Z" fill="#79B5DB"/>
<path d="M6.4 6.4H5.12V7.68H6.4V6.4Z" fill="#79B5DB"/>
<path d="M7.67999 6.4H6.39999V7.68H7.67999V6.4Z" fill="#79B5DB"/>
<path d="M8.95999 6.4H7.67999V7.68H8.95999V6.4Z" fill="#79B5DB"/>
<path d="M1.28 7.68H0V8.96H1.28V7.68Z" fill="#79B5DB"/>
<path d="M2.56 7.68H1.28V8.96H2.56V7.68Z" fill="#79B5DB"/>
<path d="M3.84 7.68H2.56V8.96H3.84V7.68Z" fill="#79B5DB"/>
<path d="M5.12 7.68H3.84V8.96H5.12V7.68Z" fill="#79B5DB"/>
<path d="M6.4 7.68H5.12V8.96H6.4V7.68Z" fill="#79B5DB"/>
<path d="M7.67999 7.68H6.39999V8.96H7.67999V7.68Z" fill="#79B5DB"/>
<path d="M8.95999 7.68H7.67999V8.96H8.95999V7.68Z" fill="#79B5DB"/>
<path d="M1.28 8.96H0V10.24H1.28V8.96Z" fill="white"/>
<path d="M2.56 8.96H1.28V10.24H2.56V8.96Z" fill="white"/>
<path d="M3.84 8.96H2.56V10.24H3.84V8.96Z" fill="white"/>
<path d="M5.12 8.96H3.84V10.24H5.12V8.96Z" fill="white"/>
<path d="M6.4 8.96H5.12V10.24H6.4V8.96Z" fill="white"/>
<path d="M7.67999 8.96H6.39999V10.24H7.67999V8.96Z" fill="white"/>
<path d="M8.95999 8.96H7.67999V10.24H8.95999V8.96Z" fill="white"/>
<path d="M1.28 10.24H0V11.52H1.28V10.24Z" fill="white"/>
<path d="M2.56 10.24H1.28V11.52H2.56V10.24Z" fill="white"/>
<path d="M3.84 10.24H2.56V11.52H3.84V10.24Z" fill="white"/>
<path d="M5.12 10.24H3.84V11.52H5.12V10.24Z" fill="white"/>
<path d="M6.4 10.24H5.12V11.52H6.4V10.24Z" fill="white"/>
<path d="M7.67999 10.24H6.39999V11.52H7.67999V10.24Z" fill="white"/>
<path d="M8.95999 10.24H7.67999V11.52H8.95999V10.24Z" fill="white"/>
<path d="M1.28 11.52H0V12.8H1.28V11.52Z" fill="#C1C1C1"/>
<path d="M2.56 11.52H1.28V12.8H2.56V11.52Z" fill="black"/>
<path d="M3.84 11.52H2.56V12.8H3.84V11.52Z" fill="#808080"/>
<path d="M5.12 11.52H3.84V12.8H5.12V11.52Z" fill="#393939"/>
<path d="M6.4 11.52H5.12V12.8H6.4V11.52Z" fill="white"/>
<path d="M7.67999 11.52H6.39999V12.8H7.67999V11.52Z" fill="white"/>
<path d="M8.95999 11.52H7.67999V12.8H8.95999V11.52Z" fill="white"/>
<path d="M12.8 11.52H11.52V12.8H12.8V11.52Z" fill="#B8B8B8"/>
<path d="M14.08 11.52H12.8V12.8H14.08V11.52Z" fill="#5F5F5F"/>
<path d="M15.36 11.52H14.08V12.8H15.36V11.52Z" fill="black"/>
<path d="M16.64 11.52H15.36V12.8H16.64V11.52Z" fill="white"/>
<path d="M17.92 11.52H16.64V12.8H17.92V11.52Z" fill="white"/>
<path d="M19.2 11.52H17.92V12.8H19.2V11.52Z" fill="white"/>
<path d="M20.48 11.52H19.2V12.8H20.48V11.52Z" fill="white"/>
<path d="M24.32 11.52H23.04V12.8H24.32V11.52Z" fill="black"/>
<path d="M25.6 11.52H24.32V12.8H25.6V11.52Z" fill="white"/>
<path d="M26.88 11.52H25.6V12.8H26.88V11.52Z" fill="#D7D7D7"/>
<path d="M28.16 11.52H26.88V12.8H28.16V11.52Z" fill="black"/>
<path d="M29.44 11.52H28.16V12.8H29.44V11.52Z" fill="white"/>
<path d="M30.72 11.52H29.44V12.8H30.72V11.52Z" fill="white"/>
<path d="M32 11.52H30.72V12.8H32V11.52Z" fill="white"/>
<path d="M12.8 16.64H11.52V17.92H12.8V16.64Z" fill="#29675C"/>
<path d="M14.08 16.64H12.8V17.92H14.08V16.64Z" fill="#29675C"/>
<path d="M15.36 16.64H14.08V17.92H15.36V16.64Z" fill="#29675C"/>
<path d="M16.64 16.64H15.36V17.92H16.64V16.64Z" fill="#29675C"/>
<path d="M17.92 16.64H16.64V17.92H17.92V16.64Z" fill="#29675C"/>
<path d="M19.2 16.64H17.92V17.92H19.2V16.64Z" fill="#29675C"/>
<path d="M20.48 16.64H19.2V17.92H20.48V16.64Z" fill="#29675C"/>
<path d="M12.8 17.92H11.52V19.2H12.8V17.92Z" fill="#29675C"/>
<path d="M14.08 17.92H12.8V19.2H14.08V17.92Z" fill="#29675C"/>
<path d="M15.36 17.92H14.08V19.2H15.36V17.92Z" fill="#29675C"/>
<path d="M16.64 17.92H15.36V19.2H16.64V17.92Z" fill="#29675C"/>
<path d="M17.92 17.92H16.64V19.2H17.92V17.92Z" fill="#29675C"/>
<path d="M19.2 17.92H17.92V19.2H19.2V17.92Z" fill="#29675C"/>
<path d="M20.48 17.92H19.2V19.2H20.48V17.92Z" fill="#29675C"/>
<path d="M12.8 19.2H11.52V20.48H12.8V19.2Z" fill="#29675C"/>
<path d="M14.08 19.2H12.8V20.48H14.08V19.2Z" fill="#29675C"/>
<path d="M15.36 19.2H14.08V20.48H15.36V19.2Z" fill="#29675C"/>
<path d="M16.64 19.2H15.36V20.48H16.64V19.2Z" fill="#29675C"/>
<path d="M17.92 19.2H16.64V20.48H17.92V19.2Z" fill="#29675C"/>
<path d="M19.2 19.2H17.92V20.48H19.2V19.2Z" fill="#29675C"/>
<path d="M20.48 19.2H19.2V20.48H20.48V19.2Z" fill="#29675C"/>
<path d="M12.8 20.48H11.52V21.76H12.8V20.48Z" fill="#29675C"/>
<path d="M14.08 20.48H12.8V21.76H14.08V20.48Z" fill="#29675C"/>
<path d="M15.36 20.48H14.08V21.76H15.36V20.48Z" fill="#29675C"/>
<path d="M16.64 20.48H15.36V21.76H16.64V20.48Z" fill="#29675C"/>
<path d="M17.92 20.48H16.64V21.76H17.92V20.48Z" fill="#29675C"/>
<path d="M19.2 20.48H17.92V21.76H19.2V20.48Z" fill="#29675C"/>
<path d="M20.48 20.48H19.2V21.76H20.48V20.48Z" fill="#29675C"/>
<path d="M12.8 21.76H11.52V23.04H12.8V21.76Z" fill="#29675C"/>
<path d="M14.08 21.76H12.8V23.04H14.08V21.76Z" fill="#29675C"/>
<path d="M15.36 21.76H14.08V23.04H15.36V21.76Z" fill="#29675C"/>
<path d="M16.64 21.76H15.36V23.04H16.64V21.76Z" fill="#29675C"/>
<path d="M17.92 21.76H16.64V23.04H17.92V21.76Z" fill="#29675C"/>
<path d="M19.2 21.76H17.92V23.04H19.2V21.76Z" fill="#29675C"/>
<path d="M20.48 21.76H19.2V23.04H20.48V21.76Z" fill="#29675C"/>
<path d="M12.8 23.04H11.52V24.32H12.8V23.04Z" fill="#29675C"/>
<path d="M14.08 23.04H12.8V24.32H14.08V23.04Z" fill="#29675C"/>
<path d="M15.36 23.04H14.08V24.32H15.36V23.04Z" fill="#29675C"/>
<path d="M16.64 23.04H15.36V24.32H16.64V23.04Z" fill="#29675C"/>
<path d="M17.92 23.04H16.64V24.32H17.92V23.04Z" fill="#29675C"/>
<path d="M19.2 23.04H17.92V24.32H19.2V23.04Z" fill="#29675C"/>
<path d="M20.48 23.04H19.2V24.32H20.48V23.04Z" fill="#29675C"/>
<path d="M12.8 24.32H11.52V25.6H12.8V24.32Z" fill="#29675C"/>
<path d="M14.08 24.32H12.8V25.6H14.08V24.32Z" fill="#29675C"/>
<path d="M15.36 24.32H14.08V25.6H15.36V24.32Z" fill="#29675C"/>
<path d="M16.64 24.32H15.36V25.6H16.64V24.32Z" fill="#29675C"/>
<path d="M17.92 24.32H16.64V25.6H17.92V24.32Z" fill="#29675C"/>
<path d="M19.2 24.32H17.92V25.6H19.2V24.32Z" fill="#29675C"/>
<path d="M20.48 24.32H19.2V25.6H20.48V24.32Z" fill="#29675C"/>
<path d="M12.8 25.6H11.52V26.88H12.8V25.6Z" fill="black"/>
<path d="M14.08 25.6H12.8V26.88H14.08V25.6Z" fill="white"/>
<path d="M15.36 25.6H14.08V26.88H15.36V25.6Z" fill="#6E6E6E"/>
<path d="M16.64 25.6H15.36V26.88H16.64V25.6Z" fill="white"/>
<path d="M17.92 25.6H16.64V26.88H17.92V25.6Z" fill="white"/>
<path d="M19.2 25.6H17.92V26.88H19.2V25.6Z" fill="#C6C6C6"/>
<path d="M20.48 25.6H19.2V26.88H20.48V25.6Z" fill="white"/>
<path d="M12.8 26.88H11.52V28.16H12.8V26.88Z" fill="#030303"/>
<path d="M14.08 26.88H12.8V28.16H14.08V26.88Z" fill="black"/>
<path d="M15.36 26.88H14.08V28.16H15.36V26.88Z" fill="black"/>
<path d="M16.64 26.88H15.36V28.16H16.64V26.88Z" fill="white"/>
<path d="M17.92 26.88H16.64V28.16H17.92V26.88Z" fill="white"/>
<path d="M19.2 26.88H17.92V28.16H19.2V26.88Z" fill="white"/>
<path d="M20.48 26.88H19.2V28.16H20.48V26.88Z" fill="white"/>
<path d="M12.8 28.16H11.52V29.44H12.8V28.16Z" fill="white"/>
<path d="M14.08 28.16H12.8V29.44H14.08V28.16Z" fill="white"/>
<path d="M15.36 28.16H14.08V29.44H15.36V28.16Z" fill="white"/>
<path d="M16.64 28.16H15.36V29.44H16.64V28.16Z" fill="white"/>
<path d="M17.92 28.16H16.64V29.44H17.92V28.16Z" fill="white"/>
<path d="M19.2 28.16H17.92V29.44H19.2V28.16Z" fill="white"/>
<path d="M20.48 28.16H19.2V29.44H20.48V28.16Z" fill="white"/>
</svg>
