<?xml version="1.0" encoding="UTF-8" standalone="no"?>
<svg
   width="90.184723"
   height="88.277977"
   viewBox="0 0 90.184723 88.277977"
   fill="none"
   version="1.1"
   id="svg2"
   xmlns="http://www.w3.org/2000/svg"
   xmlns:svg="http://www.w3.org/2000/svg">
  <defs
     id="defs2" />
  <g
     id="g9"
     transform="translate(0.05796736,-0.02786724)">
    <path
       fill-rule="evenodd"
       clip-rule="evenodd"
       d="M 26.48,62.94 C 20.130349,63.787596 12.938943,67.031185 7.0026398,63.082991 2.4624731,60.331551 0.44591928,55.004741 0.23633059,49.908195 -2.0143242,31.245465 8.8429356,11.920563 25.988437,4.1803857 42.474109,-3.626477 63.537507,-0.23007305 76.474901,12.723807 89.19577,24.945377 93.716159,44.892333 87.090643,61.307216 81.97926,74.30933 70.585904,85.311745 56.741144,88.254968 49.416978,88.943001 42.460103,82.552011 42.378506,75.217326 41.800123,68.563999 36.130554,62.673005 29.32275,62.684448 28.369636,62.665566 27.414403,62.750937 26.48,62.94 Z M 20.2,32.87 c 7.252795,-0.43493 12.43934,8.954243 8.213551,14.8779 C 24.839346,54.013075 14.277623,53.509214 11.452792,46.7901 8.2940895,40.757571 13.308438,32.526337 20.2,32.87 Z m 38.05,31.99 c 5.967768,-0.385427 9.607877,7.879155 5.39544,12.082558 C 59.685855,81.751982 50.788316,78.545292 51.006081,72.252691 50.910098,68.382244 54.297828,64.693708 58.25,64.86 Z m 9.74,-20.95 c 5.966116,-0.380479 9.609101,7.885287 5.394567,12.087963 C 69.422598,60.797126 60.524035,57.601346 60.73645,51.30965 60.642891,47.43593 64.036174,43.747542 67.99,43.91 Z M 61,22.61 c 5.962736,-0.382135 9.611344,7.87855 5.391825,12.077771 C 62.430046,39.486329 53.534489,36.29057 53.74613,30.000116 53.652147,26.127318 57.048922,22.445098 61,22.61 Z M 39.1,15.36 c 6.803514,-0.409373 11.40408,8.615257 7.099875,13.91375 -3.64578,5.411252 -13.100283,4.366012 -15.251433,-1.905279 C 28.627854,21.968736 33.125058,15.050528 39.1,15.36 Z"
       fill="#d9d9d9"
       id="path1" />
    <path
       d="m 58.286435,64.699585 c 4.07112,0 7.366783,3.295663 7.366783,7.36677 0,4.07112 -3.295663,7.376978 -7.366783,7.376978 -4.071107,0 -7.36677,-3.305858 -7.36677,-7.376978 0,-4.071107 3.295663,-7.36677 7.36677,-7.36677 z"
       id="path6"
       style="fill:#ff8080;stroke-width:1.02028" />
    <path
       d="m 67.991104,43.673706 c 4.071107,0 7.36677,3.305871 7.36677,7.376978 0,4.071107 -3.295663,7.36677 -7.36677,7.36677 -4.071107,0 -7.376978,-3.295663 -7.376978,-7.36677 0,-4.071107 3.305871,-7.376978 7.376978,-7.376978 z"
       id="path7"
       style="fill:#ff8080;stroke-width:1.02028" />
    <path
       d="m 60.958501,22.407381 c 4.060899,0 7.36677,3.295663 7.36677,7.36677 0,4.071107 -3.305871,7.36677 -7.36677,7.36677 -4.071107,0 -7.376978,-3.295663 -7.376978,-7.36677 0,-4.071107 3.305871,-7.36677 7.376978,-7.36677 z"
       id="path8"
       style="fill:#ff8080;stroke-width:1.02028" />
    <path
       d="m 39.09715,15.243333 c 4.928189,0 8.917671,3.989482 8.917671,8.917671 0,4.928189 -3.989482,8.927866 -8.917671,8.927866 -4.928189,0 -8.917671,-3.999677 -8.917671,-8.927866 0,-4.928189 3.989482,-8.917671 8.917671,-8.917671 z"
       id="path9"
       style="fill:#ff8080;stroke-width:1.02028" />
    <path
       d="m 20.162948,32.64262 c 5.458758,0 9.886976,4.428218 9.886976,9.886976 0,5.458758 -4.428218,9.876781 -9.886976,9.876781 -5.458758,0 -9.876781,-4.418023 -9.876781,-9.876781 0,-5.458758 4.418023,-9.886976 9.876781,-9.886976 z"
       id="path2"
       style="fill:#ff8080;stroke-width:0;stroke-dasharray:none" />
  </g>
</svg>
