<svg width="32" height="24" viewBox="0 0 32 24" fill="none" xmlns="http://www.w3.org/2000/svg">
<path d="M4 0H0V4H4V0Z" fill="#72723E"/>
<path d="M8 0H4V4H8V0Z" fill="#72723E"/>
<path d="M4 4H0V8H4V4Z" fill="#72723E"/>
<path d="M8 4H4V8H8V4Z" fill="#72723E"/>
<path d="M16 0H12V4H16V0Z" fill="#D36B5E"/>
<path d="M20 0H16V4H20V0Z" fill="#D36B5E"/>
<path d="M16 4H12V8H16V4Z" fill="#D36B5E"/>
<path d="M20 4H16V8H20V4Z" fill="#D36B5E"/>
<path d="M20 8H12V12H20V8Z" fill="#F1F1F3"/>
<path d="M20 20H12V24H20V20Z" fill="#F1F1F3"/>
<path d="M8 8H0V12H8V8Z" fill="#F1F1F3"/>
<path d="M28 0H24V4H28V0Z" fill="#503B1E"/>
<path d="M32 0H28V4H32V0Z" fill="#503B1E"/>
<path d="M28 4H24V8H28V4Z" fill="#503B1E"/>
<path d="M32 4H28V8H32V4Z" fill="#503B1E"/>
<path d="M32 8H24V12H32V8Z" fill="#F1F1F3"/>
<path d="M16 12H12V16H16V12Z" fill="#BC6844"/>
<path d="M20 12H16V16H20V12Z" fill="#BC6844"/>
<path d="M8 20H0V24H8V20Z" fill="#F1F1F3"/>
<path d="M4 12H0V16H4V12Z" fill="#BE972E"/>
<path d="M8 12H4V16H8V12Z" fill="#BE972E"/>
<path d="M4 16H0V20H4V16Z" fill="#BD962D"/>
<path d="M8 16H4V20H8V16Z" fill="#BD962D"/>
<path d="M16 16H12V20H16V16Z" fill="#BC6844"/>
<path d="M20 16H16V20H20V16Z" fill="#BC6844"/>
<path d="M28 12H24V16H28V12Z" fill="#027298"/>
<path d="M32 12H28V16H32V12Z" fill="#027298"/>
<path d="M32 20H24V24H32V20Z" fill="#F1F1F3"/>
<path d="M28 16H24V20H28V16Z" fill="#027298"/>
<path d="M32 16H28V20H32V16Z" fill="#027298"/>
</svg>
