<svg width="24" height="18" viewBox="0 0 24 18" fill="none" xmlns="http://www.w3.org/2000/svg">
<path d="M3 0H0V3H3V0Z" fill="#72723E"/>
<path d="M6 0H3V3H6V0Z" fill="#72723E"/>
<path d="M3 3H0V6H3V3Z" fill="#72723E"/>
<path d="M6 3H3V6H6V3Z" fill="#72723E"/>
<path d="M12 0H9V3H12V0Z" fill="#D36B5E"/>
<path d="M15 0H12V3H15V0Z" fill="#D36B5E"/>
<path d="M12 3H9V6H12V3Z" fill="#D36B5E"/>
<path d="M15 3H12V6H15V3Z" fill="#D36B5E"/>
<path d="M15 6H9V9H15V6Z" fill="#F1F1F3"/>
<path d="M15 15H9V18H15V15Z" fill="#F1F1F3"/>
<path d="M6 6H0V9H6V6Z" fill="#F1F1F3"/>
<path d="M21 0H18V3H21V0Z" fill="#503B1E"/>
<path d="M24 0H21V3H24V0Z" fill="#503B1E"/>
<path d="M21 3H18V6H21V3Z" fill="#503B1E"/>
<path d="M24 3H21V6H24V3Z" fill="#503B1E"/>
<path d="M24 6H18V9H24V6Z" fill="#F1F1F3"/>
<path d="M12 9H9V12H12V9Z" fill="#BC6844"/>
<path d="M15 9H12V12H15V9Z" fill="#BC6844"/>
<path d="M6 15H0V18H6V15Z" fill="#F1F1F3"/>
<path d="M3 9H0V12H3V9Z" fill="#BE972E"/>
<path d="M6 9H3V12H6V9Z" fill="#BE972E"/>
<path d="M3 12H0V15H3V12Z" fill="#BD962D"/>
<path d="M6 12H3V15H6V12Z" fill="#BD962D"/>
<path d="M12 12H9V15H12V12Z" fill="#BC6844"/>
<path d="M15 12H12V15H15V12Z" fill="#BC6844"/>
<path d="M21 9H18V12H21V9Z" fill="#027298"/>
<path d="M24 9H21V12H24V9Z" fill="#027298"/>
<path d="M24 15H18V18H24V15Z" fill="#F1F1F3"/>
<path d="M21 12H18V15H21V12Z" fill="#027298"/>
<path d="M24 12H21V15H24V12Z" fill="#027298"/>
</svg>
