<svg width="24" height="23" viewBox="0 0 24 23" fill="none" xmlns="http://www.w3.org/2000/svg">
<path d="M1.71429 0H0V1.71429H1.71429V0Z" fill="#727240"/>
<path d="M3.42864 0H1.71436V1.71429H3.42864V0Z" fill="#72723E"/>
<path d="M5.143 0H3.42871V1.71429H5.143V0Z" fill="#72723E"/>
<path d="M6.85686 0H5.14258V1.71429H6.85686V0Z" fill="#72723E"/>
<path d="M10.2856 0H8.57129V1.71429H10.2856V0Z" fill="#D36B5E"/>
<path d="M11.9999 0H10.2856V1.71429H11.9999V0Z" fill="#D36B5E"/>
<path d="M13.7143 0H12V1.71429H13.7143V0Z" fill="#D36B5E"/>
<path d="M15.4286 0H13.7144V1.71429H15.4286V0Z" fill="#D36B5E"/>
<path d="M18.8569 0H17.1426V1.71429H18.8569V0Z" fill="#503B1E"/>
<path d="M20.5717 0H18.8574V1.71429H20.5717V0Z" fill="#503B1E"/>
<path d="M22.2856 0H20.5713V1.71429H22.2856V0Z" fill="#503B1E"/>
<path d="M23.9999 0H22.2856V1.71429H23.9999V0Z" fill="#503B1E"/>
<path d="M1.71429 1.71484H0V3.42913H1.71429V1.71484Z" fill="#727240"/>
<path d="M3.42864 1.71484H1.71436V3.42913H3.42864V1.71484Z" fill="#72723E"/>
<path d="M5.143 1.71484H3.42871V3.42913H5.143V1.71484Z" fill="#72723E"/>
<path d="M6.85686 1.71484H5.14258V3.42913H6.85686V1.71484Z" fill="#72723E"/>
<path d="M10.2856 1.71484H8.57129V3.42913H10.2856V1.71484Z" fill="#D36B5E"/>
<path d="M11.9999 1.71484H10.2856V3.42913H11.9999V1.71484Z" fill="#D36B5E"/>
<path d="M13.7143 1.71484H12V3.42913H13.7143V1.71484Z" fill="#D36B5E"/>
<path d="M15.4286 1.71484H13.7144V3.42913H15.4286V1.71484Z" fill="#D36B5E"/>
<path d="M18.8569 1.71484H17.1426V3.42913H18.8569V1.71484Z" fill="#503B1E"/>
<path d="M20.5717 1.71484H18.8574V3.42913H20.5717V1.71484Z" fill="#503B1E"/>
<path d="M22.2856 1.71484H20.5713V3.42913H22.2856V1.71484Z" fill="#503B1E"/>
<path d="M23.9999 1.71484H22.2856V3.42913H23.9999V1.71484Z" fill="#503B1E"/>
<path d="M1.71429 3.42871H0V5.143H1.71429V3.42871Z" fill="#727240"/>
<path d="M3.42864 3.42871H1.71436V5.143H3.42864V3.42871Z" fill="#72723E"/>
<path d="M5.143 3.42871H3.42871V5.143H5.143V3.42871Z" fill="#72723E"/>
<path d="M6.85686 3.42871H5.14258V5.143H6.85686V3.42871Z" fill="#72723E"/>
<path d="M10.2856 3.42871H8.57129V5.143H10.2856V3.42871Z" fill="#D36B5E"/>
<path d="M11.9999 3.42871H10.2856V5.143H11.9999V3.42871Z" fill="#D36B5E"/>
<path d="M13.7143 3.42871H12V5.143H13.7143V3.42871Z" fill="#D36B5E"/>
<path d="M15.4286 3.42871H13.7144V5.143H15.4286V3.42871Z" fill="#D36B5E"/>
<path d="M18.8569 3.42871H17.1426V5.143H18.8569V3.42871Z" fill="#503B1E"/>
<path d="M20.5717 3.42871H18.8574V5.143H20.5717V3.42871Z" fill="#503B1E"/>
<path d="M22.2856 3.42871H20.5713V5.143H22.2856V3.42871Z" fill="#503B1E"/>
<path d="M23.9999 3.42871H22.2856V5.143H23.9999V3.42871Z" fill="#503B1E"/>
<path d="M1.71429 5.14258H0V6.85686H1.71429V5.14258Z" fill="#727240"/>
<path d="M3.42864 5.14258H1.71436V6.85686H3.42864V5.14258Z" fill="#72723E"/>
<path d="M5.143 5.14258H3.42871V6.85686H5.143V5.14258Z" fill="#72723E"/>
<path d="M6.85686 5.14258H5.14258V6.85686H6.85686V5.14258Z" fill="#72723E"/>
<path d="M10.2856 5.14258H8.57129V6.85686H10.2856V5.14258Z" fill="#D36B5E"/>
<path d="M11.9999 5.14258H10.2856V6.85686H11.9999V5.14258Z" fill="#D36B5E"/>
<path d="M13.7143 5.14258H12V6.85686H13.7143V5.14258Z" fill="#D36B5E"/>
<path d="M15.4286 5.14258H13.7144V6.85686H15.4286V5.14258Z" fill="#D36B5E"/>
<path d="M18.8569 5.14258H17.1426V6.85686H18.8569V5.14258Z" fill="#503B1E"/>
<path d="M20.5717 5.14258H18.8574V6.85686H20.5717V5.14258Z" fill="#503B1E"/>
<path d="M22.2856 5.14258H20.5713V6.85686H22.2856V5.14258Z" fill="#503B1E"/>
<path d="M23.9999 5.14258H22.2856V6.85686H23.9999V5.14258Z" fill="#503B1E"/>
<path opacity="0.58" d="M1.71429 6.85742H0V8.57171H1.71429V6.85742Z" fill="#C4C3C7"/>
<path opacity="0.58" d="M3.42864 6.85742H1.71436V8.57171H3.42864V6.85742Z" fill="#161618"/>
<path opacity="0.58" d="M5.143 6.85742H3.42871V8.57171H5.143V6.85742Z" fill="#BDBCBF"/>
<path opacity="0.58" d="M6.85686 6.85742H5.14258V8.57171H6.85686V6.85742Z" fill="#F3F4F6"/>
<path opacity="0.58" d="M10.2856 6.85742H8.57129V8.57171H10.2856V6.85742Z" fill="#1A1A1C"/>
<path opacity="0.58" d="M11.9999 6.85742H10.2856V8.57171H11.9999V6.85742Z" fill="#ADABAD"/>
<path opacity="0.58" d="M13.7143 6.85742H12V8.57171H13.7143V6.85742Z" fill="#0B0B0D"/>
<path opacity="0.58" d="M15.4286 6.85742H13.7144V8.57171H15.4286V6.85742Z" fill="#F2F4F5"/>
<path opacity="0.58" d="M18.8569 6.85742H17.1426V8.57171H18.8569V6.85742Z" fill="#323234"/>
<path opacity="0.58" d="M20.5717 6.85742H18.8574V8.57171H20.5717V6.85742Z" fill="#BDBABD"/>
<path opacity="0.58" d="M22.2856 6.85742H20.5713V8.57171H22.2856V6.85742Z" fill="#1A191B"/>
<path opacity="0.58" d="M23.9999 6.85742H22.2856V8.57171H23.9999V6.85742Z" fill="#F3F4F6"/>
<path opacity="0.58" d="M1.71429 8.57129H0V10.2856H1.71429V8.57129Z" fill="#EDECF0"/>
<path opacity="0.58" d="M3.42864 8.57129H1.71436V10.2856H3.42864V8.57129Z" fill="#737373"/>
<path opacity="0.58" d="M5.143 8.57129H3.42871V10.2856H5.143V8.57129Z" fill="#F3F3F5"/>
<path opacity="0.58" d="M6.85686 8.57129H5.14258V10.2856H6.85686V8.57129Z" fill="#F3F4F6"/>
<path opacity="0.58" d="M10.2856 8.57129H8.57129V10.2856H10.2856V8.57129Z" fill="#272528"/>
<path opacity="0.58" d="M11.9999 8.57129H10.2856V10.2856H11.9999V8.57129Z" fill="#C8C8CA"/>
<path opacity="0.58" d="M13.7143 8.57129H12V10.2856H13.7143V8.57129Z" fill="#7B7A7C"/>
<path opacity="0.58" d="M15.4286 8.57129H13.7144V10.2856H15.4286V8.57129Z" fill="#F3F4F6"/>
<path opacity="0.58" d="M18.8569 8.57129H17.1426V10.2856H18.8569V8.57129Z" fill="#E6E8E9"/>
<path opacity="0.58" d="M20.5717 8.57129H18.8574V10.2856H20.5717V8.57129Z" fill="#525153"/>
<path opacity="0.58" d="M22.2856 8.57129H20.5713V10.2856H22.2856V8.57129Z" fill="#F3F4F6"/>
<path opacity="0.58" d="M23.9999 8.57129H22.2856V10.2856H23.9999V8.57129Z" fill="#F3F4F6"/>
<path d="M1.71429 12H0V13.7143H1.71429V12Z" fill="#C09630"/>
<path d="M3.42864 12H1.71436V13.7143H3.42864V12Z" fill="#BE972E"/>
<path d="M5.143 12H3.42871V13.7143H5.143V12Z" fill="#BE972E"/>
<path d="M6.85686 12H5.14258V13.7143H6.85686V12Z" fill="#BE972E"/>
<path d="M10.2856 12H8.57129V13.7143H10.2856V12Z" fill="#BC6844"/>
<path d="M11.9999 12H10.2856V13.7143H11.9999V12Z" fill="#BC6844"/>
<path d="M13.7143 12H12V13.7143H13.7143V12Z" fill="#BC6844"/>
<path d="M15.4286 12H13.7144V13.7143H15.4286V12Z" fill="#BC6844"/>
<path d="M18.8569 12H17.1426V13.7143H18.8569V12Z" fill="#027298"/>
<path d="M20.5717 12H18.8574V13.7143H20.5717V12Z" fill="#027298"/>
<path d="M22.2856 12H20.5713V13.7143H22.2856V12Z" fill="#027298"/>
<path d="M23.9999 12H22.2856V13.7143H23.9999V12Z" fill="#027298"/>
<path d="M1.71429 13.7148H0V15.4291H1.71429V13.7148Z" fill="#C09630"/>
<path d="M3.42864 13.7148H1.71436V15.4291H3.42864V13.7148Z" fill="#BE972E"/>
<path d="M5.143 13.7148H3.42871V15.4291H5.143V13.7148Z" fill="#BE972E"/>
<path d="M6.85686 13.7148H5.14258V15.4291H6.85686V13.7148Z" fill="#BE972E"/>
<path d="M10.2856 13.7148H8.57129V15.4291H10.2856V13.7148Z" fill="#BC6844"/>
<path d="M11.9999 13.7148H10.2856V15.4291H11.9999V13.7148Z" fill="#BC6844"/>
<path d="M13.7143 13.7148H12V15.4291H13.7143V13.7148Z" fill="#BC6844"/>
<path d="M15.4286 13.7148H13.7144V15.4291H15.4286V13.7148Z" fill="#BC6844"/>
<path d="M18.8569 13.7148H17.1426V15.4291H18.8569V13.7148Z" fill="#027298"/>
<path d="M20.5717 13.7148H18.8574V15.4291H20.5717V13.7148Z" fill="#027298"/>
<path d="M22.2856 13.7148H20.5713V15.4291H22.2856V13.7148Z" fill="#027298"/>
<path d="M23.9999 13.7148H22.2856V15.4291H23.9999V13.7148Z" fill="#027298"/>
<path d="M1.71429 15.4287H0V17.143H1.71429V15.4287Z" fill="#BF952F"/>
<path d="M3.42864 15.4287H1.71436V17.143H3.42864V15.4287Z" fill="#BD962D"/>
<path d="M5.143 15.4287H3.42871V17.143H5.143V15.4287Z" fill="#BD962D"/>
<path d="M6.85686 15.4287H5.14258V17.143H6.85686V15.4287Z" fill="#BD962D"/>
<path d="M10.2856 15.4287H8.57129V17.143H10.2856V15.4287Z" fill="#BC6844"/>
<path d="M11.9999 15.4287H10.2856V17.143H11.9999V15.4287Z" fill="#BC6844"/>
<path d="M13.7143 15.4287H12V17.143H13.7143V15.4287Z" fill="#BC6844"/>
<path d="M15.4286 15.4287H13.7144V17.143H15.4286V15.4287Z" fill="#BC6844"/>
<path d="M18.8569 15.4287H17.1426V17.143H18.8569V15.4287Z" fill="#027298"/>
<path d="M20.5717 15.4287H18.8574V17.143H20.5717V15.4287Z" fill="#027298"/>
<path d="M22.2856 15.4287H20.5713V17.143H22.2856V15.4287Z" fill="#027298"/>
<path d="M23.9999 15.4287H22.2856V17.143H23.9999V15.4287Z" fill="#027298"/>
<path d="M1.71429 17.1426H0V18.8569H1.71429V17.1426Z" fill="#C09630"/>
<path d="M3.42864 17.1426H1.71436V18.8569H3.42864V17.1426Z" fill="#BE972E"/>
<path d="M5.143 17.1426H3.42871V18.8569H5.143V17.1426Z" fill="#BE972E"/>
<path d="M6.85686 17.1426H5.14258V18.8569H6.85686V17.1426Z" fill="#BE972E"/>
<path d="M10.2856 17.1426H8.57129V18.8569H10.2856V17.1426Z" fill="#BC6844"/>
<path d="M11.9999 17.1426H10.2856V18.8569H11.9999V17.1426Z" fill="#BC6844"/>
<path d="M13.7143 17.1426H12V18.8569H13.7143V17.1426Z" fill="#BC6844"/>
<path d="M15.4286 17.1426H13.7144V18.8569H15.4286V17.1426Z" fill="#BC6844"/>
<path d="M18.8569 17.1426H17.1426V18.8569H18.8569V17.1426Z" fill="#027298"/>
<path d="M20.5717 17.1426H18.8574V18.8569H20.5717V17.1426Z" fill="#027298"/>
<path d="M22.2856 17.1426H20.5713V18.8569H22.2856V17.1426Z" fill="#027298"/>
<path d="M23.9999 17.1426H22.2856V18.8569H23.9999V17.1426Z" fill="#027298"/>
<path opacity="0.58" d="M1.71429 18.8574H0V20.5717H1.71429V18.8574Z" fill="#C8C8CA"/>
<path opacity="0.58" d="M3.42864 18.8574H1.71436V20.5717H3.42864V18.8574Z" fill="#141316"/>
<path opacity="0.58" d="M5.143 18.8574H3.42871V20.5717H5.143V18.8574Z" fill="#C8C8CA"/>
<path opacity="0.58" d="M6.85686 18.8574H5.14258V20.5717H6.85686V18.8574Z" fill="#F3F4F6"/>
<path opacity="0.58" d="M10.2856 18.8574H8.57129V20.5717H10.2856V18.8574Z" fill="#16151C"/>
<path opacity="0.58" d="M11.9999 18.8574H10.2856V20.5717H11.9999V18.8574Z" fill="#101014"/>
<path opacity="0.58" d="M13.7143 18.8574H12V20.5717H13.7143V18.8574Z" fill="#06050A"/>
<path opacity="0.58" d="M15.4286 18.8574H13.7144V20.5717H15.4286V18.8574Z" fill="#F3F5F6"/>
<path opacity="0.58" d="M18.8569 18.8574H17.1426V20.5717H18.8569V18.8574Z" fill="#7B7A7C"/>
<path opacity="0.58" d="M20.5717 18.8574H18.8574V20.5717H20.5717V18.8574Z" fill="#FAF9FC"/>
<path opacity="0.58" d="M22.2856 18.8574H20.5713V20.5717H22.2856V18.8574Z" fill="#111113"/>
<path opacity="0.58" d="M23.9999 18.8574H22.2856V20.5717H23.9999V18.8574Z" fill="#F3F4F8"/>
<path opacity="0.58" d="M1.71429 20.5713H0V22.2856H1.71429V20.5713Z" fill="#DCDBDF"/>
<path opacity="0.58" d="M3.42864 20.5713H1.71436V22.2856H3.42864V20.5713Z" fill="#29292B"/>
<path opacity="0.58" d="M5.143 20.5713H3.42871V22.2856H5.143V20.5713Z" fill="#6D6B6D"/>
<path opacity="0.58" d="M6.85686 20.5713H5.14258V22.2856H6.85686V20.5713Z" fill="#F2F4F6"/>
<path opacity="0.58" d="M10.2856 20.5713H8.57129V22.2856H10.2856V20.5713Z" fill="#272729"/>
<path opacity="0.58" d="M11.9999 20.5713H10.2856V22.2856H11.9999V20.5713Z" fill="#F3F3F5"/>
<path opacity="0.58" d="M13.7143 20.5713H12V22.2856H13.7143V20.5713Z" fill="#F3F5F6"/>
<path opacity="0.58" d="M15.4286 20.5713H13.7144V22.2856H15.4286V20.5713Z" fill="#F3F4F6"/>
<path opacity="0.58" d="M18.8569 20.5713H17.1426V22.2856H18.8569V20.5713Z" fill="#F2F2F4"/>
<path opacity="0.58" d="M20.5717 20.5713H18.8574V22.2856H20.5717V20.5713Z" fill="#E6E8E9"/>
<path opacity="0.58" d="M22.2856 20.5713H20.5713V22.2856H22.2856V20.5713Z" fill="#F3F4F6"/>
<path opacity="0.58" d="M23.9999 20.5713H22.2856V22.2856H23.9999V20.5713Z" fill="#F3F4F6"/>
</svg>
