<svg width="32" height="30" viewBox="0 0 32 30" fill="none" xmlns="http://www.w3.org/2000/svg">
<path d="M2.28571 0H0V2.28571H2.28571V0Z" fill="#727240"/>
<path d="M4.57136 0H2.28564V2.28571H4.57136V0Z" fill="#72723E"/>
<path d="M6.857 0H4.57129V2.28571H6.857V0Z" fill="#72723E"/>
<path d="M9.14265 0H6.85693V2.28571H9.14265V0Z" fill="#72723E"/>
<path d="M13.7144 0H11.4287V2.28571H13.7144V0Z" fill="#D36B5E"/>
<path d="M16.0001 0H13.7144V2.28571H16.0001V0Z" fill="#D36B5E"/>
<path d="M18.2857 0H16V2.28571H18.2857V0Z" fill="#D36B5E"/>
<path d="M20.5714 0H18.2856V2.28571H20.5714V0Z" fill="#D36B5E"/>
<path d="M25.1426 0H22.8569V2.28571H25.1426V0Z" fill="#503B1E"/>
<path d="M27.4288 0H25.1431V2.28571H27.4288V0Z" fill="#503B1E"/>
<path d="M29.7144 0H27.4287V2.28571H29.7144V0Z" fill="#503B1E"/>
<path d="M32.0001 0H29.7144V2.28571H32.0001V0Z" fill="#503B1E"/>
<path d="M2.28571 2.28613H0V4.57185H2.28571V2.28613Z" fill="#727240"/>
<path d="M4.57136 2.28613H2.28564V4.57185H4.57136V2.28613Z" fill="#72723E"/>
<path d="M6.857 2.28613H4.57129V4.57185H6.857V2.28613Z" fill="#72723E"/>
<path d="M9.14265 2.28613H6.85693V4.57185H9.14265V2.28613Z" fill="#72723E"/>
<path d="M13.7144 2.28613H11.4287V4.57185H13.7144V2.28613Z" fill="#D36B5E"/>
<path d="M16.0001 2.28613H13.7144V4.57185H16.0001V2.28613Z" fill="#D36B5E"/>
<path d="M18.2857 2.28613H16V4.57185H18.2857V2.28613Z" fill="#D36B5E"/>
<path d="M20.5714 2.28613H18.2856V4.57185H20.5714V2.28613Z" fill="#D36B5E"/>
<path d="M25.1426 2.28613H22.8569V4.57185H25.1426V2.28613Z" fill="#503B1E"/>
<path d="M27.4288 2.28613H25.1431V4.57185H27.4288V2.28613Z" fill="#503B1E"/>
<path d="M29.7144 2.28613H27.4287V4.57185H29.7144V2.28613Z" fill="#503B1E"/>
<path d="M32.0001 2.28613H29.7144V4.57185H32.0001V2.28613Z" fill="#503B1E"/>
<path d="M2.28571 4.57129H0V6.857H2.28571V4.57129Z" fill="#727240"/>
<path d="M4.57136 4.57129H2.28564V6.857H4.57136V4.57129Z" fill="#72723E"/>
<path d="M6.857 4.57129H4.57129V6.857H6.857V4.57129Z" fill="#72723E"/>
<path d="M9.14265 4.57129H6.85693V6.857H9.14265V4.57129Z" fill="#72723E"/>
<path d="M13.7144 4.57129H11.4287V6.857H13.7144V4.57129Z" fill="#D36B5E"/>
<path d="M16.0001 4.57129H13.7144V6.857H16.0001V4.57129Z" fill="#D36B5E"/>
<path d="M18.2857 4.57129H16V6.857H18.2857V4.57129Z" fill="#D36B5E"/>
<path d="M20.5714 4.57129H18.2856V6.857H20.5714V4.57129Z" fill="#D36B5E"/>
<path d="M25.1426 4.57129H22.8569V6.857H25.1426V4.57129Z" fill="#503B1E"/>
<path d="M27.4288 4.57129H25.1431V6.857H27.4288V4.57129Z" fill="#503B1E"/>
<path d="M29.7144 4.57129H27.4287V6.857H29.7144V4.57129Z" fill="#503B1E"/>
<path d="M32.0001 4.57129H29.7144V6.857H32.0001V4.57129Z" fill="#503B1E"/>
<path d="M2.28571 6.85742H0V9.14314H2.28571V6.85742Z" fill="#727240"/>
<path d="M4.57136 6.85742H2.28564V9.14314H4.57136V6.85742Z" fill="#72723E"/>
<path d="M6.857 6.85742H4.57129V9.14314H6.857V6.85742Z" fill="#72723E"/>
<path d="M9.14265 6.85742H6.85693V9.14314H9.14265V6.85742Z" fill="#72723E"/>
<path d="M13.7144 6.85742H11.4287V9.14314H13.7144V6.85742Z" fill="#D36B5E"/>
<path d="M16.0001 6.85742H13.7144V9.14314H16.0001V6.85742Z" fill="#D36B5E"/>
<path d="M18.2857 6.85742H16V9.14314H18.2857V6.85742Z" fill="#D36B5E"/>
<path d="M20.5714 6.85742H18.2856V9.14314H20.5714V6.85742Z" fill="#D36B5E"/>
<path d="M25.1426 6.85742H22.8569V9.14314H25.1426V6.85742Z" fill="#503B1E"/>
<path d="M27.4288 6.85742H25.1431V9.14314H27.4288V6.85742Z" fill="#503B1E"/>
<path d="M29.7144 6.85742H27.4287V9.14314H29.7144V6.85742Z" fill="#503B1E"/>
<path d="M32.0001 6.85742H29.7144V9.14314H32.0001V6.85742Z" fill="#503B1E"/>
<path opacity="0.58" d="M2.28571 9.14258H0V11.4283H2.28571V9.14258Z" fill="#C4C3C7"/>
<path opacity="0.58" d="M4.57136 9.14258H2.28564V11.4283H4.57136V9.14258Z" fill="#161618"/>
<path opacity="0.58" d="M6.857 9.14258H4.57129V11.4283H6.857V9.14258Z" fill="#BDBCBF"/>
<path opacity="0.58" d="M9.14265 9.14258H6.85693V11.4283H9.14265V9.14258Z" fill="#F3F4F6"/>
<path opacity="0.58" d="M13.7144 9.14258H11.4287V11.4283H13.7144V9.14258Z" fill="#1A1A1C"/>
<path opacity="0.58" d="M16.0001 9.14258H13.7144V11.4283H16.0001V9.14258Z" fill="#ADABAD"/>
<path opacity="0.58" d="M18.2857 9.14258H16V11.4283H18.2857V9.14258Z" fill="#0B0B0D"/>
<path opacity="0.58" d="M20.5714 9.14258H18.2856V11.4283H20.5714V9.14258Z" fill="#F2F4F5"/>
<path opacity="0.58" d="M25.1426 9.14258H22.8569V11.4283H25.1426V9.14258Z" fill="#323234"/>
<path opacity="0.58" d="M27.4288 9.14258H25.1431V11.4283H27.4288V9.14258Z" fill="#BDBABD"/>
<path opacity="0.58" d="M29.7144 9.14258H27.4287V11.4283H29.7144V9.14258Z" fill="#1A191B"/>
<path opacity="0.58" d="M32.0001 9.14258H29.7144V11.4283H32.0001V9.14258Z" fill="#F3F4F6"/>
<path opacity="0.58" d="M2.28571 11.4287H0V13.7144H2.28571V11.4287Z" fill="#EDECF0"/>
<path opacity="0.58" d="M4.57136 11.4287H2.28564V13.7144H4.57136V11.4287Z" fill="#737373"/>
<path opacity="0.58" d="M6.857 11.4287H4.57129V13.7144H6.857V11.4287Z" fill="#F3F3F5"/>
<path opacity="0.58" d="M9.14265 11.4287H6.85693V13.7144H9.14265V11.4287Z" fill="#F3F4F6"/>
<path opacity="0.58" d="M13.7144 11.4287H11.4287V13.7144H13.7144V11.4287Z" fill="#272528"/>
<path opacity="0.58" d="M16.0001 11.4287H13.7144V13.7144H16.0001V11.4287Z" fill="#C8C8CA"/>
<path opacity="0.58" d="M18.2857 11.4287H16V13.7144H18.2857V11.4287Z" fill="#7B7A7C"/>
<path opacity="0.58" d="M20.5714 11.4287H18.2856V13.7144H20.5714V11.4287Z" fill="#F3F4F6"/>
<path opacity="0.58" d="M25.1426 11.4287H22.8569V13.7144H25.1426V11.4287Z" fill="#E6E8E9"/>
<path opacity="0.58" d="M27.4288 11.4287H25.1431V13.7144H27.4288V11.4287Z" fill="#525153"/>
<path opacity="0.58" d="M29.7144 11.4287H27.4287V13.7144H29.7144V11.4287Z" fill="#F3F4F6"/>
<path opacity="0.58" d="M32.0001 11.4287H29.7144V13.7144H32.0001V11.4287Z" fill="#F3F4F6"/>
<path d="M2.28571 16H0V18.2857H2.28571V16Z" fill="#C09630"/>
<path d="M4.57136 16H2.28564V18.2857H4.57136V16Z" fill="#BE972E"/>
<path d="M6.857 16H4.57129V18.2857H6.857V16Z" fill="#BE972E"/>
<path d="M9.14265 16H6.85693V18.2857H9.14265V16Z" fill="#BE972E"/>
<path d="M13.7144 16H11.4287V18.2857H13.7144V16Z" fill="#BC6844"/>
<path d="M16.0001 16H13.7144V18.2857H16.0001V16Z" fill="#BC6844"/>
<path d="M18.2857 16H16V18.2857H18.2857V16Z" fill="#BC6844"/>
<path d="M20.5714 16H18.2856V18.2857H20.5714V16Z" fill="#BC6844"/>
<path d="M25.1426 16H22.8569V18.2857H25.1426V16Z" fill="#027298"/>
<path d="M27.4288 16H25.1431V18.2857H27.4288V16Z" fill="#027298"/>
<path d="M29.7144 16H27.4287V18.2857H29.7144V16Z" fill="#027298"/>
<path d="M32.0001 16H29.7144V18.2857H32.0001V16Z" fill="#027298"/>
<path d="M2.28571 18.2861H0V20.5718H2.28571V18.2861Z" fill="#C09630"/>
<path d="M4.57136 18.2861H2.28564V20.5718H4.57136V18.2861Z" fill="#BE972E"/>
<path d="M6.857 18.2861H4.57129V20.5718H6.857V18.2861Z" fill="#BE972E"/>
<path d="M9.14265 18.2861H6.85693V20.5718H9.14265V18.2861Z" fill="#BE972E"/>
<path d="M13.7144 18.2861H11.4287V20.5718H13.7144V18.2861Z" fill="#BC6844"/>
<path d="M16.0001 18.2861H13.7144V20.5718H16.0001V18.2861Z" fill="#BC6844"/>
<path d="M18.2857 18.2861H16V20.5718H18.2857V18.2861Z" fill="#BC6844"/>
<path d="M20.5714 18.2861H18.2856V20.5718H20.5714V18.2861Z" fill="#BC6844"/>
<path d="M25.1426 18.2861H22.8569V20.5718H25.1426V18.2861Z" fill="#027298"/>
<path d="M27.4288 18.2861H25.1431V20.5718H27.4288V18.2861Z" fill="#027298"/>
<path d="M29.7144 18.2861H27.4287V20.5718H29.7144V18.2861Z" fill="#027298"/>
<path d="M32.0001 18.2861H29.7144V20.5718H32.0001V18.2861Z" fill="#027298"/>
<path d="M2.28571 20.5713H0V22.857H2.28571V20.5713Z" fill="#BF952F"/>
<path d="M4.57136 20.5713H2.28564V22.857H4.57136V20.5713Z" fill="#BD962D"/>
<path d="M6.857 20.5713H4.57129V22.857H6.857V20.5713Z" fill="#BD962D"/>
<path d="M9.14265 20.5713H6.85693V22.857H9.14265V20.5713Z" fill="#BD962D"/>
<path d="M13.7144 20.5713H11.4287V22.857H13.7144V20.5713Z" fill="#BC6844"/>
<path d="M16.0001 20.5713H13.7144V22.857H16.0001V20.5713Z" fill="#BC6844"/>
<path d="M18.2857 20.5713H16V22.857H18.2857V20.5713Z" fill="#BC6844"/>
<path d="M20.5714 20.5713H18.2856V22.857H20.5714V20.5713Z" fill="#BC6844"/>
<path d="M25.1426 20.5713H22.8569V22.857H25.1426V20.5713Z" fill="#027298"/>
<path d="M27.4288 20.5713H25.1431V22.857H27.4288V20.5713Z" fill="#027298"/>
<path d="M29.7144 20.5713H27.4287V22.857H29.7144V20.5713Z" fill="#027298"/>
<path d="M32.0001 20.5713H29.7144V22.857H32.0001V20.5713Z" fill="#027298"/>
<path d="M2.28571 22.8574H0V25.1431H2.28571V22.8574Z" fill="#C09630"/>
<path d="M4.57136 22.8574H2.28564V25.1431H4.57136V22.8574Z" fill="#BE972E"/>
<path d="M6.857 22.8574H4.57129V25.1431H6.857V22.8574Z" fill="#BE972E"/>
<path d="M9.14265 22.8574H6.85693V25.1431H9.14265V22.8574Z" fill="#BE972E"/>
<path d="M13.7144 22.8574H11.4287V25.1431H13.7144V22.8574Z" fill="#BC6844"/>
<path d="M16.0001 22.8574H13.7144V25.1431H16.0001V22.8574Z" fill="#BC6844"/>
<path d="M18.2857 22.8574H16V25.1431H18.2857V22.8574Z" fill="#BC6844"/>
<path d="M20.5714 22.8574H18.2856V25.1431H20.5714V22.8574Z" fill="#BC6844"/>
<path d="M25.1426 22.8574H22.8569V25.1431H25.1426V22.8574Z" fill="#027298"/>
<path d="M27.4288 22.8574H25.1431V25.1431H27.4288V22.8574Z" fill="#027298"/>
<path d="M29.7144 22.8574H27.4287V25.1431H29.7144V22.8574Z" fill="#027298"/>
<path d="M32.0001 22.8574H29.7144V25.1431H32.0001V22.8574Z" fill="#027298"/>
<path opacity="0.58" d="M2.28571 25.1426H0V27.4283H2.28571V25.1426Z" fill="#C8C8CA"/>
<path opacity="0.58" d="M4.57136 25.1426H2.28564V27.4283H4.57136V25.1426Z" fill="#141316"/>
<path opacity="0.58" d="M6.857 25.1426H4.57129V27.4283H6.857V25.1426Z" fill="#C8C8CA"/>
<path opacity="0.58" d="M9.14265 25.1426H6.85693V27.4283H9.14265V25.1426Z" fill="#F3F4F6"/>
<path opacity="0.58" d="M13.7144 25.1426H11.4287V27.4283H13.7144V25.1426Z" fill="#16151C"/>
<path opacity="0.58" d="M16.0001 25.1426H13.7144V27.4283H16.0001V25.1426Z" fill="#101014"/>
<path opacity="0.58" d="M18.2857 25.1426H16V27.4283H18.2857V25.1426Z" fill="#06050A"/>
<path opacity="0.58" d="M20.5714 25.1426H18.2856V27.4283H20.5714V25.1426Z" fill="#F3F5F6"/>
<path opacity="0.58" d="M25.1426 25.1426H22.8569V27.4283H25.1426V25.1426Z" fill="#7B7A7C"/>
<path opacity="0.58" d="M27.4288 25.1426H25.1431V27.4283H27.4288V25.1426Z" fill="#FAF9FC"/>
<path opacity="0.58" d="M29.7144 25.1426H27.4287V27.4283H29.7144V25.1426Z" fill="#111113"/>
<path opacity="0.58" d="M32.0001 25.1426H29.7144V27.4283H32.0001V25.1426Z" fill="#F3F4F8"/>
<path opacity="0.58" d="M2.28571 27.4287H0V29.7144H2.28571V27.4287Z" fill="#DCDBDF"/>
<path opacity="0.58" d="M4.57136 27.4287H2.28564V29.7144H4.57136V27.4287Z" fill="#29292B"/>
<path opacity="0.58" d="M6.857 27.4287H4.57129V29.7144H6.857V27.4287Z" fill="#6D6B6D"/>
<path opacity="0.58" d="M9.14265 27.4287H6.85693V29.7144H9.14265V27.4287Z" fill="#F2F4F6"/>
<path opacity="0.58" d="M13.7144 27.4287H11.4287V29.7144H13.7144V27.4287Z" fill="#272729"/>
<path opacity="0.58" d="M16.0001 27.4287H13.7144V29.7144H16.0001V27.4287Z" fill="#F3F3F5"/>
<path opacity="0.58" d="M18.2857 27.4287H16V29.7144H18.2857V27.4287Z" fill="#F3F5F6"/>
<path opacity="0.58" d="M20.5714 27.4287H18.2856V29.7144H20.5714V27.4287Z" fill="#F3F4F6"/>
<path opacity="0.58" d="M25.1426 27.4287H22.8569V29.7144H25.1426V27.4287Z" fill="#F2F2F4"/>
<path opacity="0.58" d="M27.4288 27.4287H25.1431V29.7144H27.4288V27.4287Z" fill="#E6E8E9"/>
<path opacity="0.58" d="M29.7144 27.4287H27.4287V29.7144H29.7144V27.4287Z" fill="#F3F4F6"/>
<path opacity="0.58" d="M32.0001 27.4287H29.7144V29.7144H32.0001V27.4287Z" fill="#F3F4F6"/>
</svg>
