<svg width="32" height="32" viewBox="0 0 32 32" fill="none" xmlns="http://www.w3.org/2000/svg">
<path d="M0.914286 0H0V0.914286H0.914286V0Z" fill="#EC6B37"/>
<path d="M1.82859 0H0.914307V0.914286H1.82859V0Z" fill="#EC6B37"/>
<path d="M2.7429 0H1.82861V0.914286H2.7429V0Z" fill="#EC6B37"/>
<path d="M3.65708 0H2.7428V0.914286H3.65708V0Z" fill="#EC6B37"/>
<path d="M4.57139 0H3.6571V0.914286H4.57139V0Z" fill="#EC6B37"/>
<path d="M5.4857 0H4.57141V0.914286H5.4857V0Z" fill="#EC6B37"/>
<path d="M6.4 0H5.48572V0.914286H6.4V0Z" fill="#EC6B37"/>
<path d="M10.0571 0H9.14282V0.914286H10.0571V0Z" fill="#F1BF70"/>
<path d="M10.9714 0H10.0571V0.914286H10.9714V0Z" fill="#F1BF70"/>
<path d="M11.8857 0H10.9714V0.914286H11.8857V0Z" fill="#F1BF70"/>
<path d="M12.8 0H11.8857V0.914286H12.8V0Z" fill="#F1BF70"/>
<path d="M13.7143 0H12.8V0.914286H13.7143V0Z" fill="#F1BF70"/>
<path d="M14.6285 0H13.7142V0.914286H14.6285V0Z" fill="#F1BF70"/>
<path d="M15.5428 0H14.6285V0.914286H15.5428V0Z" fill="#F1BF70"/>
<path d="M18.2857 0H17.3715V0.914286H18.2857V0Z" fill="#E85C1F"/>
<path d="M19.2001 0H18.2858V0.914286H19.2001V0Z" fill="#E85C1F"/>
<path d="M20.1142 0H19.2V0.914286H20.1142V0Z" fill="#E85C1F"/>
<path d="M21.0285 0H20.1143V0.914286H21.0285V0Z" fill="#E85C1F"/>
<path d="M21.9429 0H21.0286V0.914286H21.9429V0Z" fill="#E85C1F"/>
<path d="M22.8572 0H21.9429V0.914286H22.8572V0Z" fill="#E85C1F"/>
<path d="M23.7715 0H22.8572V0.914286H23.7715V0Z" fill="#E85C1F"/>
<path d="M0.914286 0.914276H0V1.82856H0.914286V0.914276Z" fill="#EC6B37"/>
<path d="M1.82859 0.914276H0.914307V1.82856H1.82859V0.914276Z" fill="#EC6B37"/>
<path d="M2.7429 0.914276H1.82861V1.82856H2.7429V0.914276Z" fill="#EC6B37"/>
<path d="M3.65708 0.914276H2.7428V1.82856H3.65708V0.914276Z" fill="#EC6B37"/>
<path d="M4.57139 0.914276H3.6571V1.82856H4.57139V0.914276Z" fill="#EC6B37"/>
<path d="M5.4857 0.914276H4.57141V1.82856H5.4857V0.914276Z" fill="#EC6B37"/>
<path d="M6.4 0.914276H5.48572V1.82856H6.4V0.914276Z" fill="#EC6B37"/>
<path d="M10.0571 0.914276H9.14282V1.82856H10.0571V0.914276Z" fill="#F1BF70"/>
<path d="M10.9714 0.914276H10.0571V1.82856H10.9714V0.914276Z" fill="#F1BF70"/>
<path d="M11.8857 0.914276H10.9714V1.82856H11.8857V0.914276Z" fill="#F1BF70"/>
<path d="M12.8 0.914276H11.8857V1.82856H12.8V0.914276Z" fill="#F1BF70"/>
<path d="M13.7143 0.914276H12.8V1.82856H13.7143V0.914276Z" fill="#F1BF70"/>
<path d="M14.6285 0.914276H13.7142V1.82856H14.6285V0.914276Z" fill="#F1BF70"/>
<path d="M15.5428 0.914276H14.6285V1.82856H15.5428V0.914276Z" fill="#F1BF70"/>
<path d="M18.2857 0.914276H17.3715V1.82856H18.2857V0.914276Z" fill="#E85C1F"/>
<path d="M19.2001 0.914276H18.2858V1.82856H19.2001V0.914276Z" fill="#E85C1F"/>
<path d="M20.1142 0.914276H19.2V1.82856H20.1142V0.914276Z" fill="#E85C1F"/>
<path d="M21.0285 0.914276H20.1143V1.82856H21.0285V0.914276Z" fill="#E85C1F"/>
<path d="M21.9429 0.914276H21.0286V1.82856H21.9429V0.914276Z" fill="#E85C1F"/>
<path d="M22.8572 0.914276H21.9429V1.82856H22.8572V0.914276Z" fill="#E85C1F"/>
<path d="M23.7715 0.914276H22.8572V1.82856H23.7715V0.914276Z" fill="#E85C1F"/>
<path d="M0.914286 1.82858H0V2.74287H0.914286V1.82858Z" fill="#EC6B37"/>
<path d="M1.82859 1.82858H0.914307V2.74287H1.82859V1.82858Z" fill="#EC6B37"/>
<path d="M2.7429 1.82858H1.82861V2.74287H2.7429V1.82858Z" fill="#EC6B37"/>
<path d="M3.65708 1.82858H2.7428V2.74287H3.65708V1.82858Z" fill="#EC6B37"/>
<path d="M4.57139 1.82858H3.6571V2.74287H4.57139V1.82858Z" fill="#EC6B37"/>
<path d="M5.4857 1.82858H4.57141V2.74287H5.4857V1.82858Z" fill="#EC6B37"/>
<path d="M6.4 1.82858H5.48572V2.74287H6.4V1.82858Z" fill="#EC6B37"/>
<path d="M10.0571 1.82858H9.14282V2.74287H10.0571V1.82858Z" fill="#F1BF70"/>
<path d="M10.9714 1.82858H10.0571V2.74287H10.9714V1.82858Z" fill="#F1BF70"/>
<path d="M11.8857 1.82858H10.9714V2.74287H11.8857V1.82858Z" fill="#F1BF70"/>
<path d="M12.8 1.82858H11.8857V2.74287H12.8V1.82858Z" fill="#F1BF70"/>
<path d="M13.7143 1.82858H12.8V2.74287H13.7143V1.82858Z" fill="#F1BF70"/>
<path d="M14.6285 1.82858H13.7142V2.74287H14.6285V1.82858Z" fill="#F1BF70"/>
<path d="M15.5428 1.82858H14.6285V2.74287H15.5428V1.82858Z" fill="#F1BF70"/>
<path d="M18.2857 1.82858H17.3715V2.74287H18.2857V1.82858Z" fill="#E85C1F"/>
<path d="M19.2001 1.82858H18.2858V2.74287H19.2001V1.82858Z" fill="#E85C1F"/>
<path d="M20.1142 1.82858H19.2V2.74287H20.1142V1.82858Z" fill="#E85C1F"/>
<path d="M21.0285 1.82858H20.1143V2.74287H21.0285V1.82858Z" fill="#E85C1F"/>
<path d="M21.9429 1.82858H21.0286V2.74287H21.9429V1.82858Z" fill="#E85C1F"/>
<path d="M22.8572 1.82858H21.9429V2.74287H22.8572V1.82858Z" fill="#E85C1F"/>
<path d="M23.7715 1.82858H22.8572V2.74287H23.7715V1.82858Z" fill="#E85C1F"/>
<path d="M0.914286 2.74286H0V3.65714H0.914286V2.74286Z" fill="#EC6B37"/>
<path d="M1.82859 2.74286H0.914307V3.65714H1.82859V2.74286Z" fill="#EC6B37"/>
<path d="M2.7429 2.74286H1.82861V3.65714H2.7429V2.74286Z" fill="#EC6B37"/>
<path d="M3.65708 2.74286H2.7428V3.65714H3.65708V2.74286Z" fill="#EC6B37"/>
<path d="M4.57139 2.74286H3.6571V3.65714H4.57139V2.74286Z" fill="#EC6B37"/>
<path d="M5.4857 2.74286H4.57141V3.65714H5.4857V2.74286Z" fill="#EC6B37"/>
<path d="M6.4 2.74286H5.48572V3.65714H6.4V2.74286Z" fill="#EC6B37"/>
<path d="M10.0571 2.74286H9.14282V3.65714H10.0571V2.74286Z" fill="#F1BF70"/>
<path d="M10.9714 2.74286H10.0571V3.65714H10.9714V2.74286Z" fill="#F1BF70"/>
<path d="M11.8857 2.74286H10.9714V3.65714H11.8857V2.74286Z" fill="#F1BF70"/>
<path d="M12.8 2.74286H11.8857V3.65714H12.8V2.74286Z" fill="#F1BF70"/>
<path d="M13.7143 2.74286H12.8V3.65714H13.7143V2.74286Z" fill="#F1BF70"/>
<path d="M14.6285 2.74286H13.7142V3.65714H14.6285V2.74286Z" fill="#F1BF70"/>
<path d="M15.5428 2.74286H14.6285V3.65714H15.5428V2.74286Z" fill="#F1BF70"/>
<path d="M18.2857 2.74286H17.3715V3.65714H18.2857V2.74286Z" fill="#E85C1F"/>
<path d="M19.2001 2.74286H18.2858V3.65714H19.2001V2.74286Z" fill="#E85C1F"/>
<path d="M20.1142 2.74286H19.2V3.65714H20.1142V2.74286Z" fill="#E85C1F"/>
<path d="M21.0285 2.74286H20.1143V3.65714H21.0285V2.74286Z" fill="#E85C1F"/>
<path d="M21.9429 2.74286H21.0286V3.65714H21.9429V2.74286Z" fill="#E85C1F"/>
<path d="M22.8572 2.74286H21.9429V3.65714H22.8572V2.74286Z" fill="#E85C1F"/>
<path d="M23.7715 2.74286H22.8572V3.65714H23.7715V2.74286Z" fill="#E85C1F"/>
<path d="M0.914286 3.65714H0V4.57142H0.914286V3.65714Z" fill="#EC6B37"/>
<path d="M1.82859 3.65714H0.914307V4.57142H1.82859V3.65714Z" fill="#EC6B37"/>
<path d="M2.7429 3.65714H1.82861V4.57142H2.7429V3.65714Z" fill="#EC6B37"/>
<path d="M3.65708 3.65714H2.7428V4.57142H3.65708V3.65714Z" fill="#EC6B37"/>
<path d="M4.57139 3.65714H3.6571V4.57142H4.57139V3.65714Z" fill="#EC6B37"/>
<path d="M5.4857 3.65714H4.57141V4.57142H5.4857V3.65714Z" fill="#EC6B37"/>
<path d="M6.4 3.65714H5.48572V4.57142H6.4V3.65714Z" fill="#EC6B37"/>
<path d="M10.0571 3.65714H9.14282V4.57142H10.0571V3.65714Z" fill="#F1BF70"/>
<path d="M10.9714 3.65714H10.0571V4.57142H10.9714V3.65714Z" fill="#F1BF70"/>
<path d="M11.8857 3.65714H10.9714V4.57142H11.8857V3.65714Z" fill="#F1BF70"/>
<path d="M12.8 3.65714H11.8857V4.57142H12.8V3.65714Z" fill="#F1BF70"/>
<path d="M13.7143 3.65714H12.8V4.57142H13.7143V3.65714Z" fill="#F1BF70"/>
<path d="M14.6285 3.65714H13.7142V4.57142H14.6285V3.65714Z" fill="#F1BF70"/>
<path d="M15.5428 3.65714H14.6285V4.57142H15.5428V3.65714Z" fill="#F1BF70"/>
<path d="M18.2857 3.65714H17.3715V4.57142H18.2857V3.65714Z" fill="#E85C1F"/>
<path d="M19.2001 3.65714H18.2858V4.57142H19.2001V3.65714Z" fill="#E85C1F"/>
<path d="M20.1142 3.65714H19.2V4.57142H20.1142V3.65714Z" fill="#E85C1F"/>
<path d="M21.0285 3.65714H20.1143V4.57142H21.0285V3.65714Z" fill="#E85C1F"/>
<path d="M21.9429 3.65714H21.0286V4.57142H21.9429V3.65714Z" fill="#E85C1F"/>
<path d="M22.8572 3.65714H21.9429V4.57142H22.8572V3.65714Z" fill="#E85C1F"/>
<path d="M23.7715 3.65714H22.8572V4.57142H23.7715V3.65714Z" fill="#E85C1F"/>
<path d="M0.914286 4.57144H0V5.48573H0.914286V4.57144Z" fill="#EC6B37"/>
<path d="M1.82859 4.57144H0.914307V5.48573H1.82859V4.57144Z" fill="#EC6B37"/>
<path d="M2.7429 4.57144H1.82861V5.48573H2.7429V4.57144Z" fill="#EC6B37"/>
<path d="M3.65708 4.57144H2.7428V5.48573H3.65708V4.57144Z" fill="#EC6B37"/>
<path d="M4.57139 4.57144H3.6571V5.48573H4.57139V4.57144Z" fill="#EC6B37"/>
<path d="M5.4857 4.57144H4.57141V5.48573H5.4857V4.57144Z" fill="#EC6B37"/>
<path d="M6.4 4.57144H5.48572V5.48573H6.4V4.57144Z" fill="#EC6B37"/>
<path d="M10.0571 4.57144H9.14282V5.48573H10.0571V4.57144Z" fill="#F1BF70"/>
<path d="M10.9714 4.57144H10.0571V5.48573H10.9714V4.57144Z" fill="#F1BF70"/>
<path d="M11.8857 4.57144H10.9714V5.48573H11.8857V4.57144Z" fill="#F1BF70"/>
<path d="M12.8 4.57144H11.8857V5.48573H12.8V4.57144Z" fill="#F1BF70"/>
<path d="M13.7143 4.57144H12.8V5.48573H13.7143V4.57144Z" fill="#F1BF70"/>
<path d="M14.6285 4.57144H13.7142V5.48573H14.6285V4.57144Z" fill="#F1BF70"/>
<path d="M15.5428 4.57144H14.6285V5.48573H15.5428V4.57144Z" fill="#F1BF70"/>
<path d="M18.2857 4.57144H17.3715V5.48573H18.2857V4.57144Z" fill="#E85C1F"/>
<path d="M19.2001 4.57144H18.2858V5.48573H19.2001V4.57144Z" fill="#E85C1F"/>
<path d="M20.1142 4.57144H19.2V5.48573H20.1142V4.57144Z" fill="#E85C1F"/>
<path d="M21.0285 4.57144H20.1143V5.48573H21.0285V4.57144Z" fill="#E85C1F"/>
<path d="M21.9429 4.57144H21.0286V5.48573H21.9429V4.57144Z" fill="#E85C1F"/>
<path d="M22.8572 4.57144H21.9429V5.48573H22.8572V4.57144Z" fill="#E85C1F"/>
<path d="M23.7715 4.57144H22.8572V5.48573H23.7715V4.57144Z" fill="#E85C1F"/>
<path d="M0.914286 5.48572H0V6.4H0.914286V5.48572Z" fill="#EC6B37"/>
<path d="M1.82859 5.48572H0.914307V6.4H1.82859V5.48572Z" fill="#EC6B37"/>
<path d="M2.7429 5.48572H1.82861V6.4H2.7429V5.48572Z" fill="#EC6B37"/>
<path d="M3.65708 5.48572H2.7428V6.4H3.65708V5.48572Z" fill="#EC6B37"/>
<path d="M4.57139 5.48572H3.6571V6.4H4.57139V5.48572Z" fill="#EC6B37"/>
<path d="M5.4857 5.48572H4.57141V6.4H5.4857V5.48572Z" fill="#EC6B37"/>
<path d="M6.4 5.48572H5.48572V6.4H6.4V5.48572Z" fill="#EC6B37"/>
<path d="M10.0571 5.48572H9.14282V6.4H10.0571V5.48572Z" fill="#F1BF70"/>
<path d="M10.9714 5.48572H10.0571V6.4H10.9714V5.48572Z" fill="#F1BF70"/>
<path d="M11.8857 5.48572H10.9714V6.4H11.8857V5.48572Z" fill="#F1BF70"/>
<path d="M12.8 5.48572H11.8857V6.4H12.8V5.48572Z" fill="#F1BF70"/>
<path d="M13.7143 5.48572H12.8V6.4H13.7143V5.48572Z" fill="#F1BF70"/>
<path d="M14.6285 5.48572H13.7142V6.4H14.6285V5.48572Z" fill="#F1BF70"/>
<path d="M15.5428 5.48572H14.6285V6.4H15.5428V5.48572Z" fill="#F1BF70"/>
<path d="M18.2857 5.48572H17.3715V6.4H18.2857V5.48572Z" fill="#E85C1F"/>
<path d="M19.2001 5.48572H18.2858V6.4H19.2001V5.48572Z" fill="#E85C1F"/>
<path d="M20.1142 5.48572H19.2V6.4H20.1142V5.48572Z" fill="#E85C1F"/>
<path d="M21.0285 5.48572H20.1143V6.4H21.0285V5.48572Z" fill="#E85C1F"/>
<path d="M21.9429 5.48572H21.0286V6.4H21.9429V5.48572Z" fill="#E85C1F"/>
<path d="M22.8572 5.48572H21.9429V6.4H22.8572V5.48572Z" fill="#E85C1F"/>
<path d="M23.7715 5.48572H22.8572V6.4H23.7715V5.48572Z" fill="#E85C1F"/>
<path d="M0.914286 6.39999H0V7.31428H0.914286V6.39999Z" fill="#A2A2A2"/>
<path d="M1.82859 6.39999H0.914307V7.31428H1.82859V6.39999Z" fill="#F1F1F1"/>
<path d="M2.7429 6.39999H1.82861V7.31428H2.7429V6.39999Z" fill="#E5E5E5"/>
<path d="M3.65708 6.39999H2.7428V7.31428H3.65708V6.39999Z" fill="#111111"/>
<path d="M4.57139 6.39999H3.6571V7.31428H4.57139V6.39999Z" fill="black"/>
<path d="M5.4857 6.39999H4.57141V7.31428H5.4857V6.39999Z" fill="white"/>
<path d="M6.4 6.39999H5.48572V7.31428H6.4V6.39999Z" fill="white"/>
<path d="M10.0571 6.39999H9.14282V7.31428H10.0571V6.39999Z" fill="#070707"/>
<path d="M10.9714 6.39999H10.0571V7.31428H10.9714V6.39999Z" fill="white"/>
<path d="M11.8857 6.39999H10.9714V7.31428H11.8857V6.39999Z" fill="black"/>
<path d="M12.8 6.39999H11.8857V7.31428H12.8V6.39999Z" fill="white"/>
<path d="M13.7143 6.39999H12.8V7.31428H13.7143V6.39999Z" fill="white"/>
<path d="M14.6285 6.39999H13.7142V7.31428H14.6285V6.39999Z" fill="white"/>
<path d="M15.5428 6.39999H14.6285V7.31428H15.5428V6.39999Z" fill="white"/>
<path d="M18.2857 6.39999H17.3715V7.31428H18.2857V6.39999Z" fill="black"/>
<path d="M19.2001 6.39999H18.2858V7.31428H19.2001V6.39999Z" fill="white"/>
<path d="M20.1142 6.39999H19.2V7.31428H20.1142V6.39999Z" fill="white"/>
<path d="M21.0285 6.39999H20.1143V7.31428H21.0285V6.39999Z" fill="white"/>
<path d="M21.9429 6.39999H21.0286V7.31428H21.9429V6.39999Z" fill="white"/>
<path d="M22.8572 6.39999H21.9429V7.31428H22.8572V6.39999Z" fill="white"/>
<path d="M23.7715 6.39999H22.8572V7.31428H23.7715V6.39999Z" fill="white"/>
<path d="M0.914286 7.3143H0V8.22859H0.914286V7.3143Z" fill="white"/>
<path d="M1.82859 7.3143H0.914307V8.22859H1.82859V7.3143Z" fill="white"/>
<path d="M2.7429 7.3143H1.82861V8.22859H2.7429V7.3143Z" fill="white"/>
<path d="M3.65708 7.3143H2.7428V8.22859H3.65708V7.3143Z" fill="white"/>
<path d="M4.57139 7.3143H3.6571V8.22859H4.57139V7.3143Z" fill="white"/>
<path d="M5.4857 7.3143H4.57141V8.22859H5.4857V7.3143Z" fill="white"/>
<path d="M6.4 7.3143H5.48572V8.22859H6.4V7.3143Z" fill="white"/>
<path d="M10.0571 7.3143H9.14282V8.22859H10.0571V7.3143Z" fill="white"/>
<path d="M10.9714 7.3143H10.0571V8.22859H10.9714V7.3143Z" fill="white"/>
<path d="M11.8857 7.3143H10.9714V8.22859H11.8857V7.3143Z" fill="#FCFCFC"/>
<path d="M12.8 7.3143H11.8857V8.22859H12.8V7.3143Z" fill="white"/>
<path d="M13.7143 7.3143H12.8V8.22859H13.7143V7.3143Z" fill="white"/>
<path d="M14.6285 7.3143H13.7142V8.22859H14.6285V7.3143Z" fill="white"/>
<path d="M15.5428 7.3143H14.6285V8.22859H15.5428V7.3143Z" fill="white"/>
<path d="M18.2857 7.3143H17.3715V8.22859H18.2857V7.3143Z" fill="white"/>
<path d="M19.2001 7.3143H18.2858V8.22859H19.2001V7.3143Z" fill="white"/>
<path d="M20.1142 7.3143H19.2V8.22859H20.1142V7.3143Z" fill="white"/>
<path d="M21.0285 7.3143H20.1143V8.22859H21.0285V7.3143Z" fill="white"/>
<path d="M21.9429 7.3143H21.0286V8.22859H21.9429V7.3143Z" fill="white"/>
<path d="M22.8572 7.3143H21.9429V8.22859H22.8572V7.3143Z" fill="white"/>
<path d="M23.7715 7.3143H22.8572V8.22859H23.7715V7.3143Z" fill="white"/>
<path d="M0.914286 8.22858H0V9.14286H0.914286V8.22858Z" fill="white"/>
<path d="M1.82859 8.22858H0.914307V9.14286H1.82859V8.22858Z" fill="white"/>
<path d="M2.7429 8.22858H1.82861V9.14286H2.7429V8.22858Z" fill="white"/>
<path d="M3.65708 8.22858H2.7428V9.14286H3.65708V8.22858Z" fill="white"/>
<path d="M4.57139 8.22858H3.6571V9.14286H4.57139V8.22858Z" fill="white"/>
<path d="M5.4857 8.22858H4.57141V9.14286H5.4857V8.22858Z" fill="white"/>
<path d="M6.4 8.22858H5.48572V9.14286H6.4V8.22858Z" fill="white"/>
<path d="M10.0571 8.22858H9.14282V9.14286H10.0571V8.22858Z" fill="white"/>
<path d="M10.9714 8.22858H10.0571V9.14286H10.9714V8.22858Z" fill="white"/>
<path d="M11.8857 8.22858H10.9714V9.14286H11.8857V8.22858Z" fill="white"/>
<path d="M12.8 8.22858H11.8857V9.14286H12.8V8.22858Z" fill="white"/>
<path d="M13.7143 8.22858H12.8V9.14286H13.7143V8.22858Z" fill="white"/>
<path d="M14.6285 8.22858H13.7142V9.14286H14.6285V8.22858Z" fill="white"/>
<path d="M15.5428 8.22858H14.6285V9.14286H15.5428V8.22858Z" fill="white"/>
<path d="M18.2857 8.22858H17.3715V9.14286H18.2857V8.22858Z" fill="white"/>
<path d="M19.2001 8.22858H18.2858V9.14286H19.2001V8.22858Z" fill="white"/>
<path d="M20.1142 8.22858H19.2V9.14286H20.1142V8.22858Z" fill="white"/>
<path d="M21.0285 8.22858H20.1143V9.14286H21.0285V8.22858Z" fill="white"/>
<path d="M21.9429 8.22858H21.0286V9.14286H21.9429V8.22858Z" fill="white"/>
<path d="M22.8572 8.22858H21.9429V9.14286H22.8572V8.22858Z" fill="white"/>
<path d="M23.7715 8.22858H22.8572V9.14286H23.7715V8.22858Z" fill="white"/>
<path d="M26.5143 0H25.6V0.914286H26.5143V0Z" fill="#927288"/>
<path d="M27.4286 0H26.5143V0.914286H27.4286V0Z" fill="#927288"/>
<path d="M28.3429 0H27.4286V0.914286H28.3429V0Z" fill="#927288"/>
<path d="M29.2572 0H28.3429V0.914286H29.2572V0Z" fill="#927288"/>
<path d="M30.1715 0H29.2572V0.914286H30.1715V0Z" fill="#927288"/>
<path d="M31.0857 0H30.1714V0.914286H31.0857V0Z" fill="#927288"/>
<path d="M32 0H31.0857V0.914286H32V0Z" fill="#927288"/>
<path d="M26.5143 0.914276H25.6V1.82856H26.5143V0.914276Z" fill="#927288"/>
<path d="M27.4286 0.914276H26.5143V1.82856H27.4286V0.914276Z" fill="#927288"/>
<path d="M28.3429 0.914276H27.4286V1.82856H28.3429V0.914276Z" fill="#927288"/>
<path d="M29.2572 0.914276H28.3429V1.82856H29.2572V0.914276Z" fill="#927288"/>
<path d="M30.1715 0.914276H29.2572V1.82856H30.1715V0.914276Z" fill="#927288"/>
<path d="M31.0857 0.914276H30.1714V1.82856H31.0857V0.914276Z" fill="#927288"/>
<path d="M32 0.914276H31.0857V1.82856H32V0.914276Z" fill="#927288"/>
<path d="M26.5143 1.82858H25.6V2.74287H26.5143V1.82858Z" fill="#927288"/>
<path d="M27.4286 1.82858H26.5143V2.74287H27.4286V1.82858Z" fill="#927288"/>
<path d="M28.3429 1.82858H27.4286V2.74287H28.3429V1.82858Z" fill="#927288"/>
<path d="M29.2572 1.82858H28.3429V2.74287H29.2572V1.82858Z" fill="#927288"/>
<path d="M30.1715 1.82858H29.2572V2.74287H30.1715V1.82858Z" fill="#927288"/>
<path d="M31.0857 1.82858H30.1714V2.74287H31.0857V1.82858Z" fill="#927288"/>
<path d="M32 1.82858H31.0857V2.74287H32V1.82858Z" fill="#927288"/>
<path d="M26.5143 2.74286H25.6V3.65714H26.5143V2.74286Z" fill="#927288"/>
<path d="M27.4286 2.74286H26.5143V3.65714H27.4286V2.74286Z" fill="#927288"/>
<path d="M28.3429 2.74286H27.4286V3.65714H28.3429V2.74286Z" fill="#927288"/>
<path d="M29.2572 2.74286H28.3429V3.65714H29.2572V2.74286Z" fill="#927288"/>
<path d="M30.1715 2.74286H29.2572V3.65714H30.1715V2.74286Z" fill="#927288"/>
<path d="M31.0857 2.74286H30.1714V3.65714H31.0857V2.74286Z" fill="#927288"/>
<path d="M32 2.74286H31.0857V3.65714H32V2.74286Z" fill="#927288"/>
<path d="M26.5143 3.65714H25.6V4.57142H26.5143V3.65714Z" fill="#927288"/>
<path d="M27.4286 3.65714H26.5143V4.57142H27.4286V3.65714Z" fill="#927288"/>
<path d="M28.3429 3.65714H27.4286V4.57142H28.3429V3.65714Z" fill="#927288"/>
<path d="M29.2572 3.65714H28.3429V4.57142H29.2572V3.65714Z" fill="#927288"/>
<path d="M30.1715 3.65714H29.2572V4.57142H30.1715V3.65714Z" fill="#927288"/>
<path d="M31.0857 3.65714H30.1714V4.57142H31.0857V3.65714Z" fill="#927288"/>
<path d="M32 3.65714H31.0857V4.57142H32V3.65714Z" fill="#927288"/>
<path d="M26.5143 4.57144H25.6V5.48573H26.5143V4.57144Z" fill="#927288"/>
<path d="M27.4286 4.57144H26.5143V5.48573H27.4286V4.57144Z" fill="#927288"/>
<path d="M28.3429 4.57144H27.4286V5.48573H28.3429V4.57144Z" fill="#927288"/>
<path d="M29.2572 4.57144H28.3429V5.48573H29.2572V4.57144Z" fill="#927288"/>
<path d="M30.1715 4.57144H29.2572V5.48573H30.1715V4.57144Z" fill="#927288"/>
<path d="M31.0857 4.57144H30.1714V5.48573H31.0857V4.57144Z" fill="#927288"/>
<path d="M32 4.57144H31.0857V5.48573H32V4.57144Z" fill="#927288"/>
<path d="M26.5143 5.48572H25.6V6.4H26.5143V5.48572Z" fill="#927288"/>
<path d="M27.4286 5.48572H26.5143V6.4H27.4286V5.48572Z" fill="#927288"/>
<path d="M28.3429 5.48572H27.4286V6.4H28.3429V5.48572Z" fill="#927288"/>
<path d="M29.2572 5.48572H28.3429V6.4H29.2572V5.48572Z" fill="#927288"/>
<path d="M30.1715 5.48572H29.2572V6.4H30.1715V5.48572Z" fill="#927288"/>
<path d="M31.0857 5.48572H30.1714V6.4H31.0857V5.48572Z" fill="#927288"/>
<path d="M32 5.48572H31.0857V6.4H32V5.48572Z" fill="#927288"/>
<path d="M26.5143 6.39999H25.6V7.31428H26.5143V6.39999Z" fill="white"/>
<path d="M27.4286 6.39999H26.5143V7.31428H27.4286V6.39999Z" fill="black"/>
<path d="M28.3429 6.39999H27.4286V7.31428H28.3429V6.39999Z" fill="white"/>
<path d="M29.2572 6.39999H28.3429V7.31428H29.2572V6.39999Z" fill="white"/>
<path d="M30.1715 6.39999H29.2572V7.31428H30.1715V6.39999Z" fill="white"/>
<path d="M31.0857 6.39999H30.1714V7.31428H31.0857V6.39999Z" fill="white"/>
<path d="M32 6.39999H31.0857V7.31428H32V6.39999Z" fill="white"/>
<path d="M26.5143 7.3143H25.6V8.22859H26.5143V7.3143Z" fill="white"/>
<path d="M27.4286 7.3143H26.5143V8.22859H27.4286V7.3143Z" fill="white"/>
<path d="M28.3429 7.3143H27.4286V8.22859H28.3429V7.3143Z" fill="white"/>
<path d="M29.2572 7.3143H28.3429V8.22859H29.2572V7.3143Z" fill="white"/>
<path d="M30.1715 7.3143H29.2572V8.22859H30.1715V7.3143Z" fill="white"/>
<path d="M31.0857 7.3143H30.1714V8.22859H31.0857V7.3143Z" fill="white"/>
<path d="M32 7.3143H31.0857V8.22859H32V7.3143Z" fill="white"/>
<path d="M26.5143 8.22858H25.6V9.14286H26.5143V8.22858Z" fill="white"/>
<path d="M27.4286 8.22858H26.5143V9.14286H27.4286V8.22858Z" fill="white"/>
<path d="M28.3429 8.22858H27.4286V9.14286H28.3429V8.22858Z" fill="white"/>
<path d="M29.2572 8.22858H28.3429V9.14286H29.2572V8.22858Z" fill="white"/>
<path d="M30.1715 8.22858H29.2572V9.14286H30.1715V8.22858Z" fill="white"/>
<path d="M31.0857 8.22858H30.1714V9.14286H31.0857V8.22858Z" fill="white"/>
<path d="M32 8.22858H31.0857V9.14286H32V8.22858Z" fill="white"/>
<path d="M0.914286 10.9714H0V11.8857H0.914286V10.9714Z" fill="#C51A59"/>
<path d="M1.82859 10.9714H0.914307V11.8857H1.82859V10.9714Z" fill="#C51A59"/>
<path d="M2.7429 10.9714H1.82861V11.8857H2.7429V10.9714Z" fill="#C51A59"/>
<path d="M3.65708 10.9714H2.7428V11.8857H3.65708V10.9714Z" fill="#C51A59"/>
<path d="M4.57139 10.9714H3.6571V11.8857H4.57139V10.9714Z" fill="#C51A59"/>
<path d="M5.4857 10.9714H4.57141V11.8857H5.4857V10.9714Z" fill="#C51A59"/>
<path d="M6.4 10.9714H5.48572V11.8857H6.4V10.9714Z" fill="#C51A59"/>
<path d="M18.2857 10.9714H17.3715V11.8857H18.2857V10.9714Z" fill="#E27A54"/>
<path d="M19.2001 10.9714H18.2858V11.8857H19.2001V10.9714Z" fill="#E27A54"/>
<path d="M20.1142 10.9714H19.2V11.8857H20.1142V10.9714Z" fill="#E27A54"/>
<path d="M21.0285 10.9714H20.1143V11.8857H21.0285V10.9714Z" fill="#E27A54"/>
<path d="M21.9429 10.9714H21.0286V11.8857H21.9429V10.9714Z" fill="#E27A54"/>
<path d="M22.8572 10.9714H21.9429V11.8857H22.8572V10.9714Z" fill="#E27A54"/>
<path d="M23.7715 10.9714H22.8572V11.8857H23.7715V10.9714Z" fill="#E27A54"/>
<path d="M26.5143 10.9714H25.6V11.8857H26.5143V10.9714Z" fill="#FB8C22"/>
<path d="M27.4286 10.9714H26.5143V11.8857H27.4286V10.9714Z" fill="#FB8C22"/>
<path d="M28.3429 10.9714H27.4286V11.8857H28.3429V10.9714Z" fill="#FB8C22"/>
<path d="M29.2572 10.9714H28.3429V11.8857H29.2572V10.9714Z" fill="#FB8C22"/>
<path d="M30.1715 10.9714H29.2572V11.8857H30.1715V10.9714Z" fill="#FB8C22"/>
<path d="M31.0857 10.9714H30.1714V11.8857H31.0857V10.9714Z" fill="#FB8C22"/>
<path d="M32 10.9714H31.0857V11.8857H32V10.9714Z" fill="#FB8C22"/>
<path d="M0.914286 11.8857H0V12.8H0.914286V11.8857Z" fill="#C51A59"/>
<path d="M1.82859 11.8857H0.914307V12.8H1.82859V11.8857Z" fill="#C51A59"/>
<path d="M2.7429 11.8857H1.82861V12.8H2.7429V11.8857Z" fill="#C51A59"/>
<path d="M3.65708 11.8857H2.7428V12.8H3.65708V11.8857Z" fill="#C51A59"/>
<path d="M4.57139 11.8857H3.6571V12.8H4.57139V11.8857Z" fill="#C51A59"/>
<path d="M5.4857 11.8857H4.57141V12.8H5.4857V11.8857Z" fill="#C51A59"/>
<path d="M6.4 11.8857H5.48572V12.8H6.4V11.8857Z" fill="#C51A59"/>
<path d="M18.2857 11.8857H17.3715V12.8H18.2857V11.8857Z" fill="#E27A54"/>
<path d="M19.2001 11.8857H18.2858V12.8H19.2001V11.8857Z" fill="#E27A54"/>
<path d="M20.1142 11.8857H19.2V12.8H20.1142V11.8857Z" fill="#E27A54"/>
<path d="M21.0285 11.8857H20.1143V12.8H21.0285V11.8857Z" fill="#E27A54"/>
<path d="M21.9429 11.8857H21.0286V12.8H21.9429V11.8857Z" fill="#E27A54"/>
<path d="M22.8572 11.8857H21.9429V12.8H22.8572V11.8857Z" fill="#E27A54"/>
<path d="M23.7715 11.8857H22.8572V12.8H23.7715V11.8857Z" fill="#E27A54"/>
<path d="M26.5143 11.8857H25.6V12.8H26.5143V11.8857Z" fill="#FB8C22"/>
<path d="M27.4286 11.8857H26.5143V12.8H27.4286V11.8857Z" fill="#FB8C22"/>
<path d="M28.3429 11.8857H27.4286V12.8H28.3429V11.8857Z" fill="#FB8C22"/>
<path d="M29.2572 11.8857H28.3429V12.8H29.2572V11.8857Z" fill="#FB8C22"/>
<path d="M30.1715 11.8857H29.2572V12.8H30.1715V11.8857Z" fill="#FB8C22"/>
<path d="M31.0857 11.8857H30.1714V12.8H31.0857V11.8857Z" fill="#FB8C22"/>
<path d="M32 11.8857H31.0857V12.8H32V11.8857Z" fill="#FB8C22"/>
<path d="M0.914286 12.8H0V13.7143H0.914286V12.8Z" fill="#C51A59"/>
<path d="M1.82859 12.8H0.914307V13.7143H1.82859V12.8Z" fill="#C51A59"/>
<path d="M2.7429 12.8H1.82861V13.7143H2.7429V12.8Z" fill="#C51A59"/>
<path d="M3.65708 12.8H2.7428V13.7143H3.65708V12.8Z" fill="#C51A59"/>
<path d="M4.57139 12.8H3.6571V13.7143H4.57139V12.8Z" fill="#C51A59"/>
<path d="M5.4857 12.8H4.57141V13.7143H5.4857V12.8Z" fill="#C51A59"/>
<path d="M6.4 12.8H5.48572V13.7143H6.4V12.8Z" fill="#C51A59"/>
<path d="M18.2857 12.8H17.3715V13.7143H18.2857V12.8Z" fill="#E27A54"/>
<path d="M19.2001 12.8H18.2858V13.7143H19.2001V12.8Z" fill="#E27A54"/>
<path d="M20.1142 12.8H19.2V13.7143H20.1142V12.8Z" fill="#E27A54"/>
<path d="M21.0285 12.8H20.1143V13.7143H21.0285V12.8Z" fill="#E27A54"/>
<path d="M21.9429 12.8H21.0286V13.7143H21.9429V12.8Z" fill="#E27A54"/>
<path d="M22.8572 12.8H21.9429V13.7143H22.8572V12.8Z" fill="#E27A54"/>
<path d="M23.7715 12.8H22.8572V13.7143H23.7715V12.8Z" fill="#E27A54"/>
<path d="M26.5143 12.8H25.6V13.7143H26.5143V12.8Z" fill="#FB8C22"/>
<path d="M27.4286 12.8H26.5143V13.7143H27.4286V12.8Z" fill="#FB8C22"/>
<path d="M28.3429 12.8H27.4286V13.7143H28.3429V12.8Z" fill="#FB8C22"/>
<path d="M29.2572 12.8H28.3429V13.7143H29.2572V12.8Z" fill="#FB8C22"/>
<path d="M30.1715 12.8H29.2572V13.7143H30.1715V12.8Z" fill="#FB8C22"/>
<path d="M31.0857 12.8H30.1714V13.7143H31.0857V12.8Z" fill="#FB8C22"/>
<path d="M32 12.8H31.0857V13.7143H32V12.8Z" fill="#FB8C22"/>
<path d="M0.914286 13.7143H0V14.6286H0.914286V13.7143Z" fill="#C51A59"/>
<path d="M1.82859 13.7143H0.914307V14.6286H1.82859V13.7143Z" fill="#C51A59"/>
<path d="M2.7429 13.7143H1.82861V14.6286H2.7429V13.7143Z" fill="#C51A59"/>
<path d="M3.65708 13.7143H2.7428V14.6286H3.65708V13.7143Z" fill="#C51A59"/>
<path d="M4.57139 13.7143H3.6571V14.6286H4.57139V13.7143Z" fill="#C51A59"/>
<path d="M5.4857 13.7143H4.57141V14.6286H5.4857V13.7143Z" fill="#C51A59"/>
<path d="M6.4 13.7143H5.48572V14.6286H6.4V13.7143Z" fill="#C51A59"/>
<path d="M18.2857 13.7143H17.3715V14.6286H18.2857V13.7143Z" fill="#E27A54"/>
<path d="M19.2001 13.7143H18.2858V14.6286H19.2001V13.7143Z" fill="#E27A54"/>
<path d="M20.1142 13.7143H19.2V14.6286H20.1142V13.7143Z" fill="#E27A54"/>
<path d="M21.0285 13.7143H20.1143V14.6286H21.0285V13.7143Z" fill="#E27A54"/>
<path d="M21.9429 13.7143H21.0286V14.6286H21.9429V13.7143Z" fill="#E27A54"/>
<path d="M22.8572 13.7143H21.9429V14.6286H22.8572V13.7143Z" fill="#E27A54"/>
<path d="M23.7715 13.7143H22.8572V14.6286H23.7715V13.7143Z" fill="#E27A54"/>
<path d="M26.5143 13.7143H25.6V14.6286H26.5143V13.7143Z" fill="#FB8C22"/>
<path d="M27.4286 13.7143H26.5143V14.6286H27.4286V13.7143Z" fill="#FB8C22"/>
<path d="M28.3429 13.7143H27.4286V14.6286H28.3429V13.7143Z" fill="#FB8C22"/>
<path d="M29.2572 13.7143H28.3429V14.6286H29.2572V13.7143Z" fill="#FB8C22"/>
<path d="M30.1715 13.7143H29.2572V14.6286H30.1715V13.7143Z" fill="#FB8C22"/>
<path d="M31.0857 13.7143H30.1714V14.6286H31.0857V13.7143Z" fill="#FB8C22"/>
<path d="M32 13.7143H31.0857V14.6286H32V13.7143Z" fill="#FB8C22"/>
<path d="M0.914286 14.6286H0V15.5429H0.914286V14.6286Z" fill="#C51A59"/>
<path d="M1.82859 14.6286H0.914307V15.5429H1.82859V14.6286Z" fill="#C51A59"/>
<path d="M2.7429 14.6286H1.82861V15.5429H2.7429V14.6286Z" fill="#C51A59"/>
<path d="M3.65708 14.6286H2.7428V15.5429H3.65708V14.6286Z" fill="#C51A59"/>
<path d="M4.57139 14.6286H3.6571V15.5429H4.57139V14.6286Z" fill="#C51A59"/>
<path d="M5.4857 14.6286H4.57141V15.5429H5.4857V14.6286Z" fill="#C51A59"/>
<path d="M6.4 14.6286H5.48572V15.5429H6.4V14.6286Z" fill="#C51A59"/>
<path d="M18.2857 14.6286H17.3715V15.5429H18.2857V14.6286Z" fill="#E27A54"/>
<path d="M19.2001 14.6286H18.2858V15.5429H19.2001V14.6286Z" fill="#E27A54"/>
<path d="M20.1142 14.6286H19.2V15.5429H20.1142V14.6286Z" fill="#E27A54"/>
<path d="M21.0285 14.6286H20.1143V15.5429H21.0285V14.6286Z" fill="#E27A54"/>
<path d="M21.9429 14.6286H21.0286V15.5429H21.9429V14.6286Z" fill="#E27A54"/>
<path d="M22.8572 14.6286H21.9429V15.5429H22.8572V14.6286Z" fill="#E27A54"/>
<path d="M23.7715 14.6286H22.8572V15.5429H23.7715V14.6286Z" fill="#E27A54"/>
<path d="M26.5143 14.6286H25.6V15.5429H26.5143V14.6286Z" fill="#FB8C22"/>
<path d="M27.4286 14.6286H26.5143V15.5429H27.4286V14.6286Z" fill="#FB8C22"/>
<path d="M28.3429 14.6286H27.4286V15.5429H28.3429V14.6286Z" fill="#FB8C22"/>
<path d="M29.2572 14.6286H28.3429V15.5429H29.2572V14.6286Z" fill="#FB8C22"/>
<path d="M30.1715 14.6286H29.2572V15.5429H30.1715V14.6286Z" fill="#FB8C22"/>
<path d="M31.0857 14.6286H30.1714V15.5429H31.0857V14.6286Z" fill="#FB8C22"/>
<path d="M32 14.6286H31.0857V15.5429H32V14.6286Z" fill="#FB8C22"/>
<path d="M0.914286 15.5428H0V16.4571H0.914286V15.5428Z" fill="#C51A59"/>
<path d="M1.82859 15.5428H0.914307V16.4571H1.82859V15.5428Z" fill="#C51A59"/>
<path d="M2.7429 15.5428H1.82861V16.4571H2.7429V15.5428Z" fill="#C51A59"/>
<path d="M3.65708 15.5428H2.7428V16.4571H3.65708V15.5428Z" fill="#C51A59"/>
<path d="M4.57139 15.5428H3.6571V16.4571H4.57139V15.5428Z" fill="#C51A59"/>
<path d="M5.4857 15.5428H4.57141V16.4571H5.4857V15.5428Z" fill="#C51A59"/>
<path d="M6.4 15.5428H5.48572V16.4571H6.4V15.5428Z" fill="#C51A59"/>
<path d="M18.2857 15.5428H17.3715V16.4571H18.2857V15.5428Z" fill="#E27A54"/>
<path d="M19.2001 15.5428H18.2858V16.4571H19.2001V15.5428Z" fill="#E27A54"/>
<path d="M20.1142 15.5428H19.2V16.4571H20.1142V15.5428Z" fill="#E27A54"/>
<path d="M21.0285 15.5428H20.1143V16.4571H21.0285V15.5428Z" fill="#E27A54"/>
<path d="M21.9429 15.5428H21.0286V16.4571H21.9429V15.5428Z" fill="#E27A54"/>
<path d="M22.8572 15.5428H21.9429V16.4571H22.8572V15.5428Z" fill="#E27A54"/>
<path d="M23.7715 15.5428H22.8572V16.4571H23.7715V15.5428Z" fill="#E27A54"/>
<path d="M26.5143 15.5428H25.6V16.4571H26.5143V15.5428Z" fill="#FB8C22"/>
<path d="M27.4286 15.5428H26.5143V16.4571H27.4286V15.5428Z" fill="#FB8C22"/>
<path d="M28.3429 15.5428H27.4286V16.4571H28.3429V15.5428Z" fill="#FB8C22"/>
<path d="M29.2572 15.5428H28.3429V16.4571H29.2572V15.5428Z" fill="#FB8C22"/>
<path d="M30.1715 15.5428H29.2572V16.4571H30.1715V15.5428Z" fill="#FB8C22"/>
<path d="M31.0857 15.5428H30.1714V16.4571H31.0857V15.5428Z" fill="#FB8C22"/>
<path d="M32 15.5428H31.0857V16.4571H32V15.5428Z" fill="#FB8C22"/>
<path d="M0.914286 16.4572H0V17.3714H0.914286V16.4572Z" fill="#C51A59"/>
<path d="M1.82859 16.4572H0.914307V17.3714H1.82859V16.4572Z" fill="#C51A59"/>
<path d="M2.7429 16.4572H1.82861V17.3714H2.7429V16.4572Z" fill="#C51A59"/>
<path d="M3.65708 16.4572H2.7428V17.3714H3.65708V16.4572Z" fill="#C51A59"/>
<path d="M4.57139 16.4572H3.6571V17.3714H4.57139V16.4572Z" fill="#C51A59"/>
<path d="M5.4857 16.4572H4.57141V17.3714H5.4857V16.4572Z" fill="#C51A59"/>
<path d="M6.4 16.4572H5.48572V17.3714H6.4V16.4572Z" fill="#C51A59"/>
<path d="M18.2857 16.4572H17.3715V17.3714H18.2857V16.4572Z" fill="#E27A54"/>
<path d="M19.2001 16.4572H18.2858V17.3714H19.2001V16.4572Z" fill="#E27A54"/>
<path d="M20.1142 16.4572H19.2V17.3714H20.1142V16.4572Z" fill="#E27A54"/>
<path d="M21.0285 16.4572H20.1143V17.3714H21.0285V16.4572Z" fill="#E27A54"/>
<path d="M21.9429 16.4572H21.0286V17.3714H21.9429V16.4572Z" fill="#E27A54"/>
<path d="M22.8572 16.4572H21.9429V17.3714H22.8572V16.4572Z" fill="#E27A54"/>
<path d="M23.7715 16.4572H22.8572V17.3714H23.7715V16.4572Z" fill="#E27A54"/>
<path d="M26.5143 16.4572H25.6V17.3714H26.5143V16.4572Z" fill="#FB8C22"/>
<path d="M27.4286 16.4572H26.5143V17.3714H27.4286V16.4572Z" fill="#FB8C22"/>
<path d="M28.3429 16.4572H27.4286V17.3714H28.3429V16.4572Z" fill="#FB8C22"/>
<path d="M29.2572 16.4572H28.3429V17.3714H29.2572V16.4572Z" fill="#FB8C22"/>
<path d="M30.1715 16.4572H29.2572V17.3714H30.1715V16.4572Z" fill="#FB8C22"/>
<path d="M31.0857 16.4572H30.1714V17.3714H31.0857V16.4572Z" fill="#FB8C22"/>
<path d="M32 16.4572H31.0857V17.3714H32V16.4572Z" fill="#FB8C22"/>
<path d="M0.914286 17.3714H0V18.2857H0.914286V17.3714Z" fill="white"/>
<path d="M1.82859 17.3714H0.914307V18.2857H1.82859V17.3714Z" fill="white"/>
<path d="M2.7429 17.3714H1.82861V18.2857H2.7429V17.3714Z" fill="white"/>
<path d="M3.65708 17.3714H2.7428V18.2857H3.65708V17.3714Z" fill="white"/>
<path d="M4.57139 17.3714H3.6571V18.2857H4.57139V17.3714Z" fill="white"/>
<path d="M5.4857 17.3714H4.57141V18.2857H5.4857V17.3714Z" fill="white"/>
<path d="M6.4 17.3714H5.48572V18.2857H6.4V17.3714Z" fill="white"/>
<path d="M18.2857 17.3714H17.3715V18.2857H18.2857V17.3714Z" fill="white"/>
<path d="M19.2001 17.3714H18.2858V18.2857H19.2001V17.3714Z" fill="white"/>
<path d="M20.1142 17.3714H19.2V18.2857H20.1142V17.3714Z" fill="white"/>
<path d="M21.0285 17.3714H20.1143V18.2857H21.0285V17.3714Z" fill="white"/>
<path d="M21.9429 17.3714H21.0286V18.2857H21.9429V17.3714Z" fill="white"/>
<path d="M22.8572 17.3714H21.9429V18.2857H22.8572V17.3714Z" fill="white"/>
<path d="M23.7715 17.3714H22.8572V18.2857H23.7715V17.3714Z" fill="white"/>
<path d="M26.5143 17.3714H25.6V18.2857H26.5143V17.3714Z" fill="white"/>
<path d="M27.4286 17.3714H26.5143V18.2857H27.4286V17.3714Z" fill="white"/>
<path d="M28.3429 17.3714H27.4286V18.2857H28.3429V17.3714Z" fill="white"/>
<path d="M29.2572 17.3714H28.3429V18.2857H29.2572V17.3714Z" fill="white"/>
<path d="M30.1715 17.3714H29.2572V18.2857H30.1715V17.3714Z" fill="white"/>
<path d="M31.0857 17.3714H30.1714V18.2857H31.0857V17.3714Z" fill="white"/>
<path d="M32 17.3714H31.0857V18.2857H32V17.3714Z" fill="white"/>
<path d="M0.914286 18.2857H0V19.2H0.914286V18.2857Z" fill="white"/>
<path d="M1.82859 18.2857H0.914307V19.2H1.82859V18.2857Z" fill="white"/>
<path d="M2.7429 18.2857H1.82861V19.2H2.7429V18.2857Z" fill="white"/>
<path d="M3.65708 18.2857H2.7428V19.2H3.65708V18.2857Z" fill="white"/>
<path d="M4.57139 18.2857H3.6571V19.2H4.57139V18.2857Z" fill="white"/>
<path d="M5.4857 18.2857H4.57141V19.2H5.4857V18.2857Z" fill="white"/>
<path d="M6.4 18.2857H5.48572V19.2H6.4V18.2857Z" fill="white"/>
<path d="M18.2857 18.2857H17.3715V19.2H18.2857V18.2857Z" fill="white"/>
<path d="M19.2001 18.2857H18.2858V19.2H19.2001V18.2857Z" fill="white"/>
<path d="M20.1142 18.2857H19.2V19.2H20.1142V18.2857Z" fill="white"/>
<path d="M21.0285 18.2857H20.1143V19.2H21.0285V18.2857Z" fill="white"/>
<path d="M21.9429 18.2857H21.0286V19.2H21.9429V18.2857Z" fill="white"/>
<path d="M22.8572 18.2857H21.9429V19.2H22.8572V18.2857Z" fill="white"/>
<path d="M23.7715 18.2857H22.8572V19.2H23.7715V18.2857Z" fill="white"/>
<path d="M26.5143 18.2857H25.6V19.2H26.5143V18.2857Z" fill="white"/>
<path d="M27.4286 18.2857H26.5143V19.2H27.4286V18.2857Z" fill="white"/>
<path d="M28.3429 18.2857H27.4286V19.2H28.3429V18.2857Z" fill="white"/>
<path d="M29.2572 18.2857H28.3429V19.2H29.2572V18.2857Z" fill="white"/>
<path d="M30.1715 18.2857H29.2572V19.2H30.1715V18.2857Z" fill="white"/>
<path d="M31.0857 18.2857H30.1714V19.2H31.0857V18.2857Z" fill="white"/>
<path d="M32 18.2857H31.0857V19.2H32V18.2857Z" fill="white"/>
<path d="M0.914286 19.2H0V20.1143H0.914286V19.2Z" fill="#464646"/>
<path d="M1.82859 19.2H0.914307V20.1143H1.82859V19.2Z" fill="white"/>
<path d="M2.7429 19.2H1.82861V20.1143H2.7429V19.2Z" fill="white"/>
<path d="M3.65708 19.2H2.7428V20.1143H3.65708V19.2Z" fill="white"/>
<path d="M4.57139 19.2H3.6571V20.1143H4.57139V19.2Z" fill="white"/>
<path d="M5.4857 19.2H4.57141V20.1143H5.4857V19.2Z" fill="white"/>
<path d="M6.4 19.2H5.48572V20.1143H6.4V19.2Z" fill="white"/>
<path d="M18.2857 19.2H17.3715V20.1143H18.2857V19.2Z" fill="#4C4C4C"/>
<path d="M19.2001 19.2H18.2858V20.1143H19.2001V19.2Z" fill="white"/>
<path d="M20.1142 19.2H19.2V20.1143H20.1142V19.2Z" fill="white"/>
<path d="M21.0285 19.2H20.1143V20.1143H21.0285V19.2Z" fill="#B6B6B6"/>
<path d="M21.9429 19.2H21.0286V20.1143H21.9429V19.2Z" fill="white"/>
<path d="M22.8572 19.2H21.9429V20.1143H22.8572V19.2Z" fill="white"/>
<path d="M23.7715 19.2H22.8572V20.1143H23.7715V19.2Z" fill="white"/>
<path d="M26.5143 19.2H25.6V20.1143H26.5143V19.2Z" fill="black"/>
<path d="M27.4286 19.2H26.5143V20.1143H27.4286V19.2Z" fill="white"/>
<path d="M28.3429 19.2H27.4286V20.1143H28.3429V19.2Z" fill="#C7C7C7"/>
<path d="M29.2572 19.2H28.3429V20.1143H29.2572V19.2Z" fill="white"/>
<path d="M30.1715 19.2H29.2572V20.1143H30.1715V19.2Z" fill="white"/>
<path d="M31.0857 19.2H30.1714V20.1143H31.0857V19.2Z" fill="white"/>
<path d="M32 19.2H31.0857V20.1143H32V19.2Z" fill="white"/>
<path d="M0.914286 22.8571H0V23.7714H0.914286V22.8571Z" fill="#F6B867"/>
<path d="M1.82859 22.8571H0.914307V23.7714H1.82859V22.8571Z" fill="#F6B867"/>
<path d="M2.7429 22.8571H1.82861V23.7714H2.7429V22.8571Z" fill="#F6B867"/>
<path d="M3.65708 22.8571H2.7428V23.7714H3.65708V22.8571Z" fill="#F6B867"/>
<path d="M4.57139 22.8571H3.6571V23.7714H4.57139V22.8571Z" fill="#F6B867"/>
<path d="M5.4857 22.8571H4.57141V23.7714H5.4857V22.8571Z" fill="#F6B867"/>
<path d="M6.4 22.8571H5.48572V23.7714H6.4V22.8571Z" fill="#F6B867"/>
<path d="M9.1428 22.8571H8.22852V23.7714H9.1428V22.8571Z" fill="#EF5726"/>
<path d="M10.0571 22.8571H9.14282V23.7714H10.0571V22.8571Z" fill="#EF5726"/>
<path d="M10.9714 22.8571H10.0571V23.7714H10.9714V22.8571Z" fill="#EF5726"/>
<path d="M11.8857 22.8571H10.9714V23.7714H11.8857V22.8571Z" fill="#EF5726"/>
<path d="M12.8 22.8571H11.8857V23.7714H12.8V22.8571Z" fill="#EF5726"/>
<path d="M13.7143 22.8571H12.8V23.7714H13.7143V22.8571Z" fill="#EF5726"/>
<path d="M14.6285 22.8571H13.7142V23.7714H14.6285V22.8571Z" fill="#EF5726"/>
<path d="M0.914286 23.7714H0V24.6857H0.914286V23.7714Z" fill="#F6B867"/>
<path d="M1.82859 23.7714H0.914307V24.6857H1.82859V23.7714Z" fill="#F6B867"/>
<path d="M2.7429 23.7714H1.82861V24.6857H2.7429V23.7714Z" fill="#F6B867"/>
<path d="M3.65708 23.7714H2.7428V24.6857H3.65708V23.7714Z" fill="#F6B867"/>
<path d="M4.57139 23.7714H3.6571V24.6857H4.57139V23.7714Z" fill="#F6B867"/>
<path d="M5.4857 23.7714H4.57141V24.6857H5.4857V23.7714Z" fill="#F6B867"/>
<path d="M6.4 23.7714H5.48572V24.6857H6.4V23.7714Z" fill="#F6B867"/>
<path d="M9.1428 23.7714H8.22852V24.6857H9.1428V23.7714Z" fill="#EF5726"/>
<path d="M10.0571 23.7714H9.14282V24.6857H10.0571V23.7714Z" fill="#EF5726"/>
<path d="M10.9714 23.7714H10.0571V24.6857H10.9714V23.7714Z" fill="#EF5726"/>
<path d="M11.8857 23.7714H10.9714V24.6857H11.8857V23.7714Z" fill="#EF5726"/>
<path d="M12.8 23.7714H11.8857V24.6857H12.8V23.7714Z" fill="#EF5726"/>
<path d="M13.7143 23.7714H12.8V24.6857H13.7143V23.7714Z" fill="#EF5726"/>
<path d="M14.6285 23.7714H13.7142V24.6857H14.6285V23.7714Z" fill="#EF5726"/>
<path d="M0.914286 24.6857H0V25.6H0.914286V24.6857Z" fill="#F6B867"/>
<path d="M1.82859 24.6857H0.914307V25.6H1.82859V24.6857Z" fill="#F6B867"/>
<path d="M2.7429 24.6857H1.82861V25.6H2.7429V24.6857Z" fill="#F6B867"/>
<path d="M3.65708 24.6857H2.7428V25.6H3.65708V24.6857Z" fill="#F6B867"/>
<path d="M4.57139 24.6857H3.6571V25.6H4.57139V24.6857Z" fill="#F6B867"/>
<path d="M5.4857 24.6857H4.57141V25.6H5.4857V24.6857Z" fill="#F6B867"/>
<path d="M6.4 24.6857H5.48572V25.6H6.4V24.6857Z" fill="#F6B867"/>
<path d="M9.1428 24.6857H8.22852V25.6H9.1428V24.6857Z" fill="#EF5726"/>
<path d="M10.0571 24.6857H9.14282V25.6H10.0571V24.6857Z" fill="#EF5726"/>
<path d="M10.9714 24.6857H10.0571V25.6H10.9714V24.6857Z" fill="#EF5726"/>
<path d="M11.8857 24.6857H10.9714V25.6H11.8857V24.6857Z" fill="#EF5726"/>
<path d="M12.8 24.6857H11.8857V25.6H12.8V24.6857Z" fill="#EF5726"/>
<path d="M13.7143 24.6857H12.8V25.6H13.7143V24.6857Z" fill="#EF5726"/>
<path d="M14.6285 24.6857H13.7142V25.6H14.6285V24.6857Z" fill="#EF5726"/>
<path d="M0.914286 25.6H0V26.5143H0.914286V25.6Z" fill="#F6B867"/>
<path d="M1.82859 25.6H0.914307V26.5143H1.82859V25.6Z" fill="#F6B867"/>
<path d="M2.7429 25.6H1.82861V26.5143H2.7429V25.6Z" fill="#F6B867"/>
<path d="M3.65708 25.6H2.7428V26.5143H3.65708V25.6Z" fill="#F6B867"/>
<path d="M4.57139 25.6H3.6571V26.5143H4.57139V25.6Z" fill="#F6B867"/>
<path d="M5.4857 25.6H4.57141V26.5143H5.4857V25.6Z" fill="#F6B867"/>
<path d="M6.4 25.6H5.48572V26.5143H6.4V25.6Z" fill="#F6B867"/>
<path d="M9.1428 25.6H8.22852V26.5143H9.1428V25.6Z" fill="#EF5726"/>
<path d="M10.0571 25.6H9.14282V26.5143H10.0571V25.6Z" fill="#EF5726"/>
<path d="M10.9714 25.6H10.0571V26.5143H10.9714V25.6Z" fill="#EF5726"/>
<path d="M11.8857 25.6H10.9714V26.5143H11.8857V25.6Z" fill="#EF5726"/>
<path d="M12.8 25.6H11.8857V26.5143H12.8V25.6Z" fill="#EF5726"/>
<path d="M13.7143 25.6H12.8V26.5143H13.7143V25.6Z" fill="#EF5726"/>
<path d="M14.6285 25.6H13.7142V26.5143H14.6285V25.6Z" fill="#EF5726"/>
<path d="M0.914286 26.5143H0V27.4286H0.914286V26.5143Z" fill="#F6B867"/>
<path d="M1.82859 26.5143H0.914307V27.4286H1.82859V26.5143Z" fill="#F6B867"/>
<path d="M2.7429 26.5143H1.82861V27.4286H2.7429V26.5143Z" fill="#F6B867"/>
<path d="M3.65708 26.5143H2.7428V27.4286H3.65708V26.5143Z" fill="#F6B867"/>
<path d="M4.57139 26.5143H3.6571V27.4286H4.57139V26.5143Z" fill="#F6B867"/>
<path d="M5.4857 26.5143H4.57141V27.4286H5.4857V26.5143Z" fill="#F6B867"/>
<path d="M6.4 26.5143H5.48572V27.4286H6.4V26.5143Z" fill="#F6B867"/>
<path d="M9.1428 26.5143H8.22852V27.4286H9.1428V26.5143Z" fill="#EF5726"/>
<path d="M10.0571 26.5143H9.14282V27.4286H10.0571V26.5143Z" fill="#EF5726"/>
<path d="M10.9714 26.5143H10.0571V27.4286H10.9714V26.5143Z" fill="#EF5726"/>
<path d="M11.8857 26.5143H10.9714V27.4286H11.8857V26.5143Z" fill="#EF5726"/>
<path d="M12.8 26.5143H11.8857V27.4286H12.8V26.5143Z" fill="#EF5726"/>
<path d="M13.7143 26.5143H12.8V27.4286H13.7143V26.5143Z" fill="#EF5726"/>
<path d="M14.6285 26.5143H13.7142V27.4286H14.6285V26.5143Z" fill="#EF5726"/>
<path d="M0.914286 27.4286H0V28.3428H0.914286V27.4286Z" fill="#F6B867"/>
<path d="M1.82859 27.4286H0.914307V28.3428H1.82859V27.4286Z" fill="#F6B867"/>
<path d="M2.7429 27.4286H1.82861V28.3428H2.7429V27.4286Z" fill="#F6B867"/>
<path d="M3.65708 27.4286H2.7428V28.3428H3.65708V27.4286Z" fill="#F6B867"/>
<path d="M4.57139 27.4286H3.6571V28.3428H4.57139V27.4286Z" fill="#F6B867"/>
<path d="M5.4857 27.4286H4.57141V28.3428H5.4857V27.4286Z" fill="#F6B867"/>
<path d="M6.4 27.4286H5.48572V28.3428H6.4V27.4286Z" fill="#F6B867"/>
<path d="M9.1428 27.4286H8.22852V28.3428H9.1428V27.4286Z" fill="#EF5726"/>
<path d="M10.0571 27.4286H9.14282V28.3428H10.0571V27.4286Z" fill="#EF5726"/>
<path d="M10.9714 27.4286H10.0571V28.3428H10.9714V27.4286Z" fill="#EF5726"/>
<path d="M11.8857 27.4286H10.9714V28.3428H11.8857V27.4286Z" fill="#EF5726"/>
<path d="M12.8 27.4286H11.8857V28.3428H12.8V27.4286Z" fill="#EF5726"/>
<path d="M13.7143 27.4286H12.8V28.3428H13.7143V27.4286Z" fill="#EF5726"/>
<path d="M14.6285 27.4286H13.7142V28.3428H14.6285V27.4286Z" fill="#EF5726"/>
<path d="M0.914286 28.3429H0V29.2572H0.914286V28.3429Z" fill="#F6B867"/>
<path d="M1.82859 28.3429H0.914307V29.2572H1.82859V28.3429Z" fill="#F6B867"/>
<path d="M2.7429 28.3429H1.82861V29.2572H2.7429V28.3429Z" fill="#F6B867"/>
<path d="M3.65708 28.3429H2.7428V29.2572H3.65708V28.3429Z" fill="#F6B867"/>
<path d="M4.57139 28.3429H3.6571V29.2572H4.57139V28.3429Z" fill="#F6B867"/>
<path d="M5.4857 28.3429H4.57141V29.2572H5.4857V28.3429Z" fill="#F6B867"/>
<path d="M6.4 28.3429H5.48572V29.2572H6.4V28.3429Z" fill="#F6B867"/>
<path d="M9.1428 28.3429H8.22852V29.2572H9.1428V28.3429Z" fill="#EF5726"/>
<path d="M10.0571 28.3429H9.14282V29.2572H10.0571V28.3429Z" fill="#EF5726"/>
<path d="M10.9714 28.3429H10.0571V29.2572H10.9714V28.3429Z" fill="#EF5726"/>
<path d="M11.8857 28.3429H10.9714V29.2572H11.8857V28.3429Z" fill="#EF5726"/>
<path d="M12.8 28.3429H11.8857V29.2572H12.8V28.3429Z" fill="#EF5726"/>
<path d="M13.7143 28.3429H12.8V29.2572H13.7143V28.3429Z" fill="#EF5726"/>
<path d="M14.6285 28.3429H13.7142V29.2572H14.6285V28.3429Z" fill="#EF5726"/>
<path d="M0.914286 29.2571H0V30.1714H0.914286V29.2571Z" fill="white"/>
<path d="M1.82859 29.2571H0.914307V30.1714H1.82859V29.2571Z" fill="#6C6C6C"/>
<path d="M2.7429 29.2571H1.82861V30.1714H2.7429V29.2571Z" fill="white"/>
<path d="M3.65708 29.2571H2.7428V30.1714H3.65708V29.2571Z" fill="#F7F7F7"/>
<path d="M4.57139 29.2571H3.6571V30.1714H4.57139V29.2571Z" fill="black"/>
<path d="M5.4857 29.2571H4.57141V30.1714H5.4857V29.2571Z" fill="black"/>
<path d="M6.4 29.2571H5.48572V30.1714H6.4V29.2571Z" fill="white"/>
<path d="M9.1428 29.2571H8.22852V30.1714H9.1428V29.2571Z" fill="white"/>
<path d="M10.0571 29.2571H9.14282V30.1714H10.0571V29.2571Z" fill="#F2F2F2"/>
<path d="M10.9714 29.2571H10.0571V30.1714H10.9714V29.2571Z" fill="#0C0C0C"/>
<path d="M11.8857 29.2571H10.9714V30.1714H11.8857V29.2571Z" fill="#545454"/>
<path d="M12.8 29.2571H11.8857V30.1714H12.8V29.2571Z" fill="white"/>
<path d="M13.7143 29.2571H12.8V30.1714H13.7143V29.2571Z" fill="white"/>
<path d="M14.6285 29.2571H13.7142V30.1714H14.6285V29.2571Z" fill="white"/>
<path d="M0.914286 30.1714H0V31.0857H0.914286V30.1714Z" fill="white"/>
<path d="M1.82859 30.1714H0.914307V31.0857H1.82859V30.1714Z" fill="white"/>
<path d="M2.7429 30.1714H1.82861V31.0857H2.7429V30.1714Z" fill="white"/>
<path d="M3.65708 30.1714H2.7428V31.0857H3.65708V30.1714Z" fill="#686868"/>
<path d="M4.57139 30.1714H3.6571V31.0857H4.57139V30.1714Z" fill="white"/>
<path d="M5.4857 30.1714H4.57141V31.0857H5.4857V30.1714Z" fill="white"/>
<path d="M6.4 30.1714H5.48572V31.0857H6.4V30.1714Z" fill="white"/>
<path d="M9.1428 30.1714H8.22852V31.0857H9.1428V30.1714Z" fill="white"/>
<path d="M10.0571 30.1714H9.14282V31.0857H10.0571V30.1714Z" fill="white"/>
<path d="M10.9714 30.1714H10.0571V31.0857H10.9714V30.1714Z" fill="white"/>
<path d="M11.8857 30.1714H10.9714V31.0857H11.8857V30.1714Z" fill="#D8D8D8"/>
<path d="M12.8 30.1714H11.8857V31.0857H12.8V30.1714Z" fill="white"/>
<path d="M13.7143 30.1714H12.8V31.0857H13.7143V30.1714Z" fill="white"/>
<path d="M14.6285 30.1714H13.7142V31.0857H14.6285V30.1714Z" fill="white"/>
<path d="M0.914286 31.0857H0V32H0.914286V31.0857Z" fill="white"/>
<path d="M1.82859 31.0857H0.914307V32H1.82859V31.0857Z" fill="white"/>
<path d="M2.7429 31.0857H1.82861V32H2.7429V31.0857Z" fill="white"/>
<path d="M3.65708 31.0857H2.7428V32H3.65708V31.0857Z" fill="white"/>
<path d="M4.57139 31.0857H3.6571V32H4.57139V31.0857Z" fill="white"/>
<path d="M5.4857 31.0857H4.57141V32H5.4857V31.0857Z" fill="white"/>
<path d="M6.4 31.0857H5.48572V32H6.4V31.0857Z" fill="white"/>
<path d="M9.1428 31.0857H8.22852V32H9.1428V31.0857Z" fill="white"/>
<path d="M10.0571 31.0857H9.14282V32H10.0571V31.0857Z" fill="white"/>
<path d="M10.9714 31.0857H10.0571V32H10.9714V31.0857Z" fill="white"/>
<path d="M11.8857 31.0857H10.9714V32H11.8857V31.0857Z" fill="white"/>
<path d="M12.8 31.0857H11.8857V32H12.8V31.0857Z" fill="white"/>
<path d="M13.7143 31.0857H12.8V32H13.7143V31.0857Z" fill="white"/>
<path d="M14.6285 31.0857H13.7142V32H14.6285V31.0857Z" fill="white"/>
<path d="M18.2857 22.8571H17.3715V23.7714H18.2857V22.8571Z" fill="#FAAC82"/>
<path d="M19.2001 22.8571H18.2858V23.7714H19.2001V22.8571Z" fill="#FAAC82"/>
<path d="M20.1142 22.8571H19.2V23.7714H20.1142V22.8571Z" fill="#FAAC82"/>
<path d="M21.0285 22.8571H20.1143V23.7714H21.0285V22.8571Z" fill="#FAAC82"/>
<path d="M21.9429 22.8571H21.0286V23.7714H21.9429V22.8571Z" fill="#FAAC82"/>
<path d="M22.8572 22.8571H21.9429V23.7714H22.8572V22.8571Z" fill="#FAAC82"/>
<path d="M23.7715 22.8571H22.8572V23.7714H23.7715V22.8571Z" fill="#FAAC82"/>
<path d="M18.2857 23.7714H17.3715V24.6857H18.2857V23.7714Z" fill="#FAAC82"/>
<path d="M19.2001 23.7714H18.2858V24.6857H19.2001V23.7714Z" fill="#FAAC82"/>
<path d="M20.1142 23.7714H19.2V24.6857H20.1142V23.7714Z" fill="#FAAC82"/>
<path d="M21.0285 23.7714H20.1143V24.6857H21.0285V23.7714Z" fill="#FAAC82"/>
<path d="M21.9429 23.7714H21.0286V24.6857H21.9429V23.7714Z" fill="#FAAC82"/>
<path d="M22.8572 23.7714H21.9429V24.6857H22.8572V23.7714Z" fill="#FAAC82"/>
<path d="M23.7715 23.7714H22.8572V24.6857H23.7715V23.7714Z" fill="#FAAC82"/>
<path d="M18.2857 24.6857H17.3715V25.6H18.2857V24.6857Z" fill="#FAAC82"/>
<path d="M19.2001 24.6857H18.2858V25.6H19.2001V24.6857Z" fill="#FAAC82"/>
<path d="M20.1142 24.6857H19.2V25.6H20.1142V24.6857Z" fill="#FAAC82"/>
<path d="M21.0285 24.6857H20.1143V25.6H21.0285V24.6857Z" fill="#FAAC82"/>
<path d="M21.9429 24.6857H21.0286V25.6H21.9429V24.6857Z" fill="#FAAC82"/>
<path d="M22.8572 24.6857H21.9429V25.6H22.8572V24.6857Z" fill="#FAAC82"/>
<path d="M23.7715 24.6857H22.8572V25.6H23.7715V24.6857Z" fill="#FAAC82"/>
<path d="M18.2857 25.6H17.3715V26.5143H18.2857V25.6Z" fill="#FAAC82"/>
<path d="M19.2001 25.6H18.2858V26.5143H19.2001V25.6Z" fill="#FAAC82"/>
<path d="M20.1142 25.6H19.2V26.5143H20.1142V25.6Z" fill="#FAAC82"/>
<path d="M21.0285 25.6H20.1143V26.5143H21.0285V25.6Z" fill="#FAAC82"/>
<path d="M21.9429 25.6H21.0286V26.5143H21.9429V25.6Z" fill="#FAAC82"/>
<path d="M22.8572 25.6H21.9429V26.5143H22.8572V25.6Z" fill="#FAAC82"/>
<path d="M23.7715 25.6H22.8572V26.5143H23.7715V25.6Z" fill="#FAAC82"/>
<path d="M18.2857 26.5143H17.3715V27.4286H18.2857V26.5143Z" fill="#FAAC82"/>
<path d="M19.2001 26.5143H18.2858V27.4286H19.2001V26.5143Z" fill="#FAAC82"/>
<path d="M20.1142 26.5143H19.2V27.4286H20.1142V26.5143Z" fill="#FAAC82"/>
<path d="M21.0285 26.5143H20.1143V27.4286H21.0285V26.5143Z" fill="#FAAC82"/>
<path d="M21.9429 26.5143H21.0286V27.4286H21.9429V26.5143Z" fill="#FAAC82"/>
<path d="M22.8572 26.5143H21.9429V27.4286H22.8572V26.5143Z" fill="#FAAC82"/>
<path d="M23.7715 26.5143H22.8572V27.4286H23.7715V26.5143Z" fill="#FAAC82"/>
<path d="M18.2857 27.4286H17.3715V28.3428H18.2857V27.4286Z" fill="#FAAC82"/>
<path d="M19.2001 27.4286H18.2858V28.3428H19.2001V27.4286Z" fill="#FAAC82"/>
<path d="M20.1142 27.4286H19.2V28.3428H20.1142V27.4286Z" fill="#FAAC82"/>
<path d="M21.0285 27.4286H20.1143V28.3428H21.0285V27.4286Z" fill="#FAAC82"/>
<path d="M21.9429 27.4286H21.0286V28.3428H21.9429V27.4286Z" fill="#FAAC82"/>
<path d="M22.8572 27.4286H21.9429V28.3428H22.8572V27.4286Z" fill="#FAAC82"/>
<path d="M23.7715 27.4286H22.8572V28.3428H23.7715V27.4286Z" fill="#FAAC82"/>
<path d="M18.2857 28.3429H17.3715V29.2572H18.2857V28.3429Z" fill="#FAAC82"/>
<path d="M19.2001 28.3429H18.2858V29.2572H19.2001V28.3429Z" fill="#FAAC82"/>
<path d="M20.1142 28.3429H19.2V29.2572H20.1142V28.3429Z" fill="#FAAC82"/>
<path d="M21.0285 28.3429H20.1143V29.2572H21.0285V28.3429Z" fill="#FAAC82"/>
<path d="M21.9429 28.3429H21.0286V29.2572H21.9429V28.3429Z" fill="#FAAC82"/>
<path d="M22.8572 28.3429H21.9429V29.2572H22.8572V28.3429Z" fill="#FAAC82"/>
<path d="M23.7715 28.3429H22.8572V29.2572H23.7715V28.3429Z" fill="#FAAC82"/>
<path d="M18.2857 29.2571H17.3715V30.1714H18.2857V29.2571Z" fill="#111111"/>
<path d="M19.2001 29.2571H18.2858V30.1714H19.2001V29.2571Z" fill="#A7A7A7"/>
<path d="M20.1142 29.2571H19.2V30.1714H20.1142V29.2571Z" fill="#F3F3F3"/>
<path d="M21.0285 29.2571H20.1143V30.1714H21.0285V29.2571Z" fill="#F9F9F9"/>
<path d="M21.9429 29.2571H21.0286V30.1714H21.9429V29.2571Z" fill="#FAFAFA"/>
<path d="M22.8572 29.2571H21.9429V30.1714H22.8572V29.2571Z" fill="white"/>
<path d="M23.7715 29.2571H22.8572V30.1714H23.7715V29.2571Z" fill="white"/>
<path d="M18.2857 30.1714H17.3715V31.0857H18.2857V30.1714Z" fill="#4C4C4C"/>
<path d="M19.2001 30.1714H18.2858V31.0857H19.2001V30.1714Z" fill="white"/>
<path d="M20.1142 30.1714H19.2V31.0857H20.1142V30.1714Z" fill="black"/>
<path d="M21.0285 30.1714H20.1143V31.0857H21.0285V30.1714Z" fill="white"/>
<path d="M21.9429 30.1714H21.0286V31.0857H21.9429V30.1714Z" fill="white"/>
<path d="M22.8572 30.1714H21.9429V31.0857H22.8572V30.1714Z" fill="white"/>
<path d="M23.7715 30.1714H22.8572V31.0857H23.7715V30.1714Z" fill="white"/>
<path d="M18.2857 31.0857H17.3715V32H18.2857V31.0857Z" fill="white"/>
<path d="M19.2001 31.0857H18.2858V32H19.2001V31.0857Z" fill="white"/>
<path d="M20.1142 31.0857H19.2V32H20.1142V31.0857Z" fill="white"/>
<path d="M21.0285 31.0857H20.1143V32H21.0285V31.0857Z" fill="white"/>
<path d="M21.9429 31.0857H21.0286V32H21.9429V31.0857Z" fill="white"/>
<path d="M22.8572 31.0857H21.9429V32H22.8572V31.0857Z" fill="white"/>
<path d="M23.7715 31.0857H22.8572V32H23.7715V31.0857Z" fill="white"/>
<path d="M26.5143 22.8571H25.6V23.7714H26.5143V22.8571Z" fill="#FDD550"/>
<path d="M27.4286 22.8571H26.5143V23.7714H27.4286V22.8571Z" fill="#FDD550"/>
<path d="M28.3429 22.8571H27.4286V23.7714H28.3429V22.8571Z" fill="#FDD550"/>
<path d="M29.2572 22.8571H28.3429V23.7714H29.2572V22.8571Z" fill="#FDD550"/>
<path d="M30.1715 22.8571H29.2572V23.7714H30.1715V22.8571Z" fill="#FDD550"/>
<path d="M31.0857 22.8571H30.1714V23.7714H31.0857V22.8571Z" fill="#FDD550"/>
<path d="M32 22.8571H31.0857V23.7714H32V22.8571Z" fill="#FDD550"/>
<path d="M26.5143 23.7714H25.6V24.6857H26.5143V23.7714Z" fill="#FDD550"/>
<path d="M27.4286 23.7714H26.5143V24.6857H27.4286V23.7714Z" fill="#FDD550"/>
<path d="M28.3429 23.7714H27.4286V24.6857H28.3429V23.7714Z" fill="#FDD550"/>
<path d="M29.2572 23.7714H28.3429V24.6857H29.2572V23.7714Z" fill="#FDD550"/>
<path d="M30.1715 23.7714H29.2572V24.6857H30.1715V23.7714Z" fill="#FDD550"/>
<path d="M31.0857 23.7714H30.1714V24.6857H31.0857V23.7714Z" fill="#FDD550"/>
<path d="M32 23.7714H31.0857V24.6857H32V23.7714Z" fill="#FDD550"/>
<path d="M26.5143 24.6857H25.6V25.6H26.5143V24.6857Z" fill="#FDD550"/>
<path d="M27.4286 24.6857H26.5143V25.6H27.4286V24.6857Z" fill="#FDD550"/>
<path d="M28.3429 24.6857H27.4286V25.6H28.3429V24.6857Z" fill="#FDD550"/>
<path d="M29.2572 24.6857H28.3429V25.6H29.2572V24.6857Z" fill="#FDD550"/>
<path d="M30.1715 24.6857H29.2572V25.6H30.1715V24.6857Z" fill="#FDD550"/>
<path d="M31.0857 24.6857H30.1714V25.6H31.0857V24.6857Z" fill="#FDD550"/>
<path d="M32 24.6857H31.0857V25.6H32V24.6857Z" fill="#FDD550"/>
<path d="M26.5143 25.6H25.6V26.5143H26.5143V25.6Z" fill="#FDD550"/>
<path d="M27.4286 25.6H26.5143V26.5143H27.4286V25.6Z" fill="#FDD550"/>
<path d="M28.3429 25.6H27.4286V26.5143H28.3429V25.6Z" fill="#FDD550"/>
<path d="M29.2572 25.6H28.3429V26.5143H29.2572V25.6Z" fill="#FDD550"/>
<path d="M30.1715 25.6H29.2572V26.5143H30.1715V25.6Z" fill="#FDD550"/>
<path d="M31.0857 25.6H30.1714V26.5143H31.0857V25.6Z" fill="#FDD550"/>
<path d="M32 25.6H31.0857V26.5143H32V25.6Z" fill="#FDD550"/>
<path d="M26.5143 26.5143H25.6V27.4286H26.5143V26.5143Z" fill="#FDD550"/>
<path d="M27.4286 26.5143H26.5143V27.4286H27.4286V26.5143Z" fill="#FDD550"/>
<path d="M28.3429 26.5143H27.4286V27.4286H28.3429V26.5143Z" fill="#FDD550"/>
<path d="M29.2572 26.5143H28.3429V27.4286H29.2572V26.5143Z" fill="#FDD550"/>
<path d="M30.1715 26.5143H29.2572V27.4286H30.1715V26.5143Z" fill="#FDD550"/>
<path d="M31.0857 26.5143H30.1714V27.4286H31.0857V26.5143Z" fill="#FDD550"/>
<path d="M32 26.5143H31.0857V27.4286H32V26.5143Z" fill="#FDD550"/>
<path d="M26.5143 27.4286H25.6V28.3428H26.5143V27.4286Z" fill="#FDD550"/>
<path d="M27.4286 27.4286H26.5143V28.3428H27.4286V27.4286Z" fill="#FDD550"/>
<path d="M28.3429 27.4286H27.4286V28.3428H28.3429V27.4286Z" fill="#FDD550"/>
<path d="M29.2572 27.4286H28.3429V28.3428H29.2572V27.4286Z" fill="#FDD550"/>
<path d="M30.1715 27.4286H29.2572V28.3428H30.1715V27.4286Z" fill="#FDD550"/>
<path d="M31.0857 27.4286H30.1714V28.3428H31.0857V27.4286Z" fill="#FDD550"/>
<path d="M32 27.4286H31.0857V28.3428H32V27.4286Z" fill="#FDD550"/>
<path d="M26.5143 28.3429H25.6V29.2572H26.5143V28.3429Z" fill="#FDD550"/>
<path d="M27.4286 28.3429H26.5143V29.2572H27.4286V28.3429Z" fill="#FDD550"/>
<path d="M28.3429 28.3429H27.4286V29.2572H28.3429V28.3429Z" fill="#FDD550"/>
<path d="M29.2572 28.3429H28.3429V29.2572H29.2572V28.3429Z" fill="#FDD550"/>
<path d="M30.1715 28.3429H29.2572V29.2572H30.1715V28.3429Z" fill="#FDD550"/>
<path d="M31.0857 28.3429H30.1714V29.2572H31.0857V28.3429Z" fill="#FDD550"/>
<path d="M32 28.3429H31.0857V29.2572H32V28.3429Z" fill="#FDD550"/>
<path d="M26.5143 29.2571H25.6V30.1714H26.5143V29.2571Z" fill="white"/>
<path d="M27.4286 29.2571H26.5143V30.1714H27.4286V29.2571Z" fill="white"/>
<path d="M28.3429 29.2571H27.4286V30.1714H28.3429V29.2571Z" fill="white"/>
<path d="M29.2572 29.2571H28.3429V30.1714H29.2572V29.2571Z" fill="black"/>
<path d="M30.1715 29.2571H29.2572V30.1714H30.1715V29.2571Z" fill="white"/>
<path d="M31.0857 29.2571H30.1714V30.1714H31.0857V29.2571Z" fill="#8B8B8B"/>
<path d="M32 29.2571H31.0857V30.1714H32V29.2571Z" fill="white"/>
<path d="M26.5143 30.1714H25.6V31.0857H26.5143V30.1714Z" fill="#ECECEC"/>
<path d="M27.4286 30.1714H26.5143V31.0857H27.4286V30.1714Z" fill="#D5D5D5"/>
<path d="M28.3429 30.1714H27.4286V31.0857H28.3429V30.1714Z" fill="#B9B9B9"/>
<path d="M29.2572 30.1714H28.3429V31.0857H29.2572V30.1714Z" fill="black"/>
<path d="M30.1715 30.1714H29.2572V31.0857H30.1715V30.1714Z" fill="white"/>
<path d="M31.0857 30.1714H30.1714V31.0857H31.0857V30.1714Z" fill="white"/>
<path d="M32 30.1714H31.0857V31.0857H32V30.1714Z" fill="white"/>
<path d="M26.5143 31.0857H25.6V32H26.5143V31.0857Z" fill="white"/>
<path d="M27.4286 31.0857H26.5143V32H27.4286V31.0857Z" fill="white"/>
<path d="M28.3429 31.0857H27.4286V32H28.3429V31.0857Z" fill="white"/>
<path d="M29.2572 31.0857H28.3429V32H29.2572V31.0857Z" fill="white"/>
<path d="M30.1715 31.0857H29.2572V32H30.1715V31.0857Z" fill="white"/>
<path d="M31.0857 31.0857H30.1714V32H31.0857V31.0857Z" fill="white"/>
<path d="M32 31.0857H31.0857V32H32V31.0857Z" fill="white"/>
<path d="M10.0571 10.9714H9.14282V11.8857H10.0571V10.9714Z" fill="#C86B3C"/>
<path d="M10.9714 10.9714H10.0571V11.8857H10.9714V10.9714Z" fill="#C86B3C"/>
<path d="M11.8857 10.9714H10.9714V11.8857H11.8857V10.9714Z" fill="#C86B3C"/>
<path d="M12.8 10.9714H11.8857V11.8857H12.8V10.9714Z" fill="#C86B3C"/>
<path d="M13.7143 10.9714H12.8V11.8857H13.7143V10.9714Z" fill="#C86B3C"/>
<path d="M14.6285 10.9714H13.7142V11.8857H14.6285V10.9714Z" fill="#C86B3C"/>
<path d="M15.5428 10.9714H14.6285V11.8857H15.5428V10.9714Z" fill="#C86B3C"/>
<path d="M10.0571 11.8857H9.14282V12.8H10.0571V11.8857Z" fill="#C86B3C"/>
<path d="M10.9714 11.8857H10.0571V12.8H10.9714V11.8857Z" fill="#C86B3C"/>
<path d="M11.8857 11.8857H10.9714V12.8H11.8857V11.8857Z" fill="#C86B3C"/>
<path d="M12.8 11.8857H11.8857V12.8H12.8V11.8857Z" fill="#C86B3C"/>
<path d="M13.7143 11.8857H12.8V12.8H13.7143V11.8857Z" fill="#C86B3C"/>
<path d="M14.6285 11.8857H13.7142V12.8H14.6285V11.8857Z" fill="#C86B3C"/>
<path d="M15.5428 11.8857H14.6285V12.8H15.5428V11.8857Z" fill="#C86B3C"/>
<path d="M10.0571 12.8H9.14282V13.7143H10.0571V12.8Z" fill="#C86B3C"/>
<path d="M10.9714 12.8H10.0571V13.7143H10.9714V12.8Z" fill="#C86B3C"/>
<path d="M11.8857 12.8H10.9714V13.7143H11.8857V12.8Z" fill="#C86B3C"/>
<path d="M12.8 12.8H11.8857V13.7143H12.8V12.8Z" fill="#C86B3C"/>
<path d="M13.7143 12.8H12.8V13.7143H13.7143V12.8Z" fill="#C86B3C"/>
<path d="M14.6285 12.8H13.7142V13.7143H14.6285V12.8Z" fill="#C86B3C"/>
<path d="M15.5428 12.8H14.6285V13.7143H15.5428V12.8Z" fill="#C86B3C"/>
<path d="M10.0571 13.7143H9.14282V14.6286H10.0571V13.7143Z" fill="#C86B3C"/>
<path d="M10.9714 13.7143H10.0571V14.6286H10.9714V13.7143Z" fill="#C86B3C"/>
<path d="M11.8857 13.7143H10.9714V14.6286H11.8857V13.7143Z" fill="#C86B3C"/>
<path d="M12.8 13.7143H11.8857V14.6286H12.8V13.7143Z" fill="#C86B3C"/>
<path d="M13.7143 13.7143H12.8V14.6286H13.7143V13.7143Z" fill="#C86B3C"/>
<path d="M14.6285 13.7143H13.7142V14.6286H14.6285V13.7143Z" fill="#C86B3C"/>
<path d="M15.5428 13.7143H14.6285V14.6286H15.5428V13.7143Z" fill="#C86B3C"/>
<path d="M10.0571 14.6286H9.14282V15.5429H10.0571V14.6286Z" fill="#C86B3C"/>
<path d="M10.9714 14.6286H10.0571V15.5429H10.9714V14.6286Z" fill="#C86B3C"/>
<path d="M11.8857 14.6286H10.9714V15.5429H11.8857V14.6286Z" fill="#C86B3C"/>
<path d="M12.8 14.6286H11.8857V15.5429H12.8V14.6286Z" fill="#C86B3C"/>
<path d="M13.7143 14.6286H12.8V15.5429H13.7143V14.6286Z" fill="#C86B3C"/>
<path d="M14.6285 14.6286H13.7142V15.5429H14.6285V14.6286Z" fill="#C86B3C"/>
<path d="M15.5428 14.6286H14.6285V15.5429H15.5428V14.6286Z" fill="#C86B3C"/>
<path d="M10.0571 15.5428H9.14282V16.4571H10.0571V15.5428Z" fill="#C86B3C"/>
<path d="M10.9714 15.5428H10.0571V16.4571H10.9714V15.5428Z" fill="#C86B3C"/>
<path d="M11.8857 15.5428H10.9714V16.4571H11.8857V15.5428Z" fill="#C86B3C"/>
<path d="M12.8 15.5428H11.8857V16.4571H12.8V15.5428Z" fill="#C86B3C"/>
<path d="M13.7143 15.5428H12.8V16.4571H13.7143V15.5428Z" fill="#C86B3C"/>
<path d="M14.6285 15.5428H13.7142V16.4571H14.6285V15.5428Z" fill="#C86B3C"/>
<path d="M15.5428 15.5428H14.6285V16.4571H15.5428V15.5428Z" fill="#C86B3C"/>
<path d="M10.0571 16.4572H9.14282V17.3714H10.0571V16.4572Z" fill="#C86B3C"/>
<path d="M10.9714 16.4572H10.0571V17.3714H10.9714V16.4572Z" fill="#C86B3C"/>
<path d="M11.8857 16.4572H10.9714V17.3714H11.8857V16.4572Z" fill="#C86B3C"/>
<path d="M12.8 16.4572H11.8857V17.3714H12.8V16.4572Z" fill="#C86B3C"/>
<path d="M13.7143 16.4572H12.8V17.3714H13.7143V16.4572Z" fill="#C86B3C"/>
<path d="M14.6285 16.4572H13.7142V17.3714H14.6285V16.4572Z" fill="#C86B3C"/>
<path d="M15.5428 16.4572H14.6285V17.3714H15.5428V16.4572Z" fill="#C86B3C"/>
<path d="M10.0571 17.3714H9.14282V18.2857H10.0571V17.3714Z" fill="white"/>
<path d="M10.9714 17.3714H10.0571V18.2857H10.9714V17.3714Z" fill="black"/>
<path d="M11.8857 17.3714H10.9714V18.2857H11.8857V17.3714Z" fill="#090909"/>
<path d="M12.8 17.3714H11.8857V18.2857H12.8V17.3714Z" fill="white"/>
<path d="M13.7143 17.3714H12.8V18.2857H13.7143V17.3714Z" fill="white"/>
<path d="M14.6285 17.3714H13.7142V18.2857H14.6285V17.3714Z" fill="#2D2D2D"/>
<path d="M15.5428 17.3714H14.6285V18.2857H15.5428V17.3714Z" fill="white"/>
<path d="M10.0571 18.2857H9.14282V19.2H10.0571V18.2857Z" fill="white"/>
<path d="M10.9714 18.2857H10.0571V19.2H10.9714V18.2857Z" fill="white"/>
<path d="M11.8857 18.2857H10.9714V19.2H11.8857V18.2857Z" fill="white"/>
<path d="M12.8 18.2857H11.8857V19.2H12.8V18.2857Z" fill="white"/>
<path d="M13.7143 18.2857H12.8V19.2H13.7143V18.2857Z" fill="white"/>
<path d="M14.6285 18.2857H13.7142V19.2H14.6285V18.2857Z" fill="white"/>
<path d="M15.5428 18.2857H14.6285V19.2H15.5428V18.2857Z" fill="white"/>
<path d="M10.0571 19.2H9.14282V20.1143H10.0571V19.2Z" fill="white"/>
<path d="M10.9714 19.2H10.0571V20.1143H10.9714V19.2Z" fill="white"/>
<path d="M11.8857 19.2H10.9714V20.1143H11.8857V19.2Z" fill="white"/>
<path d="M12.8 19.2H11.8857V20.1143H12.8V19.2Z" fill="white"/>
<path d="M13.7143 19.2H12.8V20.1143H13.7143V19.2Z" fill="white"/>
<path d="M14.6285 19.2H13.7142V20.1143H14.6285V19.2Z" fill="white"/>
<path d="M15.5428 19.2H14.6285V20.1143H15.5428V19.2Z" fill="white"/>
</svg>
