<svg width="24" height="24" viewBox="0 0 24 24" fill="none" xmlns="http://www.w3.org/2000/svg">
<path fill-rule="evenodd" clip-rule="evenodd" d="M16.2253 4.12308L12.5273 10.4601L10.6172 11.5964C10.5969 11.5597 10.5684 11.5312 10.5317 11.5068L7.18402 9.55596C7.06592 9.48673 6.91522 9.52746 6.85006 9.64556L5.23731 12.4068C5.20472 12.4638 5.19658 12.529 5.21287 12.5941C5.22916 12.6552 5.26988 12.7082 5.3269 12.7408L7.03333 13.7345L6.28397 14.1825L4.94 13.4005C4.88298 13.3679 4.81782 13.3598 4.75673 13.3761C4.71601 13.3842 4.67936 13.4087 4.64677 13.4372C4.63048 13.4535 4.61691 13.4698 4.60605 13.486L3.0951 16.0844L1.61673 16.9641C1.5475 17.0048 1.47012 17.0537 1.38867 17.1107L10.8087 0.962715C10.9349 0.742793 11.1711 0.608398 11.4236 0.608398C11.5499 0.608398 11.6721 0.64098 11.782 0.706143L15.9687 3.14565C16.3067 3.34521 16.4207 3.78098 16.2253 4.12308ZM12.7717 7.66219L9.42397 5.7114C9.36695 5.67882 9.30179 5.67067 9.2407 5.68696C9.17554 5.70325 9.12259 5.74398 9.09001 5.801L7.47725 8.56224C7.41209 8.68035 7.44874 8.83103 7.56685 8.8962L10.9145 10.8511C10.9512 10.8714 10.996 10.8836 11.0367 10.8836C11.0584 10.8836 11.0788 10.8809 11.0978 10.8755C11.163 10.8592 11.2159 10.8185 11.2485 10.7615L12.8572 7.99615C12.9264 7.88211 12.8898 7.73142 12.7717 7.66219ZM15.1256 3.96832C15.1094 3.90723 15.0686 3.85428 15.0116 3.8217L11.668 1.86684C11.5499 1.80168 11.3992 1.83833 11.33 1.95644L9.72126 4.71768C9.68868 4.7747 9.67647 4.83986 9.69683 4.90502C9.71312 4.96611 9.75385 5.01905 9.80679 5.05163L13.1545 7.0065C13.1911 7.02686 13.2359 7.03908 13.2767 7.03908C13.3663 7.03908 13.4477 6.99021 13.4884 6.9169L15.1012 4.15566C15.1338 4.09864 15.1419 4.03348 15.1256 3.96832Z" fill="#DCDCDC"/>
<path fill-rule="evenodd" clip-rule="evenodd" d="M22.7089 12.0198C22.6641 12.2031 22.5459 12.3578 22.383 12.4556L16.2089 16.1372L15.3293 16.6626H13.464L13.7409 16.4956C13.855 16.4304 13.8916 16.2798 13.8224 16.1617L11.839 12.8343C11.7983 12.761 11.725 12.7203 11.6394 12.7162C11.5946 12.7121 11.5458 12.7244 11.505 12.7488L8.75602 14.386C8.74516 14.3941 8.73566 14.4023 8.72752 14.4104C8.68679 14.443 8.65828 14.4878 8.64606 14.5367C8.63792 14.572 8.63656 14.6073 8.64199 14.6426C8.65013 14.6724 8.661 14.6982 8.67457 14.7199L9.8312 16.6626H8.94337L8.01888 15.1109C7.9863 15.058 7.93335 15.0172 7.86819 15.001C7.8071 14.9847 7.73786 14.9928 7.68492 15.0295L4.93997 16.6626H3.1358C3.11679 16.6626 3.09643 16.6626 3.07471 16.6626L19.1738 7.06747C19.2838 7.00231 19.41 6.96973 19.5363 6.96973C19.7888 6.96973 20.025 7.10005 20.1512 7.3159L22.6315 11.4781C22.7292 11.641 22.7577 11.8324 22.7089 12.0198ZM17.6466 13.8851L15.6632 10.5577C15.6306 10.5007 15.5777 10.46 15.5125 10.4437C15.4514 10.4274 15.3822 10.4396 15.3293 10.4722L12.5802 12.1094C12.5232 12.142 12.4865 12.1949 12.4703 12.2601C12.454 12.3212 12.4621 12.3863 12.4947 12.4433L14.4781 15.7707C14.5229 15.844 14.6043 15.8929 14.6898 15.8929C14.7346 15.8929 14.7754 15.8806 14.8161 15.8562L17.561 14.219C17.6181 14.1864 17.6588 14.1335 17.6751 14.0683C17.6914 14.0072 17.6792 13.9421 17.6466 13.8851ZM21.4708 11.6044L19.4874 8.27704C19.4182 8.16301 19.2675 8.12228 19.1494 8.19152L16.4044 9.82871C16.3474 9.86537 16.3067 9.91831 16.2904 9.9794C16.2741 10.0446 16.2863 10.1097 16.3189 10.1667L18.3023 13.4941C18.3349 13.5511 18.3878 13.5877 18.453 13.604C18.472 13.6095 18.491 13.6122 18.51 13.6122C18.5548 13.6122 18.5996 13.6 18.6362 13.5796L21.3852 11.9424C21.4423 11.9058 21.4789 11.8528 21.4952 11.7917C21.5115 11.7266 21.5033 11.6614 21.4708 11.6044Z" fill="#DCDCDC"/>
<path fill-rule="evenodd" clip-rule="evenodd" d="M24 17.8641V22.7105C24 23.1015 23.6783 23.4232 23.2832 23.4232H3.13592C2.73681 23.4232 2.34583 23.3458 1.97522 23.1992C1.61683 23.0567 1.2951 22.8531 1.01001 22.5924C0.631259 22.2381 0.342099 21.7942 0.171048 21.3054C0.154758 21.2593 0.141182 21.2145 0.130322 21.1711C0.0447969 20.8819 0 20.5846 0 20.2873C0 20.2262 0.00407064 20.157 0.00814327 20.0796L0.0122199 20.0552C0.0244378 19.876 0.0529462 19.7008 0.0936724 19.5339C0.195488 19.1266 0.370607 18.7519 0.619037 18.418C0.627183 18.4098 0.63397 18.4017 0.639401 18.3935L0.651621 18.3772C0.920414 18.027 1.26251 17.7338 1.64941 17.5261C2.10148 17.2817 2.6187 17.1514 3.13592 17.1514H23.2832C23.6783 17.1514 24 17.469 24 17.8641ZM3.75904 20.2629C3.75904 19.9452 3.6165 19.652 3.36399 19.4565C3.35856 19.451 3.35178 19.4456 3.34363 19.4402C3.24182 19.3628 3.12778 19.3099 3.00152 19.2732C2.98252 19.2678 2.96216 19.2637 2.94044 19.261C2.81826 19.2366 2.68794 19.2325 2.55761 19.2569C2.52775 19.2596 2.49788 19.2664 2.46802 19.2773C2.4653 19.2773 2.46394 19.2773 2.46394 19.2773C2.02002 19.3954 1.7105 19.8026 1.7105 20.2629C1.7105 20.7231 2.02002 21.1263 2.46394 21.2484L2.4843 21.1711L2.46802 21.2525H2.47208C2.55761 21.2769 2.64721 21.2892 2.7368 21.2892C2.79382 21.2892 2.8522 21.2837 2.91193 21.2729L2.92007 21.2688C2.9255 21.2688 2.93229 21.2674 2.94044 21.2647C3.06669 21.2403 3.1848 21.1914 3.29476 21.1222C3.31105 21.11 3.32734 21.0977 3.34363 21.0855C3.60428 20.8941 3.75904 20.5846 3.75904 20.2629ZM9.58697 18.3487C9.58697 18.2388 9.50959 18.141 9.39963 18.1125C9.37791 18.1071 9.35891 18.1044 9.34261 18.1044H6.14153C6.09265 18.1044 6.04379 18.1207 6.00306 18.1492C6.00034 18.1492 5.99762 18.1505 5.99491 18.1532C5.93382 18.2021 5.89717 18.2713 5.89717 18.3487V22.2259C5.89717 22.2707 5.90938 22.3155 5.93382 22.3521C5.93653 22.3548 5.93789 22.3562 5.93789 22.3562C5.98269 22.4254 6.06007 22.4702 6.14153 22.4702H9.34261C9.47701 22.4702 9.58697 22.3603 9.58697 22.2259V18.3487ZM14.0343 18.3487C14.0343 18.2103 13.9243 18.1044 13.7899 18.1044H10.5929C10.4585 18.1044 10.3486 18.2103 10.3486 18.3487V22.2218C10.3486 22.3562 10.4585 22.4661 10.5929 22.4661H13.7899C13.9243 22.4661 14.0343 22.3562 14.0343 22.2218V18.3487ZM18.4857 18.3487C18.4857 18.2143 18.3757 18.1044 18.2413 18.1044H15.0402C14.9058 18.1044 14.7959 18.2143 14.7959 18.3487V22.2218C14.7959 22.3562 14.9058 22.4661 15.0402 22.4661H18.2413C18.3757 22.4661 18.4857 22.3562 18.4857 22.2218V18.3487ZM22.933 18.3487C22.933 18.2143 22.8271 18.1044 22.6886 18.1044H19.4916C19.3572 18.1044 19.2472 18.2143 19.2472 18.3487V22.2259C19.2472 22.3603 19.3572 22.4702 19.4916 22.4702H22.6886C22.8271 22.4702 22.933 22.3603 22.933 22.2259V18.3487Z" fill="#DCDCDC"/>
<path d="M7.51 13.4493L9.96987 11.9872L10.0717 11.808L7.14753 10.1016L5.7832 12.4433L7.51 13.4493Z" fill="#9F5130"/>
<path d="M7.51 13.4493L9.96987 11.9872L10.0717 11.808L7.14753 10.1016L5.7832 12.4433L7.51 13.4493Z" fill="#CE879F" fill-opacity="0.32"/>
<path d="M5.03399 14.0196L4.90774 13.9463L3.96289 15.5672L5.80372 14.4676L5.03399 14.0196Z" fill="#9F5130"/>
<path d="M5.03399 14.0196L4.90774 13.9463L3.96289 15.5672L5.80372 14.4676L5.03399 14.0196Z" fill="#CE879F" fill-opacity="0.11"/>
<path d="M14.5556 4.11951L13.1912 6.46127L10.2671 4.75485L11.6314 2.41309L14.5556 4.11951Z" fill="#9F5130"/>
<path d="M14.5556 4.11951L13.1912 6.46127L10.2671 4.75485L11.6314 2.41309L14.5556 4.11951Z" fill="#CE879F" fill-opacity="0.79"/>
<path d="M12.3155 7.96424L10.9471 10.306L8.02295 8.59957L9.39136 6.25781L12.3155 7.96424Z" fill="#9F5130"/>
<path d="M12.3155 7.96424L10.9471 10.306L8.02295 8.59957L9.39136 6.25781L12.3155 7.96424Z" fill="#CE879F" fill-opacity="0.58"/>
<path d="M9.22021 14.6837L10.3972 16.663H12.5109L13.2806 16.2028L11.5457 13.2949L9.22021 14.6837Z" fill="#9C1F64"/>
<path d="M9.22021 14.6837L10.3972 16.663H12.5109L13.2806 16.2028L11.5457 13.2949L9.22021 14.6837Z" fill="#DF3F32" fill-opacity="0.32"/>
<path d="M5.89697 16.6628H8.37313L7.92107 15.9052L7.72558 15.5713L5.89697 16.6628Z" fill="#9C1F64"/>
<path d="M5.89697 16.6628H8.37313L7.92107 15.9052L7.72558 15.5713L5.89697 16.6628Z" fill="#DF3F32" fill-opacity="0.11"/>
<path d="M20.9252 11.6452L18.5956 13.0339L16.8647 10.1261L19.1902 8.7373L20.9252 11.6452Z" fill="#9C1F64"/>
<path d="M20.9252 11.6452L18.5956 13.0339L16.8647 10.1261L19.1902 8.7373L20.9252 11.6452Z" fill="#DF3F32" fill-opacity="0.9"/>
<path d="M17.1009 13.9264L14.7755 15.3111L13.0405 12.4032L15.3701 11.0186L17.1009 13.9264Z" fill="#9C1F64"/>
<path d="M17.1009 13.9264L14.7755 15.3111L13.0405 12.4032L15.3701 11.0186L17.1009 13.9264Z" fill="#DF3F32" fill-opacity="0.58"/>
<path d="M13.5457 18.5938V21.9822H10.8374V18.5938H13.5457Z" fill="#F3ED8C"/>
<path d="M13.5457 18.5938V21.9822H10.8374V18.5938H13.5457Z" fill="#E76D2D" fill-opacity="0.32"/>
<path d="M9.09812 18.5938V21.9822H6.38574V18.5938H9.09812Z" fill="#F3ED8C"/>
<path d="M9.09812 18.5938V21.9822H6.38574V18.5938H9.09812Z" fill="#E76D2D" fill-opacity="0.11"/>
<path d="M22.4441 18.5938V21.9822H19.7358V18.5938H22.4441Z" fill="#F3ED8C"/>
<path d="M22.4441 18.5938V21.9822H19.7358V18.5938H22.4441Z" fill="#E76D2D" fill-opacity="0.79"/>
<path d="M17.997 18.5938V21.9822H15.2847V18.5938H17.997Z" fill="#F3ED8C"/>
<path d="M17.997 18.5938V21.9822H15.2847V18.5938H17.997Z" fill="#E76D2D" fill-opacity="0.58"/>
</svg>
