<svg width="32" height="29" viewBox="0 0 32 29" fill="none" xmlns="http://www.w3.org/2000/svg">
<path d="M1.23077 0H0V1.23077H1.23077V0Z" fill="#C51A59"/>
<path d="M2.46154 0H1.23077V1.23077H2.46154V0Z" fill="#C51A59"/>
<path d="M3.69231 0H2.46154V1.23077H3.69231V0Z" fill="#C51A59"/>
<path d="M4.92308 0H3.69231V1.23077H4.92308V0Z" fill="#C51A59"/>
<path d="M6.15385 0H4.92308V1.23077H6.15385V0Z" fill="#C51A59"/>
<path d="M7.38462 0H6.15385V1.23077H7.38462V0Z" fill="#C51A59"/>
<path d="M8.61539 0H7.38462V1.23077H8.61539V0Z" fill="#C51A59"/>
<path d="M24.6154 0H23.3846V1.23077H24.6154V0Z" fill="#E27A54"/>
<path d="M25.8462 0H24.6154V1.23077H25.8462V0Z" fill="#E27A54"/>
<path d="M27.0769 0H25.8462V1.23077H27.0769V0Z" fill="#E27A54"/>
<path d="M28.3077 0H27.0769V1.23077H28.3077V0Z" fill="#E27A54"/>
<path d="M29.5385 0H28.3077V1.23077H29.5385V0Z" fill="#E27A54"/>
<path d="M30.7692 0H29.5385V1.23077H30.7692V0Z" fill="#E27A54"/>
<path d="M32 0H30.7692V1.23077H32V0Z" fill="#E27A54"/>
<path d="M1.23077 1.23077H0V2.46154H1.23077V1.23077Z" fill="#C51A59"/>
<path d="M2.46154 1.23077H1.23077V2.46154H2.46154V1.23077Z" fill="#C51A59"/>
<path d="M3.69231 1.23077H2.46154V2.46154H3.69231V1.23077Z" fill="#C51A59"/>
<path d="M4.92308 1.23077H3.69231V2.46154H4.92308V1.23077Z" fill="#C51A59"/>
<path d="M6.15385 1.23077H4.92308V2.46154H6.15385V1.23077Z" fill="#C51A59"/>
<path d="M7.38462 1.23077H6.15385V2.46154H7.38462V1.23077Z" fill="#C51A59"/>
<path d="M8.61539 1.23077H7.38462V2.46154H8.61539V1.23077Z" fill="#C51A59"/>
<path d="M24.6154 1.23077H23.3846V2.46154H24.6154V1.23077Z" fill="#E27A54"/>
<path d="M25.8462 1.23077H24.6154V2.46154H25.8462V1.23077Z" fill="#E27A54"/>
<path d="M27.0769 1.23077H25.8462V2.46154H27.0769V1.23077Z" fill="#E27A54"/>
<path d="M28.3077 1.23077H27.0769V2.46154H28.3077V1.23077Z" fill="#E27A54"/>
<path d="M29.5385 1.23077H28.3077V2.46154H29.5385V1.23077Z" fill="#E27A54"/>
<path d="M30.7692 1.23077H29.5385V2.46154H30.7692V1.23077Z" fill="#E27A54"/>
<path d="M32 1.23077H30.7692V2.46154H32V1.23077Z" fill="#E27A54"/>
<path d="M1.23077 2.46154H0V3.69231H1.23077V2.46154Z" fill="#C51A59"/>
<path d="M2.46154 2.46154H1.23077V3.69231H2.46154V2.46154Z" fill="#C51A59"/>
<path d="M3.69231 2.46154H2.46154V3.69231H3.69231V2.46154Z" fill="#C51A59"/>
<path d="M4.92308 2.46154H3.69231V3.69231H4.92308V2.46154Z" fill="#C51A59"/>
<path d="M6.15385 2.46154H4.92308V3.69231H6.15385V2.46154Z" fill="#C51A59"/>
<path d="M7.38462 2.46154H6.15385V3.69231H7.38462V2.46154Z" fill="#C51A59"/>
<path d="M8.61539 2.46154H7.38462V3.69231H8.61539V2.46154Z" fill="#C51A59"/>
<path d="M24.6154 2.46154H23.3846V3.69231H24.6154V2.46154Z" fill="#E27A54"/>
<path d="M25.8462 2.46154H24.6154V3.69231H25.8462V2.46154Z" fill="#E27A54"/>
<path d="M27.0769 2.46154H25.8462V3.69231H27.0769V2.46154Z" fill="#E27A54"/>
<path d="M28.3077 2.46154H27.0769V3.69231H28.3077V2.46154Z" fill="#E27A54"/>
<path d="M29.5385 2.46154H28.3077V3.69231H29.5385V2.46154Z" fill="#E27A54"/>
<path d="M30.7692 2.46154H29.5385V3.69231H30.7692V2.46154Z" fill="#E27A54"/>
<path d="M32 2.46154H30.7692V3.69231H32V2.46154Z" fill="#E27A54"/>
<path d="M1.23077 3.69231H0V4.92308H1.23077V3.69231Z" fill="#C51A59"/>
<path d="M2.46154 3.69231H1.23077V4.92308H2.46154V3.69231Z" fill="#C51A59"/>
<path d="M3.69231 3.69231H2.46154V4.92308H3.69231V3.69231Z" fill="#C51A59"/>
<path d="M4.92308 3.69231H3.69231V4.92308H4.92308V3.69231Z" fill="#C51A59"/>
<path d="M6.15385 3.69231H4.92308V4.92308H6.15385V3.69231Z" fill="#C51A59"/>
<path d="M7.38462 3.69231H6.15385V4.92308H7.38462V3.69231Z" fill="#C51A59"/>
<path d="M8.61539 3.69231H7.38462V4.92308H8.61539V3.69231Z" fill="#C51A59"/>
<path d="M24.6154 3.69231H23.3846V4.92308H24.6154V3.69231Z" fill="#E27A54"/>
<path d="M25.8462 3.69231H24.6154V4.92308H25.8462V3.69231Z" fill="#E27A54"/>
<path d="M27.0769 3.69231H25.8462V4.92308H27.0769V3.69231Z" fill="#E27A54"/>
<path d="M28.3077 3.69231H27.0769V4.92308H28.3077V3.69231Z" fill="#E27A54"/>
<path d="M29.5385 3.69231H28.3077V4.92308H29.5385V3.69231Z" fill="#E27A54"/>
<path d="M30.7692 3.69231H29.5385V4.92308H30.7692V3.69231Z" fill="#E27A54"/>
<path d="M32 3.69231H30.7692V4.92308H32V3.69231Z" fill="#E27A54"/>
<path d="M1.23077 4.92308H0V6.15385H1.23077V4.92308Z" fill="#C51A59"/>
<path d="M2.46154 4.92308H1.23077V6.15385H2.46154V4.92308Z" fill="#C51A59"/>
<path d="M3.69231 4.92308H2.46154V6.15385H3.69231V4.92308Z" fill="#C51A59"/>
<path d="M4.92308 4.92308H3.69231V6.15385H4.92308V4.92308Z" fill="#C51A59"/>
<path d="M6.15385 4.92308H4.92308V6.15385H6.15385V4.92308Z" fill="#C51A59"/>
<path d="M7.38462 4.92308H6.15385V6.15385H7.38462V4.92308Z" fill="#C51A59"/>
<path d="M8.61539 4.92308H7.38462V6.15385H8.61539V4.92308Z" fill="#C51A59"/>
<path d="M24.6154 4.92308H23.3846V6.15385H24.6154V4.92308Z" fill="#E27A54"/>
<path d="M25.8462 4.92308H24.6154V6.15385H25.8462V4.92308Z" fill="#E27A54"/>
<path d="M27.0769 4.92308H25.8462V6.15385H27.0769V4.92308Z" fill="#E27A54"/>
<path d="M28.3077 4.92308H27.0769V6.15385H28.3077V4.92308Z" fill="#E27A54"/>
<path d="M29.5385 4.92308H28.3077V6.15385H29.5385V4.92308Z" fill="#E27A54"/>
<path d="M30.7692 4.92308H29.5385V6.15385H30.7692V4.92308Z" fill="#E27A54"/>
<path d="M32 4.92308H30.7692V6.15385H32V4.92308Z" fill="#E27A54"/>
<path d="M1.23077 6.15385H0V7.38462H1.23077V6.15385Z" fill="#C51A59"/>
<path d="M2.46154 6.15385H1.23077V7.38462H2.46154V6.15385Z" fill="#C51A59"/>
<path d="M3.69231 6.15385H2.46154V7.38462H3.69231V6.15385Z" fill="#C51A59"/>
<path d="M4.92308 6.15385H3.69231V7.38462H4.92308V6.15385Z" fill="#C51A59"/>
<path d="M6.15385 6.15385H4.92308V7.38462H6.15385V6.15385Z" fill="#C51A59"/>
<path d="M7.38462 6.15385H6.15385V7.38462H7.38462V6.15385Z" fill="#C51A59"/>
<path d="M8.61539 6.15385H7.38462V7.38462H8.61539V6.15385Z" fill="#C51A59"/>
<path d="M24.6154 6.15385H23.3846V7.38462H24.6154V6.15385Z" fill="#E27A54"/>
<path d="M25.8462 6.15385H24.6154V7.38462H25.8462V6.15385Z" fill="#E27A54"/>
<path d="M27.0769 6.15385H25.8462V7.38462H27.0769V6.15385Z" fill="#E27A54"/>
<path d="M28.3077 6.15385H27.0769V7.38462H28.3077V6.15385Z" fill="#E27A54"/>
<path d="M29.5385 6.15385H28.3077V7.38462H29.5385V6.15385Z" fill="#E27A54"/>
<path d="M30.7692 6.15385H29.5385V7.38462H30.7692V6.15385Z" fill="#E27A54"/>
<path d="M32 6.15385H30.7692V7.38462H32V6.15385Z" fill="#E27A54"/>
<path d="M1.23077 7.38461H0V8.61538H1.23077V7.38461Z" fill="#C51A59"/>
<path d="M2.46154 7.38461H1.23077V8.61538H2.46154V7.38461Z" fill="#C51A59"/>
<path d="M3.69231 7.38461H2.46154V8.61538H3.69231V7.38461Z" fill="#C51A59"/>
<path d="M4.92308 7.38461H3.69231V8.61538H4.92308V7.38461Z" fill="#C51A59"/>
<path d="M6.15385 7.38461H4.92308V8.61538H6.15385V7.38461Z" fill="#C51A59"/>
<path d="M7.38462 7.38461H6.15385V8.61538H7.38462V7.38461Z" fill="#C51A59"/>
<path d="M8.61539 7.38461H7.38462V8.61538H8.61539V7.38461Z" fill="#C51A59"/>
<path d="M24.6154 7.38461H23.3846V8.61538H24.6154V7.38461Z" fill="#E27A54"/>
<path d="M25.8462 7.38461H24.6154V8.61538H25.8462V7.38461Z" fill="#E27A54"/>
<path d="M27.0769 7.38461H25.8462V8.61538H27.0769V7.38461Z" fill="#E27A54"/>
<path d="M28.3077 7.38461H27.0769V8.61538H28.3077V7.38461Z" fill="#E27A54"/>
<path d="M29.5385 7.38461H28.3077V8.61538H29.5385V7.38461Z" fill="#E27A54"/>
<path d="M30.7692 7.38461H29.5385V8.61538H30.7692V7.38461Z" fill="#E27A54"/>
<path d="M32 7.38461H30.7692V8.61538H32V7.38461Z" fill="#E27A54"/>
<path d="M1.23077 8.61539H0V9.84615H1.23077V8.61539Z" fill="white"/>
<path d="M2.46154 8.61539H1.23077V9.84615H2.46154V8.61539Z" fill="white"/>
<path d="M3.69231 8.61539H2.46154V9.84615H3.69231V8.61539Z" fill="white"/>
<path d="M4.92308 8.61539H3.69231V9.84615H4.92308V8.61539Z" fill="white"/>
<path d="M6.15385 8.61539H4.92308V9.84615H6.15385V8.61539Z" fill="white"/>
<path d="M7.38462 8.61539H6.15385V9.84615H7.38462V8.61539Z" fill="white"/>
<path d="M8.61539 8.61539H7.38462V9.84615H8.61539V8.61539Z" fill="white"/>
<path d="M24.6154 8.61539H23.3846V9.84615H24.6154V8.61539Z" fill="white"/>
<path d="M25.8462 8.61539H24.6154V9.84615H25.8462V8.61539Z" fill="white"/>
<path d="M27.0769 8.61539H25.8462V9.84615H27.0769V8.61539Z" fill="white"/>
<path d="M28.3077 8.61539H27.0769V9.84615H28.3077V8.61539Z" fill="white"/>
<path d="M29.5385 8.61539H28.3077V9.84615H29.5385V8.61539Z" fill="white"/>
<path d="M30.7692 8.61539H29.5385V9.84615H30.7692V8.61539Z" fill="white"/>
<path d="M32 8.61539H30.7692V9.84615H32V8.61539Z" fill="white"/>
<path d="M1.23077 9.84615H0V11.0769H1.23077V9.84615Z" fill="white"/>
<path d="M2.46154 9.84615H1.23077V11.0769H2.46154V9.84615Z" fill="white"/>
<path d="M3.69231 9.84615H2.46154V11.0769H3.69231V9.84615Z" fill="white"/>
<path d="M4.92308 9.84615H3.69231V11.0769H4.92308V9.84615Z" fill="white"/>
<path d="M6.15385 9.84615H4.92308V11.0769H6.15385V9.84615Z" fill="white"/>
<path d="M7.38462 9.84615H6.15385V11.0769H7.38462V9.84615Z" fill="white"/>
<path d="M8.61539 9.84615H7.38462V11.0769H8.61539V9.84615Z" fill="white"/>
<path d="M24.6154 9.84615H23.3846V11.0769H24.6154V9.84615Z" fill="white"/>
<path d="M25.8462 9.84615H24.6154V11.0769H25.8462V9.84615Z" fill="white"/>
<path d="M27.0769 9.84615H25.8462V11.0769H27.0769V9.84615Z" fill="white"/>
<path d="M28.3077 9.84615H27.0769V11.0769H28.3077V9.84615Z" fill="white"/>
<path d="M29.5385 9.84615H28.3077V11.0769H29.5385V9.84615Z" fill="white"/>
<path d="M30.7692 9.84615H29.5385V11.0769H30.7692V9.84615Z" fill="white"/>
<path d="M32 9.84615H30.7692V11.0769H32V9.84615Z" fill="white"/>
<path d="M1.23077 11.0769H0V12.3077H1.23077V11.0769Z" fill="#464646"/>
<path d="M2.46154 11.0769H1.23077V12.3077H2.46154V11.0769Z" fill="white"/>
<path d="M3.69231 11.0769H2.46154V12.3077H3.69231V11.0769Z" fill="white"/>
<path d="M4.92308 11.0769H3.69231V12.3077H4.92308V11.0769Z" fill="white"/>
<path d="M6.15385 11.0769H4.92308V12.3077H6.15385V11.0769Z" fill="white"/>
<path d="M7.38462 11.0769H6.15385V12.3077H7.38462V11.0769Z" fill="white"/>
<path d="M8.61539 11.0769H7.38462V12.3077H8.61539V11.0769Z" fill="white"/>
<path d="M24.6154 11.0769H23.3846V12.3077H24.6154V11.0769Z" fill="#4C4C4C"/>
<path d="M25.8462 11.0769H24.6154V12.3077H25.8462V11.0769Z" fill="white"/>
<path d="M27.0769 11.0769H25.8462V12.3077H27.0769V11.0769Z" fill="white"/>
<path d="M28.3077 11.0769H27.0769V12.3077H28.3077V11.0769Z" fill="#B6B6B6"/>
<path d="M29.5385 11.0769H28.3077V12.3077H29.5385V11.0769Z" fill="white"/>
<path d="M30.7692 11.0769H29.5385V12.3077H30.7692V11.0769Z" fill="white"/>
<path d="M32 11.0769H30.7692V12.3077H32V11.0769Z" fill="white"/>
<path d="M1.23077 16H0V17.2308H1.23077V16Z" fill="#F6B867"/>
<path d="M2.46154 16H1.23077V17.2308H2.46154V16Z" fill="#F6B867"/>
<path d="M3.69231 16H2.46154V17.2308H3.69231V16Z" fill="#F6B867"/>
<path d="M4.92308 16H3.69231V17.2308H4.92308V16Z" fill="#F6B867"/>
<path d="M6.15385 16H4.92308V17.2308H6.15385V16Z" fill="#F6B867"/>
<path d="M7.38462 16H6.15385V17.2308H7.38462V16Z" fill="#F6B867"/>
<path d="M8.61539 16H7.38462V17.2308H8.61539V16Z" fill="#F6B867"/>
<path d="M12.3077 16H11.0769V17.2308H12.3077V16Z" fill="#EF5726"/>
<path d="M13.5385 16H12.3077V17.2308H13.5385V16Z" fill="#EF5726"/>
<path d="M14.7692 16H13.5385V17.2308H14.7692V16Z" fill="#EF5726"/>
<path d="M16 16H14.7692V17.2308H16V16Z" fill="#EF5726"/>
<path d="M17.2308 16H16V17.2308H17.2308V16Z" fill="#EF5726"/>
<path d="M18.4615 16H17.2308V17.2308H18.4615V16Z" fill="#EF5726"/>
<path d="M19.6923 16H18.4615V17.2308H19.6923V16Z" fill="#EF5726"/>
<path d="M1.23077 17.2308H0V18.4615H1.23077V17.2308Z" fill="#F6B867"/>
<path d="M2.46154 17.2308H1.23077V18.4615H2.46154V17.2308Z" fill="#F6B867"/>
<path d="M3.69231 17.2308H2.46154V18.4615H3.69231V17.2308Z" fill="#F6B867"/>
<path d="M4.92308 17.2308H3.69231V18.4615H4.92308V17.2308Z" fill="#F6B867"/>
<path d="M6.15385 17.2308H4.92308V18.4615H6.15385V17.2308Z" fill="#F6B867"/>
<path d="M7.38462 17.2308H6.15385V18.4615H7.38462V17.2308Z" fill="#F6B867"/>
<path d="M8.61539 17.2308H7.38462V18.4615H8.61539V17.2308Z" fill="#F6B867"/>
<path d="M12.3077 17.2308H11.0769V18.4615H12.3077V17.2308Z" fill="#EF5726"/>
<path d="M13.5385 17.2308H12.3077V18.4615H13.5385V17.2308Z" fill="#EF5726"/>
<path d="M14.7692 17.2308H13.5385V18.4615H14.7692V17.2308Z" fill="#EF5726"/>
<path d="M16 17.2308H14.7692V18.4615H16V17.2308Z" fill="#EF5726"/>
<path d="M17.2308 17.2308H16V18.4615H17.2308V17.2308Z" fill="#EF5726"/>
<path d="M18.4615 17.2308H17.2308V18.4615H18.4615V17.2308Z" fill="#EF5726"/>
<path d="M19.6923 17.2308H18.4615V18.4615H19.6923V17.2308Z" fill="#EF5726"/>
<path d="M1.23077 18.4615H0V19.6923H1.23077V18.4615Z" fill="#F6B867"/>
<path d="M2.46154 18.4615H1.23077V19.6923H2.46154V18.4615Z" fill="#F6B867"/>
<path d="M3.69231 18.4615H2.46154V19.6923H3.69231V18.4615Z" fill="#F6B867"/>
<path d="M4.92308 18.4615H3.69231V19.6923H4.92308V18.4615Z" fill="#F6B867"/>
<path d="M6.15385 18.4615H4.92308V19.6923H6.15385V18.4615Z" fill="#F6B867"/>
<path d="M7.38462 18.4615H6.15385V19.6923H7.38462V18.4615Z" fill="#F6B867"/>
<path d="M8.61539 18.4615H7.38462V19.6923H8.61539V18.4615Z" fill="#F6B867"/>
<path d="M12.3077 18.4615H11.0769V19.6923H12.3077V18.4615Z" fill="#EF5726"/>
<path d="M13.5385 18.4615H12.3077V19.6923H13.5385V18.4615Z" fill="#EF5726"/>
<path d="M14.7692 18.4615H13.5385V19.6923H14.7692V18.4615Z" fill="#EF5726"/>
<path d="M16 18.4615H14.7692V19.6923H16V18.4615Z" fill="#EF5726"/>
<path d="M17.2308 18.4615H16V19.6923H17.2308V18.4615Z" fill="#EF5726"/>
<path d="M18.4615 18.4615H17.2308V19.6923H18.4615V18.4615Z" fill="#EF5726"/>
<path d="M19.6923 18.4615H18.4615V19.6923H19.6923V18.4615Z" fill="#EF5726"/>
<path d="M1.23077 19.6923H0V20.9231H1.23077V19.6923Z" fill="#F6B867"/>
<path d="M2.46154 19.6923H1.23077V20.9231H2.46154V19.6923Z" fill="#F6B867"/>
<path d="M3.69231 19.6923H2.46154V20.9231H3.69231V19.6923Z" fill="#F6B867"/>
<path d="M4.92308 19.6923H3.69231V20.9231H4.92308V19.6923Z" fill="#F6B867"/>
<path d="M6.15385 19.6923H4.92308V20.9231H6.15385V19.6923Z" fill="#F6B867"/>
<path d="M7.38462 19.6923H6.15385V20.9231H7.38462V19.6923Z" fill="#F6B867"/>
<path d="M8.61539 19.6923H7.38462V20.9231H8.61539V19.6923Z" fill="#F6B867"/>
<path d="M12.3077 19.6923H11.0769V20.9231H12.3077V19.6923Z" fill="#EF5726"/>
<path d="M13.5385 19.6923H12.3077V20.9231H13.5385V19.6923Z" fill="#EF5726"/>
<path d="M14.7692 19.6923H13.5385V20.9231H14.7692V19.6923Z" fill="#EF5726"/>
<path d="M16 19.6923H14.7692V20.9231H16V19.6923Z" fill="#EF5726"/>
<path d="M17.2308 19.6923H16V20.9231H17.2308V19.6923Z" fill="#EF5726"/>
<path d="M18.4615 19.6923H17.2308V20.9231H18.4615V19.6923Z" fill="#EF5726"/>
<path d="M19.6923 19.6923H18.4615V20.9231H19.6923V19.6923Z" fill="#EF5726"/>
<path d="M1.23077 20.9231H0V22.1538H1.23077V20.9231Z" fill="#F6B867"/>
<path d="M2.46154 20.9231H1.23077V22.1538H2.46154V20.9231Z" fill="#F6B867"/>
<path d="M3.69231 20.9231H2.46154V22.1538H3.69231V20.9231Z" fill="#F6B867"/>
<path d="M4.92308 20.9231H3.69231V22.1538H4.92308V20.9231Z" fill="#F6B867"/>
<path d="M6.15385 20.9231H4.92308V22.1538H6.15385V20.9231Z" fill="#F6B867"/>
<path d="M7.38462 20.9231H6.15385V22.1538H7.38462V20.9231Z" fill="#F6B867"/>
<path d="M8.61539 20.9231H7.38462V22.1538H8.61539V20.9231Z" fill="#F6B867"/>
<path d="M12.3077 20.9231H11.0769V22.1538H12.3077V20.9231Z" fill="#EF5726"/>
<path d="M13.5385 20.9231H12.3077V22.1538H13.5385V20.9231Z" fill="#EF5726"/>
<path d="M14.7692 20.9231H13.5385V22.1538H14.7692V20.9231Z" fill="#EF5726"/>
<path d="M16 20.9231H14.7692V22.1538H16V20.9231Z" fill="#EF5726"/>
<path d="M17.2308 20.9231H16V22.1538H17.2308V20.9231Z" fill="#EF5726"/>
<path d="M18.4615 20.9231H17.2308V22.1538H18.4615V20.9231Z" fill="#EF5726"/>
<path d="M19.6923 20.9231H18.4615V22.1538H19.6923V20.9231Z" fill="#EF5726"/>
<path d="M1.23077 22.1538H0V23.3846H1.23077V22.1538Z" fill="#F6B867"/>
<path d="M2.46154 22.1538H1.23077V23.3846H2.46154V22.1538Z" fill="#F6B867"/>
<path d="M3.69231 22.1538H2.46154V23.3846H3.69231V22.1538Z" fill="#F6B867"/>
<path d="M4.92308 22.1538H3.69231V23.3846H4.92308V22.1538Z" fill="#F6B867"/>
<path d="M6.15385 22.1538H4.92308V23.3846H6.15385V22.1538Z" fill="#F6B867"/>
<path d="M7.38462 22.1538H6.15385V23.3846H7.38462V22.1538Z" fill="#F6B867"/>
<path d="M8.61539 22.1538H7.38462V23.3846H8.61539V22.1538Z" fill="#F6B867"/>
<path d="M12.3077 22.1538H11.0769V23.3846H12.3077V22.1538Z" fill="#EF5726"/>
<path d="M13.5385 22.1538H12.3077V23.3846H13.5385V22.1538Z" fill="#EF5726"/>
<path d="M14.7692 22.1538H13.5385V23.3846H14.7692V22.1538Z" fill="#EF5726"/>
<path d="M16 22.1538H14.7692V23.3846H16V22.1538Z" fill="#EF5726"/>
<path d="M17.2308 22.1538H16V23.3846H17.2308V22.1538Z" fill="#EF5726"/>
<path d="M18.4615 22.1538H17.2308V23.3846H18.4615V22.1538Z" fill="#EF5726"/>
<path d="M19.6923 22.1538H18.4615V23.3846H19.6923V22.1538Z" fill="#EF5726"/>
<path d="M1.23077 23.3846H0V24.6154H1.23077V23.3846Z" fill="#F6B867"/>
<path d="M2.46154 23.3846H1.23077V24.6154H2.46154V23.3846Z" fill="#F6B867"/>
<path d="M3.69231 23.3846H2.46154V24.6154H3.69231V23.3846Z" fill="#F6B867"/>
<path d="M4.92308 23.3846H3.69231V24.6154H4.92308V23.3846Z" fill="#F6B867"/>
<path d="M6.15385 23.3846H4.92308V24.6154H6.15385V23.3846Z" fill="#F6B867"/>
<path d="M7.38462 23.3846H6.15385V24.6154H7.38462V23.3846Z" fill="#F6B867"/>
<path d="M8.61539 23.3846H7.38462V24.6154H8.61539V23.3846Z" fill="#F6B867"/>
<path d="M12.3077 23.3846H11.0769V24.6154H12.3077V23.3846Z" fill="#EF5726"/>
<path d="M13.5385 23.3846H12.3077V24.6154H13.5385V23.3846Z" fill="#EF5726"/>
<path d="M14.7692 23.3846H13.5385V24.6154H14.7692V23.3846Z" fill="#EF5726"/>
<path d="M16 23.3846H14.7692V24.6154H16V23.3846Z" fill="#EF5726"/>
<path d="M17.2308 23.3846H16V24.6154H17.2308V23.3846Z" fill="#EF5726"/>
<path d="M18.4615 23.3846H17.2308V24.6154H18.4615V23.3846Z" fill="#EF5726"/>
<path d="M19.6923 23.3846H18.4615V24.6154H19.6923V23.3846Z" fill="#EF5726"/>
<path d="M1.23077 24.6154H0V25.8462H1.23077V24.6154Z" fill="white"/>
<path d="M2.46154 24.6154H1.23077V25.8462H2.46154V24.6154Z" fill="#6C6C6C"/>
<path d="M3.69231 24.6154H2.46154V25.8462H3.69231V24.6154Z" fill="white"/>
<path d="M4.92308 24.6154H3.69231V25.8462H4.92308V24.6154Z" fill="#F7F7F7"/>
<path d="M6.15385 24.6154H4.92308V25.8462H6.15385V24.6154Z" fill="black"/>
<path d="M7.38462 24.6154H6.15385V25.8462H7.38462V24.6154Z" fill="black"/>
<path d="M8.61539 24.6154H7.38462V25.8462H8.61539V24.6154Z" fill="white"/>
<path d="M12.3077 24.6154H11.0769V25.8462H12.3077V24.6154Z" fill="white"/>
<path d="M13.5385 24.6154H12.3077V25.8462H13.5385V24.6154Z" fill="#F2F2F2"/>
<path d="M14.7692 24.6154H13.5385V25.8462H14.7692V24.6154Z" fill="#0C0C0C"/>
<path d="M16 24.6154H14.7692V25.8462H16V24.6154Z" fill="#545454"/>
<path d="M17.2308 24.6154H16V25.8462H17.2308V24.6154Z" fill="white"/>
<path d="M18.4615 24.6154H17.2308V25.8462H18.4615V24.6154Z" fill="white"/>
<path d="M19.6923 24.6154H18.4615V25.8462H19.6923V24.6154Z" fill="white"/>
<path d="M1.23077 25.8462H0V27.0769H1.23077V25.8462Z" fill="white"/>
<path d="M2.46154 25.8462H1.23077V27.0769H2.46154V25.8462Z" fill="white"/>
<path d="M3.69231 25.8462H2.46154V27.0769H3.69231V25.8462Z" fill="white"/>
<path d="M4.92308 25.8462H3.69231V27.0769H4.92308V25.8462Z" fill="#686868"/>
<path d="M6.15385 25.8462H4.92308V27.0769H6.15385V25.8462Z" fill="white"/>
<path d="M7.38462 25.8462H6.15385V27.0769H7.38462V25.8462Z" fill="white"/>
<path d="M8.61539 25.8462H7.38462V27.0769H8.61539V25.8462Z" fill="white"/>
<path d="M12.3077 25.8462H11.0769V27.0769H12.3077V25.8462Z" fill="white"/>
<path d="M13.5385 25.8462H12.3077V27.0769H13.5385V25.8462Z" fill="white"/>
<path d="M14.7692 25.8462H13.5385V27.0769H14.7692V25.8462Z" fill="white"/>
<path d="M16 25.8462H14.7692V27.0769H16V25.8462Z" fill="#D8D8D8"/>
<path d="M17.2308 25.8462H16V27.0769H17.2308V25.8462Z" fill="white"/>
<path d="M18.4615 25.8462H17.2308V27.0769H18.4615V25.8462Z" fill="white"/>
<path d="M19.6923 25.8462H18.4615V27.0769H19.6923V25.8462Z" fill="white"/>
<path d="M1.23077 27.0769H0V28.3077H1.23077V27.0769Z" fill="white"/>
<path d="M2.46154 27.0769H1.23077V28.3077H2.46154V27.0769Z" fill="white"/>
<path d="M3.69231 27.0769H2.46154V28.3077H3.69231V27.0769Z" fill="white"/>
<path d="M4.92308 27.0769H3.69231V28.3077H4.92308V27.0769Z" fill="white"/>
<path d="M6.15385 27.0769H4.92308V28.3077H6.15385V27.0769Z" fill="white"/>
<path d="M7.38462 27.0769H6.15385V28.3077H7.38462V27.0769Z" fill="white"/>
<path d="M8.61539 27.0769H7.38462V28.3077H8.61539V27.0769Z" fill="white"/>
<path d="M12.3077 27.0769H11.0769V28.3077H12.3077V27.0769Z" fill="white"/>
<path d="M13.5385 27.0769H12.3077V28.3077H13.5385V27.0769Z" fill="white"/>
<path d="M14.7692 27.0769H13.5385V28.3077H14.7692V27.0769Z" fill="white"/>
<path d="M16 27.0769H14.7692V28.3077H16V27.0769Z" fill="white"/>
<path d="M17.2308 27.0769H16V28.3077H17.2308V27.0769Z" fill="white"/>
<path d="M18.4615 27.0769H17.2308V28.3077H18.4615V27.0769Z" fill="white"/>
<path d="M19.6923 27.0769H18.4615V28.3077H19.6923V27.0769Z" fill="white"/>
<path d="M24.6154 16H23.3846V17.2308H24.6154V16Z" fill="#FAAC82"/>
<path d="M25.8462 16H24.6154V17.2308H25.8462V16Z" fill="#FAAC82"/>
<path d="M27.0769 16H25.8462V17.2308H27.0769V16Z" fill="#FAAC82"/>
<path d="M28.3077 16H27.0769V17.2308H28.3077V16Z" fill="#FAAC82"/>
<path d="M29.5385 16H28.3077V17.2308H29.5385V16Z" fill="#FAAC82"/>
<path d="M30.7692 16H29.5385V17.2308H30.7692V16Z" fill="#FAAC82"/>
<path d="M32 16H30.7692V17.2308H32V16Z" fill="#FAAC82"/>
<path d="M24.6154 17.2308H23.3846V18.4615H24.6154V17.2308Z" fill="#FAAC82"/>
<path d="M25.8462 17.2308H24.6154V18.4615H25.8462V17.2308Z" fill="#FAAC82"/>
<path d="M27.0769 17.2308H25.8462V18.4615H27.0769V17.2308Z" fill="#FAAC82"/>
<path d="M28.3077 17.2308H27.0769V18.4615H28.3077V17.2308Z" fill="#FAAC82"/>
<path d="M29.5385 17.2308H28.3077V18.4615H29.5385V17.2308Z" fill="#FAAC82"/>
<path d="M30.7692 17.2308H29.5385V18.4615H30.7692V17.2308Z" fill="#FAAC82"/>
<path d="M32 17.2308H30.7692V18.4615H32V17.2308Z" fill="#FAAC82"/>
<path d="M24.6154 18.4615H23.3846V19.6923H24.6154V18.4615Z" fill="#FAAC82"/>
<path d="M25.8462 18.4615H24.6154V19.6923H25.8462V18.4615Z" fill="#FAAC82"/>
<path d="M27.0769 18.4615H25.8462V19.6923H27.0769V18.4615Z" fill="#FAAC82"/>
<path d="M28.3077 18.4615H27.0769V19.6923H28.3077V18.4615Z" fill="#FAAC82"/>
<path d="M29.5385 18.4615H28.3077V19.6923H29.5385V18.4615Z" fill="#FAAC82"/>
<path d="M30.7692 18.4615H29.5385V19.6923H30.7692V18.4615Z" fill="#FAAC82"/>
<path d="M32 18.4615H30.7692V19.6923H32V18.4615Z" fill="#FAAC82"/>
<path d="M24.6154 19.6923H23.3846V20.9231H24.6154V19.6923Z" fill="#FAAC82"/>
<path d="M25.8462 19.6923H24.6154V20.9231H25.8462V19.6923Z" fill="#FAAC82"/>
<path d="M27.0769 19.6923H25.8462V20.9231H27.0769V19.6923Z" fill="#FAAC82"/>
<path d="M28.3077 19.6923H27.0769V20.9231H28.3077V19.6923Z" fill="#FAAC82"/>
<path d="M29.5385 19.6923H28.3077V20.9231H29.5385V19.6923Z" fill="#FAAC82"/>
<path d="M30.7692 19.6923H29.5385V20.9231H30.7692V19.6923Z" fill="#FAAC82"/>
<path d="M32 19.6923H30.7692V20.9231H32V19.6923Z" fill="#FAAC82"/>
<path d="M24.6154 20.9231H23.3846V22.1538H24.6154V20.9231Z" fill="#FAAC82"/>
<path d="M25.8462 20.9231H24.6154V22.1538H25.8462V20.9231Z" fill="#FAAC82"/>
<path d="M27.0769 20.9231H25.8462V22.1538H27.0769V20.9231Z" fill="#FAAC82"/>
<path d="M28.3077 20.9231H27.0769V22.1538H28.3077V20.9231Z" fill="#FAAC82"/>
<path d="M29.5385 20.9231H28.3077V22.1538H29.5385V20.9231Z" fill="#FAAC82"/>
<path d="M30.7692 20.9231H29.5385V22.1538H30.7692V20.9231Z" fill="#FAAC82"/>
<path d="M32 20.9231H30.7692V22.1538H32V20.9231Z" fill="#FAAC82"/>
<path d="M24.6154 22.1538H23.3846V23.3846H24.6154V22.1538Z" fill="#FAAC82"/>
<path d="M25.8462 22.1538H24.6154V23.3846H25.8462V22.1538Z" fill="#FAAC82"/>
<path d="M27.0769 22.1538H25.8462V23.3846H27.0769V22.1538Z" fill="#FAAC82"/>
<path d="M28.3077 22.1538H27.0769V23.3846H28.3077V22.1538Z" fill="#FAAC82"/>
<path d="M29.5385 22.1538H28.3077V23.3846H29.5385V22.1538Z" fill="#FAAC82"/>
<path d="M30.7692 22.1538H29.5385V23.3846H30.7692V22.1538Z" fill="#FAAC82"/>
<path d="M32 22.1538H30.7692V23.3846H32V22.1538Z" fill="#FAAC82"/>
<path d="M24.6154 23.3846H23.3846V24.6154H24.6154V23.3846Z" fill="#FAAC82"/>
<path d="M25.8462 23.3846H24.6154V24.6154H25.8462V23.3846Z" fill="#FAAC82"/>
<path d="M27.0769 23.3846H25.8462V24.6154H27.0769V23.3846Z" fill="#FAAC82"/>
<path d="M28.3077 23.3846H27.0769V24.6154H28.3077V23.3846Z" fill="#FAAC82"/>
<path d="M29.5385 23.3846H28.3077V24.6154H29.5385V23.3846Z" fill="#FAAC82"/>
<path d="M30.7692 23.3846H29.5385V24.6154H30.7692V23.3846Z" fill="#FAAC82"/>
<path d="M32 23.3846H30.7692V24.6154H32V23.3846Z" fill="#FAAC82"/>
<path d="M24.6154 24.6154H23.3846V25.8462H24.6154V24.6154Z" fill="#111111"/>
<path d="M25.8462 24.6154H24.6154V25.8462H25.8462V24.6154Z" fill="#A7A7A7"/>
<path d="M27.0769 24.6154H25.8462V25.8462H27.0769V24.6154Z" fill="#F3F3F3"/>
<path d="M28.3077 24.6154H27.0769V25.8462H28.3077V24.6154Z" fill="#F9F9F9"/>
<path d="M29.5385 24.6154H28.3077V25.8462H29.5385V24.6154Z" fill="#FAFAFA"/>
<path d="M30.7692 24.6154H29.5385V25.8462H30.7692V24.6154Z" fill="white"/>
<path d="M32 24.6154H30.7692V25.8462H32V24.6154Z" fill="white"/>
<path d="M24.6154 25.8462H23.3846V27.0769H24.6154V25.8462Z" fill="#4C4C4C"/>
<path d="M25.8462 25.8462H24.6154V27.0769H25.8462V25.8462Z" fill="white"/>
<path d="M27.0769 25.8462H25.8462V27.0769H27.0769V25.8462Z" fill="black"/>
<path d="M28.3077 25.8462H27.0769V27.0769H28.3077V25.8462Z" fill="white"/>
<path d="M29.5385 25.8462H28.3077V27.0769H29.5385V25.8462Z" fill="white"/>
<path d="M30.7692 25.8462H29.5385V27.0769H30.7692V25.8462Z" fill="white"/>
<path d="M32 25.8462H30.7692V27.0769H32V25.8462Z" fill="white"/>
<path d="M24.6154 27.0769H23.3846V28.3077H24.6154V27.0769Z" fill="white"/>
<path d="M25.8462 27.0769H24.6154V28.3077H25.8462V27.0769Z" fill="white"/>
<path d="M27.0769 27.0769H25.8462V28.3077H27.0769V27.0769Z" fill="white"/>
<path d="M28.3077 27.0769H27.0769V28.3077H28.3077V27.0769Z" fill="white"/>
<path d="M29.5385 27.0769H28.3077V28.3077H29.5385V27.0769Z" fill="white"/>
<path d="M30.7692 27.0769H29.5385V28.3077H30.7692V27.0769Z" fill="white"/>
<path d="M32 27.0769H30.7692V28.3077H32V27.0769Z" fill="white"/>
<path d="M13.5385 0H12.3077V1.23077H13.5385V0Z" fill="#C86B3C"/>
<path d="M14.7692 0H13.5385V1.23077H14.7692V0Z" fill="#C86B3C"/>
<path d="M16 0H14.7692V1.23077H16V0Z" fill="#C86B3C"/>
<path d="M17.2308 0H16V1.23077H17.2308V0Z" fill="#C86B3C"/>
<path d="M18.4615 0H17.2308V1.23077H18.4615V0Z" fill="#C86B3C"/>
<path d="M19.6923 0H18.4615V1.23077H19.6923V0Z" fill="#C86B3C"/>
<path d="M20.9231 0H19.6923V1.23077H20.9231V0Z" fill="#C86B3C"/>
<path d="M13.5385 1.23077H12.3077V2.46154H13.5385V1.23077Z" fill="#C86B3C"/>
<path d="M14.7692 1.23077H13.5385V2.46154H14.7692V1.23077Z" fill="#C86B3C"/>
<path d="M16 1.23077H14.7692V2.46154H16V1.23077Z" fill="#C86B3C"/>
<path d="M17.2308 1.23077H16V2.46154H17.2308V1.23077Z" fill="#C86B3C"/>
<path d="M18.4615 1.23077H17.2308V2.46154H18.4615V1.23077Z" fill="#C86B3C"/>
<path d="M19.6923 1.23077H18.4615V2.46154H19.6923V1.23077Z" fill="#C86B3C"/>
<path d="M20.9231 1.23077H19.6923V2.46154H20.9231V1.23077Z" fill="#C86B3C"/>
<path d="M13.5385 2.46154H12.3077V3.69231H13.5385V2.46154Z" fill="#C86B3C"/>
<path d="M14.7692 2.46154H13.5385V3.69231H14.7692V2.46154Z" fill="#C86B3C"/>
<path d="M16 2.46154H14.7692V3.69231H16V2.46154Z" fill="#C86B3C"/>
<path d="M17.2308 2.46154H16V3.69231H17.2308V2.46154Z" fill="#C86B3C"/>
<path d="M18.4615 2.46154H17.2308V3.69231H18.4615V2.46154Z" fill="#C86B3C"/>
<path d="M19.6923 2.46154H18.4615V3.69231H19.6923V2.46154Z" fill="#C86B3C"/>
<path d="M20.9231 2.46154H19.6923V3.69231H20.9231V2.46154Z" fill="#C86B3C"/>
<path d="M13.5385 3.69231H12.3077V4.92308H13.5385V3.69231Z" fill="#C86B3C"/>
<path d="M14.7692 3.69231H13.5385V4.92308H14.7692V3.69231Z" fill="#C86B3C"/>
<path d="M16 3.69231H14.7692V4.92308H16V3.69231Z" fill="#C86B3C"/>
<path d="M17.2308 3.69231H16V4.92308H17.2308V3.69231Z" fill="#C86B3C"/>
<path d="M18.4615 3.69231H17.2308V4.92308H18.4615V3.69231Z" fill="#C86B3C"/>
<path d="M19.6923 3.69231H18.4615V4.92308H19.6923V3.69231Z" fill="#C86B3C"/>
<path d="M20.9231 3.69231H19.6923V4.92308H20.9231V3.69231Z" fill="#C86B3C"/>
<path d="M13.5385 4.92308H12.3077V6.15385H13.5385V4.92308Z" fill="#C86B3C"/>
<path d="M14.7692 4.92308H13.5385V6.15385H14.7692V4.92308Z" fill="#C86B3C"/>
<path d="M16 4.92308H14.7692V6.15385H16V4.92308Z" fill="#C86B3C"/>
<path d="M17.2308 4.92308H16V6.15385H17.2308V4.92308Z" fill="#C86B3C"/>
<path d="M18.4615 4.92308H17.2308V6.15385H18.4615V4.92308Z" fill="#C86B3C"/>
<path d="M19.6923 4.92308H18.4615V6.15385H19.6923V4.92308Z" fill="#C86B3C"/>
<path d="M20.9231 4.92308H19.6923V6.15385H20.9231V4.92308Z" fill="#C86B3C"/>
<path d="M13.5385 6.15385H12.3077V7.38462H13.5385V6.15385Z" fill="#C86B3C"/>
<path d="M14.7692 6.15385H13.5385V7.38462H14.7692V6.15385Z" fill="#C86B3C"/>
<path d="M16 6.15385H14.7692V7.38462H16V6.15385Z" fill="#C86B3C"/>
<path d="M17.2308 6.15385H16V7.38462H17.2308V6.15385Z" fill="#C86B3C"/>
<path d="M18.4615 6.15385H17.2308V7.38462H18.4615V6.15385Z" fill="#C86B3C"/>
<path d="M19.6923 6.15385H18.4615V7.38462H19.6923V6.15385Z" fill="#C86B3C"/>
<path d="M20.9231 6.15385H19.6923V7.38462H20.9231V6.15385Z" fill="#C86B3C"/>
<path d="M13.5385 7.38461H12.3077V8.61538H13.5385V7.38461Z" fill="#C86B3C"/>
<path d="M14.7692 7.38461H13.5385V8.61538H14.7692V7.38461Z" fill="#C86B3C"/>
<path d="M16 7.38461H14.7692V8.61538H16V7.38461Z" fill="#C86B3C"/>
<path d="M17.2308 7.38461H16V8.61538H17.2308V7.38461Z" fill="#C86B3C"/>
<path d="M18.4615 7.38461H17.2308V8.61538H18.4615V7.38461Z" fill="#C86B3C"/>
<path d="M19.6923 7.38461H18.4615V8.61538H19.6923V7.38461Z" fill="#C86B3C"/>
<path d="M20.9231 7.38461H19.6923V8.61538H20.9231V7.38461Z" fill="#C86B3C"/>
<path d="M13.5385 8.61539H12.3077V9.84615H13.5385V8.61539Z" fill="white"/>
<path d="M14.7692 8.61539H13.5385V9.84615H14.7692V8.61539Z" fill="black"/>
<path d="M16 8.61539H14.7692V9.84615H16V8.61539Z" fill="#090909"/>
<path d="M17.2308 8.61539H16V9.84615H17.2308V8.61539Z" fill="white"/>
<path d="M18.4615 8.61539H17.2308V9.84615H18.4615V8.61539Z" fill="white"/>
<path d="M19.6923 8.61539H18.4615V9.84615H19.6923V8.61539Z" fill="#2D2D2D"/>
<path d="M20.9231 8.61539H19.6923V9.84615H20.9231V8.61539Z" fill="white"/>
<path d="M13.5385 9.84615H12.3077V11.0769H13.5385V9.84615Z" fill="white"/>
<path d="M14.7692 9.84615H13.5385V11.0769H14.7692V9.84615Z" fill="white"/>
<path d="M16 9.84615H14.7692V11.0769H16V9.84615Z" fill="white"/>
<path d="M17.2308 9.84615H16V11.0769H17.2308V9.84615Z" fill="white"/>
<path d="M18.4615 9.84615H17.2308V11.0769H18.4615V9.84615Z" fill="white"/>
<path d="M19.6923 9.84615H18.4615V11.0769H19.6923V9.84615Z" fill="white"/>
<path d="M20.9231 9.84615H19.6923V11.0769H20.9231V9.84615Z" fill="white"/>
<path d="M13.5385 11.0769H12.3077V12.3077H13.5385V11.0769Z" fill="white"/>
<path d="M14.7692 11.0769H13.5385V12.3077H14.7692V11.0769Z" fill="white"/>
<path d="M16 11.0769H14.7692V12.3077H16V11.0769Z" fill="white"/>
<path d="M17.2308 11.0769H16V12.3077H17.2308V11.0769Z" fill="white"/>
<path d="M18.4615 11.0769H17.2308V12.3077H18.4615V11.0769Z" fill="white"/>
<path d="M19.6923 11.0769H18.4615V12.3077H19.6923V11.0769Z" fill="white"/>
<path d="M20.9231 11.0769H19.6923V12.3077H20.9231V11.0769Z" fill="white"/>
</svg>
